<svg viewBox="0 0 28 32" fill="none" xmlns="http://www.w3.org/2000/svg"><path d="M19.6172 0.189148C17.9657 0.303383 16.0353 1.36054 14.9103 2.73718C13.8842 3.98602 13.04 5.8409 13.3691 7.64349C15.1737 7.69964 17.0382 6.61731 18.1186 5.21744C19.1293 3.91438 19.8941 2.07113 19.6172 0.189148Z" fill="black"/><path d="M26.1439 10.5829C24.5581 8.5944 22.3296 7.44043 20.2249 7.44043C17.4465 7.44043 16.2712 8.7706 14.3408 8.7706C12.3504 8.7706 10.8383 7.4443 8.43545 7.4443C6.07523 7.4443 3.56205 8.88677 1.96856 11.3535C-0.271613 14.827 0.111753 21.3578 3.74212 26.9205C5.0413 28.9109 6.77613 31.1491 9.04535 31.1685C11.0648 31.1878 11.634 29.8732 14.3699 29.8596C17.1057 29.8441 17.6246 31.1859 19.6402 31.1646C21.9114 31.1472 23.7411 28.6669 25.0402 26.6765C25.9716 25.2495 26.3181 24.5312 27.0403 22.9203C21.7874 20.9202 20.9452 13.4504 26.1439 10.5829Z" fill="black"/></svg>
