<svg viewBox="0 0 42 42" fill="none" xmlns="http://www.w3.org/2000/svg">
<g filter="url(#filter0_dd)">
<path fill-rule="evenodd" clip-rule="evenodd" d="M20.8649 35.7297C30.1791 35.7297 37.7297 28.1791 37.7297 18.8649C37.7297 9.55066 30.1791 2 20.8649 2C11.5507 2 4 9.55066 4 18.8649C4 28.1791 11.5507 35.7297 20.8649 35.7297Z" fill="white"/>
</g>
<path d="M20.8661 31.9819C28.1105 31.9819 33.9833 26.1091 33.9833 18.8647C33.9833 11.6204 28.1105 5.74762 20.8661 5.74762C13.6218 5.74762 7.74902 11.6204 7.74902 18.8647C7.74902 26.1091 13.6218 31.9819 20.8661 31.9819Z" fill="#00C48C"/>
<path d="M27.2684 14.7075L18.4344 23.5415L14.4189 19.5261" stroke="white" stroke-linecap="round" stroke-linejoin="round"/>
<defs>
<filter id="filter0_dd" x="0" y="0" width="41.7297" height="41.7297" filterUnits="userSpaceOnUse" color-interpolation-filters="sRGB">
<feFlood flood-opacity="0" result="BackgroundImageFix"/>
<feColorMatrix in="SourceAlpha" type="matrix" values="0 0 0 0 0 0 0 0 0 0 0 0 0 0 0 0 0 0 127 0"/>
<feOffset dy="2"/>
<feGaussianBlur stdDeviation="2"/>
<feColorMatrix type="matrix" values="0 0 0 0 0.196487 0 0 0 0 0.196487 0 0 0 0 0.279476 0 0 0 0.06 0"/>
<feBlend mode="multiply" in2="BackgroundImageFix" result="effect1_dropShadow"/>
<feColorMatrix in="SourceAlpha" type="matrix" values="0 0 0 0 0 0 0 0 0 0 0 0 0 0 0 0 0 0 127 0"/>
<feOffset dy="2"/>
<feGaussianBlur stdDeviation="1"/>
<feColorMatrix type="matrix" values="0 0 0 0 0.196487 0 0 0 0 0.196487 0 0 0 0 0.279476 0 0 0 0.06 0"/>
<feBlend mode="multiply" in2="effect1_dropShadow" result="effect2_dropShadow"/>
<feBlend mode="normal" in="SourceGraphic" in2="effect2_dropShadow" result="shape"/>
</filter>
</defs>
</svg>
