<svg width="90" height="90" viewBox="0 0 90 90" fill="none" xmlns="http://www.w3.org/2000/svg">
<path d="M41.1328 54.492L15.8203 61.7069V51.825L41.1328 44.6101V54.492Z" fill="#372E7F"/>
<path d="M8.78906 88.2419C12.6723 88.2419 15.8203 85.0939 15.8203 81.2107C15.8203 77.3274 12.6723 74.1794 8.78906 74.1794C4.90581 74.1794 1.75781 77.3274 1.75781 81.2107C1.75781 85.0939 4.90581 88.2419 8.78906 88.2419Z" fill="#372E7F"/>
<path d="M34.1016 81.027C37.9848 81.027 41.1328 77.879 41.1328 73.9957C41.1328 70.1125 37.9848 66.9645 34.1016 66.9645C30.2183 66.9645 27.0703 70.1125 27.0703 73.9957C27.0703 77.879 30.2183 81.027 34.1016 81.027Z" fill="#372E7F"/>
<path d="M69.8892 16.9288L88.2421 11.6397V1.75781L69.8892 7.04689V16.9288Z" fill="#FECCC3"/>
<path d="M62.8579 43.4635C66.7412 43.4635 69.8892 40.3155 69.8892 36.4323C69.8892 32.549 66.7412 29.401 62.8579 29.401C58.9747 29.401 55.8267 32.549 55.8267 36.4323C55.8267 40.3155 58.9747 43.4635 62.8579 43.4635Z" fill="#FECCC3"/>
<path d="M69.0363 74.6205L60.6264 79.042L62.2325 69.6774L55.4287 63.0453L64.8312 61.679L69.0363 53.1587L73.2413 61.679L82.6439 63.0453L75.8401 69.6774L77.4464 79.042L69.0363 74.6205Z" fill="#F2F4FF"/>
<path d="M13.2133 19.3925L6.30301 23.0254L7.62277 15.3308L2.03223 9.88137L9.75816 8.75865L13.2133 1.75781L16.6685 8.75865L24.3944 9.88137L18.8039 15.3308L20.1236 23.0254L13.2133 19.3925Z" fill="#FFD88E"/>
<path d="M41.1328 42.8523C40.9656 42.8523 40.8045 42.8771 40.6513 42.9207L40.651 42.9194L35.6022 44.3586C34.6686 44.6247 34.1274 45.5973 34.3935 46.5309C34.6138 47.3036 35.3178 47.8072 36.0831 47.8072C36.2426 47.8072 36.4048 47.7852 36.5658 47.7395L39.375 46.939V53.1652L17.5781 59.3782V53.152L21.3511 52.0766C22.2847 51.8105 22.8259 50.8379 22.5598 49.9043C22.2936 48.9707 21.3214 48.43 20.3875 48.6956L15.3385 50.1347L15.3387 50.136C14.6023 50.3457 14.0625 51.0217 14.0625 51.8252V74.1844C12.5924 73.0782 10.7662 72.4217 8.78906 72.4217C3.94277 72.4217 0 76.3645 0 81.2108C0 86.057 3.94277 89.9998 8.78906 89.9998C13.6354 89.9998 17.5781 86.057 17.5781 81.2108V63.0339L39.375 56.8209V66.9693C37.9049 65.8633 36.0788 65.2067 34.1016 65.2067C29.2553 65.2067 25.3125 69.1495 25.3125 73.9958C25.3125 78.8421 29.2553 82.7849 34.1016 82.7849C38.9479 82.7849 42.8906 78.8421 42.8906 73.9958V44.6101C42.8906 43.6393 42.1037 42.8523 41.1328 42.8523ZM8.78906 86.4842C5.88129 86.4842 3.51562 84.1185 3.51562 81.2108C3.51562 78.303 5.88129 75.9373 8.78906 75.9373C11.6968 75.9373 14.0625 78.303 14.0625 81.2108C14.0625 84.1185 11.6968 86.4842 8.78906 86.4842ZM34.1016 79.2692C31.1938 79.2692 28.8281 76.9036 28.8281 73.9958C28.8281 71.088 31.1938 68.7224 34.1016 68.7224C37.0093 68.7224 39.375 71.088 39.375 73.9958C39.375 76.9036 37.0093 79.2692 34.1016 79.2692Z" fill="#31193B"/>
<path d="M89.2991 0.353165C88.8577 0.0211138 88.2861 -0.0840034 87.7554 0.0685748L69.4024 5.35766C68.6497 5.57457 68.1314 6.26328 68.1314 7.04674V29.4059C66.6613 28.2999 64.8351 27.6434 62.8579 27.6434C58.0116 27.6434 54.0688 31.5862 54.0688 36.4324C54.0688 41.2787 58.0116 45.2215 62.8579 45.2215C67.7042 45.2215 71.647 41.2787 71.647 36.4324V18.2514L88.7289 13.3286C89.4816 13.1117 90 12.423 90 11.6396V1.75766C90 1.20535 89.7403 0.685215 89.2991 0.353165ZM62.8579 41.7059C59.9501 41.7059 57.5845 39.3402 57.5845 36.4324C57.5845 33.5247 59.9501 31.159 62.8579 31.159C65.7657 31.159 68.1314 33.5247 68.1314 36.4324C68.1314 39.3402 65.7657 41.7059 62.8579 41.7059ZM86.4843 10.3168L71.647 14.5927V8.36949L86.4843 4.09361V10.3168Z" fill="#31193B"/>
<path d="M82.8968 61.306L74.4087 60.0725L70.6127 52.3811C70.3165 51.7811 69.7055 51.4012 69.0365 51.4012C68.3674 51.4012 67.7562 51.7811 67.4602 52.3811L63.6642 60.0725L55.1761 61.306C54.5139 61.4021 53.9639 61.866 53.757 62.5024C53.5501 63.1387 53.7228 63.8372 54.2019 64.3043L60.3439 70.2914L58.8939 78.7452C58.7807 79.4046 59.0517 80.0712 59.5931 80.4646C60.1344 80.8576 60.8521 80.9096 61.4443 80.5983L69.0363 76.6069L76.6283 80.5982C76.8854 80.7335 77.1663 80.8001 77.446 80.8001C77.8104 80.8001 78.1732 80.6869 78.4794 80.4644C79.0208 80.0712 79.2919 79.4046 79.1787 78.7451L77.7287 70.2912L83.8706 64.3041C84.3498 63.8371 84.5223 63.1385 84.3155 62.5022C84.1088 61.8658 83.559 61.4021 82.8968 61.306ZM74.6133 68.4188C74.199 68.8226 74.0098 69.4044 74.1078 69.9746L75.1118 75.8289L69.8544 73.0649C69.3423 72.7956 68.7306 72.7956 68.2184 73.0649L62.9609 75.8289L63.965 69.9746C64.0629 69.4044 63.8738 68.8226 63.4595 68.4188L59.2062 64.2728L65.0842 63.4187C65.6567 63.3356 66.1517 62.9759 66.4077 62.4572L69.0365 57.1308L71.6651 62.4572C71.9212 62.9759 72.416 63.3356 72.9886 63.4187L78.8665 64.2728L74.6133 68.4188Z" fill="#31193B"/>
<path d="M5.73387 15.9444L4.57019 22.7283C4.45699 23.3877 4.72805 24.0543 5.26945 24.4477C5.81068 24.8409 6.52857 24.8929 7.1206 24.5814L13.2128 21.3785L19.3052 24.5814C19.5624 24.7166 19.8433 24.7832 20.123 24.7832C20.4874 24.7832 20.8502 24.67 21.1564 24.4475C21.6978 24.0541 21.9688 23.3877 21.8556 22.7282L20.692 15.9442L25.6209 11.14C26.1001 10.6729 26.2725 9.97436 26.0658 9.33803C25.8591 8.7017 25.3089 8.23799 24.6467 8.14166L17.8352 7.15184L14.7892 0.979805C14.4932 0.379863 13.8822 0 13.213 0C12.5438 0 11.9328 0.379863 11.6368 0.979805L8.59066 7.15201L1.77914 8.14184C1.11697 8.23799 0.566952 8.70187 0.360057 9.3382C0.153163 9.97453 0.32578 10.6731 0.80496 11.1401L5.73387 15.9444ZM10.0106 10.4982C10.5831 10.415 11.0781 10.0554 11.3341 9.53666L13.2128 5.72977L15.0916 9.53666C15.3477 10.0554 15.8425 10.415 16.415 10.4982L20.6162 11.1087L17.5766 14.072C17.1623 14.4759 16.9731 15.0578 17.0711 15.628L17.7888 19.8123L14.0311 17.8369C13.775 17.7022 13.4941 17.6349 13.2132 17.6349C12.9321 17.6349 12.6512 17.7022 12.3953 17.8369L8.6376 19.8123L9.35531 15.628C9.45322 15.0578 9.26408 14.4759 8.84976 14.072L5.80945 11.1087L10.0106 10.4982Z" fill="#31193B"/>
<path d="M41.1328 15.1707C40.162 15.1707 39.375 15.9576 39.375 16.9285V18.6863C39.375 19.6571 40.162 20.4441 41.1328 20.4441C42.1037 20.4441 42.8906 19.6571 42.8906 18.6863V16.9285C42.8906 15.9576 42.1037 15.1707 41.1328 15.1707Z" fill="#31193B"/>
<path d="M41.1328 27.4753C40.162 27.4753 39.375 28.2623 39.375 29.2332V30.991C39.375 31.9618 40.162 32.7488 41.1328 32.7488C42.1037 32.7488 42.8906 31.9618 42.8906 30.991V29.2332C42.8906 28.2623 42.1037 27.4753 41.1328 27.4753Z" fill="#31193B"/>
<path d="M48.1641 22.2019H46.4062C45.4354 22.2019 44.6484 22.9889 44.6484 23.9597C44.6484 24.9306 45.4354 25.7175 46.4062 25.7175H48.1641C49.1349 25.7175 49.9219 24.9306 49.9219 23.9597C49.9219 22.9889 49.1349 22.2019 48.1641 22.2019Z" fill="#31193B"/>
<path d="M34.1016 25.7175H35.8594C36.8302 25.7175 37.6172 24.9306 37.6172 23.9597C37.6172 22.9889 36.8302 22.2019 35.8594 22.2019H34.1016C33.1307 22.2019 32.3438 22.9889 32.3438 23.9597C32.3438 24.9306 33.1307 25.7175 34.1016 25.7175Z" fill="#31193B"/>
<path d="M28.4766 49.9762C28.9389 49.9762 29.3924 49.7881 29.7193 49.4612C30.0463 49.1342 30.2344 48.6807 30.2344 48.2184C30.2344 47.7543 30.0463 47.3026 29.7193 46.9739C29.3924 46.6469 28.9389 46.4606 28.4766 46.4606C28.0143 46.4606 27.5607 46.6469 27.2338 46.9739C26.9068 47.3026 26.7188 47.7543 26.7188 48.2184C26.7188 48.6807 26.9068 49.1342 27.2338 49.4612C27.5607 49.7881 28.0143 49.9762 28.4766 49.9762Z" fill="#31193B"/>
</svg>
