<svg viewBox="0 0 312 219" fill="none" xmlns="http://www.w3.org/2000/svg">
<circle cx="5.83261" cy="5.06259" r="4.89755" fill="#F2F4FF"/>
<circle cx="5.83261" cy="28.2135" r="4.89755" fill="#F2F4FF"/>
<circle cx="5.83261" cy="51.3668" r="4.89755" fill="#F2F4FF"/>
<circle cx="5.83261" cy="74.5177" r="4.89755" fill="#F2F4FF"/>
<circle cx="5.83261" cy="97.671" r="4.89755" fill="#F2F4FF"/>
<circle cx="5.83261" cy="120.824" r="4.89755" fill="#F2F4FF"/>
<circle cx="5.83261" cy="143.975" r="4.89755" fill="#F2F4FF"/>
<circle cx="5.83261" cy="167.127" r="4.89755" fill="#F2F4FF"/>
<circle cx="5.83261" cy="190.278" r="4.89755" fill="#F2F4FF"/>
<circle cx="5.83261" cy="213.431" r="4.89755" fill="#F2F4FF"/>
<circle cx="28.985" cy="5.06259" r="4.89755" fill="#F2F4FF"/>
<circle cx="28.985" cy="28.2135" r="4.89755" fill="#F2F4FF"/>
<circle cx="28.985" cy="51.3668" r="4.89755" fill="#F2F4FF"/>
<circle cx="28.985" cy="74.5177" r="4.89755" fill="#F2F4FF"/>
<circle cx="28.985" cy="97.671" r="4.89755" fill="#F2F4FF"/>
<circle cx="28.985" cy="120.824" r="4.89755" fill="#F2F4FF"/>
<circle cx="28.985" cy="143.975" r="4.89755" fill="#F2F4FF"/>
<circle cx="28.985" cy="167.127" r="4.89755" fill="#F2F4FF"/>
<circle cx="28.985" cy="190.278" r="4.89755" fill="#F2F4FF"/>
<circle cx="28.985" cy="213.431" r="4.89755" fill="#F2F4FF"/>
<circle cx="52.1368" cy="5.06259" r="4.89755" fill="#F2F4FF"/>
<circle cx="52.1368" cy="28.2135" r="4.89755" fill="#F2F4FF"/>
<circle cx="52.1368" cy="51.3668" r="4.89755" fill="#F2F4FF"/>
<circle cx="52.1368" cy="74.5177" r="4.89755" fill="#F2F4FF"/>
<circle cx="52.1368" cy="97.671" r="4.89755" fill="#F2F4FF"/>
<circle cx="52.1368" cy="120.824" r="4.89755" fill="#F2F4FF"/>
<circle cx="52.1368" cy="143.975" r="4.89755" fill="#F2F4FF"/>
<circle cx="52.1368" cy="167.127" r="4.89755" fill="#F2F4FF"/>
<circle cx="52.1368" cy="190.278" r="4.89755" fill="#F2F4FF"/>
<circle cx="52.1368" cy="213.431" r="4.89755" fill="#F2F4FF"/>
<circle cx="75.2887" cy="5.06259" r="4.89755" fill="#F2F4FF"/>
<circle cx="75.2887" cy="28.2135" r="4.89755" fill="#F2F4FF"/>
<circle cx="75.2887" cy="51.3668" r="4.89755" fill="#F2F4FF"/>
<circle cx="75.2887" cy="74.5177" r="4.89755" fill="#F2F4FF"/>
<circle cx="75.2887" cy="97.671" r="4.89755" fill="#F2F4FF"/>
<circle cx="75.2887" cy="120.824" r="4.89755" fill="#F2F4FF"/>
<circle cx="75.2887" cy="143.975" r="4.89755" fill="#F2F4FF"/>
<circle cx="75.2887" cy="167.127" r="4.89755" fill="#F2F4FF"/>
<circle cx="75.2887" cy="190.278" r="4.89755" fill="#F2F4FF"/>
<circle cx="75.2887" cy="213.431" r="4.89755" fill="#F2F4FF"/>
<circle cx="98.4415" cy="5.06259" r="4.89755" fill="#F2F4FF"/>
<circle cx="98.4415" cy="28.2135" r="4.89755" fill="#F2F4FF"/>
<circle cx="98.4415" cy="51.3668" r="4.89755" fill="#F2F4FF"/>
<circle cx="98.4415" cy="74.5177" r="4.89755" fill="#F2F4FF"/>
<circle cx="98.4415" cy="97.671" r="4.89755" fill="#F2F4FF"/>
<circle cx="98.4415" cy="120.824" r="4.89755" fill="#F2F4FF"/>
<circle cx="98.4415" cy="143.975" r="4.89755" fill="#F2F4FF"/>
<circle cx="98.4415" cy="167.127" r="4.89755" fill="#F2F4FF"/>
<circle cx="98.4415" cy="190.278" r="4.89755" fill="#F2F4FF"/>
<circle cx="98.4415" cy="213.431" r="4.89755" fill="#F2F4FF"/>
<circle cx="121.593" cy="5.06259" r="4.89755" fill="#F2F4FF"/>
<circle cx="121.593" cy="28.2135" r="4.89755" fill="#F2F4FF"/>
<circle cx="121.593" cy="51.3668" r="4.89755" fill="#F2F4FF"/>
<circle cx="121.593" cy="74.5177" r="4.89755" fill="#F2F4FF"/>
<circle cx="121.593" cy="97.671" r="4.89755" fill="#F2F4FF"/>
<circle cx="121.593" cy="120.824" r="4.89755" fill="#F2F4FF"/>
<circle cx="121.593" cy="143.975" r="4.89755" fill="#F2F4FF"/>
<circle cx="121.593" cy="167.127" r="4.89755" fill="#F2F4FF"/>
<circle cx="121.593" cy="190.278" r="4.89755" fill="#F2F4FF"/>
<circle cx="121.593" cy="213.431" r="4.89755" fill="#F2F4FF"/>
<circle cx="144.745" cy="5.06259" r="4.89755" fill="#F2F4FF"/>
<circle cx="144.745" cy="28.2135" r="4.89755" fill="#F2F4FF"/>
<circle cx="144.745" cy="51.3668" r="4.89755" fill="#F2F4FF"/>
<circle cx="144.745" cy="74.5177" r="4.89755" fill="#F2F4FF"/>
<circle cx="144.745" cy="97.671" r="4.89755" fill="#F2F4FF"/>
<circle cx="144.745" cy="120.824" r="4.89755" fill="#F2F4FF"/>
<circle cx="144.745" cy="143.975" r="4.89755" fill="#F2F4FF"/>
<circle cx="144.745" cy="167.127" r="4.89755" fill="#F2F4FF"/>
<circle cx="144.745" cy="190.278" r="4.89755" fill="#F2F4FF"/>
<circle cx="144.745" cy="213.431" r="4.89755" fill="#F2F4FF"/>
<circle cx="167.899" cy="5.06259" r="4.89755" fill="#F2F4FF"/>
<circle cx="167.899" cy="28.2135" r="4.89755" fill="#F2F4FF"/>
<circle cx="167.899" cy="51.3668" r="4.89755" fill="#F2F4FF"/>
<circle cx="167.899" cy="74.5177" r="4.89755" fill="#F2F4FF"/>
<circle cx="167.899" cy="97.671" r="4.89755" fill="#F2F4FF"/>
<circle cx="167.899" cy="120.824" r="4.89755" fill="#F2F4FF"/>
<circle cx="167.899" cy="143.975" r="4.89755" fill="#F2F4FF"/>
<circle cx="167.899" cy="167.127" r="4.89755" fill="#F2F4FF"/>
<circle cx="167.899" cy="190.278" r="4.89755" fill="#F2F4FF"/>
<circle cx="167.899" cy="213.431" r="4.89755" fill="#F2F4FF"/>
<circle cx="191.049" cy="5.06259" r="4.89755" fill="#F2F4FF"/>
<circle cx="260.23" cy="5.06259" r="4.89755" fill="#F2F4FF"/>
<circle cx="191.049" cy="28.2135" r="4.89755" fill="#F2F4FF"/>
<circle cx="260.23" cy="28.2135" r="4.89755" fill="#F2F4FF"/>
<circle cx="191.049" cy="51.3668" r="4.89755" fill="#F2F4FF"/>
<circle cx="260.23" cy="51.3668" r="4.89755" fill="#F2F4FF"/>
<circle cx="191.049" cy="74.5177" r="4.89755" fill="#F2F4FF"/>
<circle cx="260.23" cy="74.5177" r="4.89755" fill="#F2F4FF"/>
<circle cx="191.049" cy="97.671" r="4.89755" fill="#F2F4FF"/>
<circle cx="260.23" cy="97.671" r="4.89755" fill="#F2F4FF"/>
<circle cx="191.049" cy="120.824" r="4.89755" fill="#F2F4FF"/>
<circle cx="260.23" cy="120.824" r="4.89755" fill="#F2F4FF"/>
<circle cx="191.049" cy="143.975" r="4.89755" fill="#F2F4FF"/>
<circle cx="260.23" cy="143.975" r="4.89755" fill="#F2F4FF"/>
<circle cx="191.049" cy="167.127" r="4.89755" fill="#F2F4FF"/>
<circle cx="260.23" cy="167.127" r="4.89755" fill="#F2F4FF"/>
<circle cx="191.049" cy="190.278" r="4.89755" fill="#F2F4FF"/>
<circle cx="260.23" cy="190.278" r="4.89755" fill="#F2F4FF"/>
<circle cx="191.049" cy="213.431" r="4.89755" fill="#F2F4FF"/>
<circle cx="260.23" cy="213.431" r="4.89755" fill="#F2F4FF"/>
<circle cx="214.201" cy="5.06259" r="4.89755" fill="#F2F4FF"/>
<circle cx="283.382" cy="5.06259" r="4.89755" fill="#F2F4FF"/>
<circle cx="214.201" cy="28.2135" r="4.89755" fill="#F2F4FF"/>
<circle cx="283.382" cy="28.2135" r="4.89755" fill="#F2F4FF"/>
<circle cx="214.201" cy="51.3668" r="4.89755" fill="#F2F4FF"/>
<circle cx="283.382" cy="51.3668" r="4.89755" fill="#F2F4FF"/>
<circle cx="214.201" cy="74.5177" r="4.89755" fill="#F2F4FF"/>
<circle cx="283.382" cy="74.5177" r="4.89755" fill="#F2F4FF"/>
<circle cx="214.201" cy="97.671" r="4.89755" fill="#F2F4FF"/>
<circle cx="283.382" cy="97.671" r="4.89755" fill="#F2F4FF"/>
<circle cx="214.201" cy="120.824" r="4.89755" fill="#F2F4FF"/>
<circle cx="283.382" cy="120.824" r="4.89755" fill="#F2F4FF"/>
<circle cx="214.201" cy="143.975" r="4.89755" fill="#F2F4FF"/>
<circle cx="283.382" cy="143.975" r="4.89755" fill="#F2F4FF"/>
<circle cx="214.201" cy="167.127" r="4.89755" fill="#F2F4FF"/>
<circle cx="283.382" cy="167.127" r="4.89755" fill="#F2F4FF"/>
<circle cx="214.201" cy="190.278" r="4.89755" fill="#F2F4FF"/>
<circle cx="283.382" cy="190.278" r="4.89755" fill="#F2F4FF"/>
<circle cx="214.201" cy="213.431" r="4.89755" fill="#F2F4FF"/>
<circle cx="283.382" cy="213.431" r="4.89755" fill="#F2F4FF"/>
<circle cx="237.354" cy="5.06259" r="4.89755" fill="#F2F4FF"/>
<circle cx="306.534" cy="5.06259" r="4.89755" fill="#F2F4FF"/>
<circle cx="237.354" cy="28.2135" r="4.89755" fill="#F2F4FF"/>
<circle cx="306.534" cy="28.2135" r="4.89755" fill="#F2F4FF"/>
<circle cx="237.354" cy="51.3668" r="4.89755" fill="#F2F4FF"/>
<circle cx="306.534" cy="51.3668" r="4.89755" fill="#F2F4FF"/>
<circle cx="237.354" cy="74.5177" r="4.89755" fill="#F2F4FF"/>
<circle cx="306.534" cy="74.5177" r="4.89755" fill="#F2F4FF"/>
<circle cx="237.354" cy="97.671" r="4.89755" fill="#F2F4FF"/>
<circle cx="306.534" cy="97.671" r="4.89755" fill="#F2F4FF"/>
<circle cx="237.354" cy="120.824" r="4.89755" fill="#F2F4FF"/>
<circle cx="306.534" cy="120.824" r="4.89755" fill="#F2F4FF"/>
<circle cx="237.354" cy="143.975" r="4.89755" fill="#F2F4FF"/>
<circle cx="306.534" cy="143.975" r="4.89755" fill="#F2F4FF"/>
<circle cx="237.354" cy="167.127" r="4.89755" fill="#F2F4FF"/>
<circle cx="306.534" cy="167.127" r="4.89755" fill="#F2F4FF"/>
<circle cx="237.354" cy="190.278" r="4.89755" fill="#F2F4FF"/>
<circle cx="306.534" cy="190.278" r="4.89755" fill="#F2F4FF"/>
<circle cx="237.354" cy="213.431" r="4.89755" fill="#F2F4FF"/>
<circle cx="306.534" cy="213.431" r="4.89755" fill="#F2F4FF"/>
</svg>
