<svg width="485" height="470" viewBox="0 0 485 470" fill="none" xmlns="http://www.w3.org/2000/svg">
<path d="M476.128 468.128C479.082 468.321 482.044 468.345 485 468.201V469.484C484.012 469.484 483.024 469.458 482.036 469.458C334.603 469.458 187.16 469.448 39.7048 469.428C38.7424 469.428 36.9629 470.014 36.9672 468.855C36.9714 467.696 38.768 468.299 39.7433 468.295C64.3305 468.26 88.9164 468.25 113.501 468.265C114.284 468.265 115.062 468.205 115.845 468.171L173.694 468.23C174.828 468.23 175.966 468.166 177.116 468.132C180.221 468.337 183.335 468.35 186.441 468.171H202.696C202.903 468.215 203.113 468.245 203.325 468.26C217.814 468.26 232.299 468.26 246.78 468.26C247.293 468.26 247.948 468.517 248.269 467.803C249.415 468.834 250.78 468.23 252.016 468.23C299.476 468.268 346.934 468.296 394.389 468.316C396.391 468.316 396.69 467.653 396.678 465.891C396.609 454.559 396.656 443.22 396.635 431.901C396.635 428.347 397.063 428.83 393.589 428.83C360.883 428.83 328.177 428.869 295.471 428.792C285.688 428.77 277.818 424.758 273.087 416.028C268.356 407.297 268.942 398.49 274.22 390.084C278.874 382.663 283.631 375.305 288.255 367.88C290.625 364.085 293.277 360.462 295.27 356.437L297.323 355.582C297.161 355.894 297.015 356.219 296.827 356.519C289.517 368.068 282.125 379.57 274.922 391.166C270.127 398.896 269.549 407.079 273.938 415.121C278.327 423.162 285.265 427.526 294.44 427.555C327.861 427.662 361.281 427.585 394.701 427.641C396.374 427.641 396.682 427.093 396.673 425.566C396.618 412.952 396.592 400.329 396.673 387.727C396.673 385.64 396.121 385.161 394.081 385.161C367.934 385.135 341.784 385.047 315.631 384.896C314.947 384.896 314.113 385.178 313.219 383.873H371.098L359.253 376.011C358.95 375.716 358.63 375.439 358.295 375.181C346.049 366.776 333.682 358.546 321.628 349.88C317.779 347.099 314.476 345.765 310.413 348.862C310.221 348.956 310.014 349.015 309.801 349.037C305.404 344.015 300.955 339.032 296.639 333.942C295.436 332.436 293.713 331.437 291.81 331.14C288.452 330.618 285.077 330.19 281.71 329.724C280.513 329.544 279.306 329.412 278.122 329.177C275.79 328.719 273.844 327.705 272.71 325.451C271.923 323.86 273.044 322.007 272.428 320.711C271.812 319.415 269.716 318.782 269.455 317.02C269.25 315.664 268.489 315.347 267.372 315.052C239.254 307.581 211.143 300.091 183.036 292.582C179.537 291.65 176.017 291.367 172.471 292.21C163 294.456 157.012 302.476 156.99 313.093C156.935 339.828 156.939 366.562 156.849 393.288C156.849 395.042 157.243 395.542 159.052 395.534C173.596 395.457 188.139 395.5 202.683 395.504C202.774 395.691 202.821 395.895 202.821 396.103C202.821 396.31 202.774 396.515 202.683 396.702C191.847 396.702 181.01 396.702 170.174 396.702L114.566 396.655C114.433 396.274 114.275 395.889 114.532 395.495C127.578 395.495 140.625 395.444 153.667 395.534C155.579 395.534 155.998 395.046 155.998 393.177C155.964 366.301 156.22 339.426 155.964 312.55C155.836 299.024 168.715 287.56 183.391 291.624C211.298 299.349 239.324 306.643 267.316 314.051C267.885 314.201 268.942 315.334 269.361 313.829C269.648 312.798 270.525 311.831 269.032 310.698C265.64 308.131 265.366 305.898 267.535 302.207C267.924 302.301 268.018 302.634 268.133 302.947C266.183 306.916 267.637 310.065 271.953 311.172C276.073 312.233 280.273 312.156 284.478 312.109C285.137 312.109 286.005 311.707 286.651 312.965C281.804 312.99 277.21 313.311 272.659 312.259C271.932 312.088 271.226 311.72 270.7 312.794C269.233 315.809 270.345 318.718 273.527 319.834C276.808 320.985 280.235 320.934 283.644 321.041C284.568 321.071 285.534 320.844 286.95 321.468C286.172 321.738 285.881 321.926 285.582 321.935C282.091 322.02 278.579 322.17 275.179 321.267C273.579 320.84 273.326 321.541 273.224 322.79C272.98 325.72 274.871 327.756 278.481 328.321C280.658 328.659 282.844 329.027 285.038 329.177C291.378 329.604 297.101 331.491 302.148 335.529C304.916 337.749 308 339.567 310.909 341.616C311.696 342.167 312.132 342.244 312.722 341.312C318.797 331.699 324.896 322.104 331.022 312.528C331.796 311.818 332.497 312.409 333.161 312.695C335.843 313.833 338.495 315.035 341.172 316.181C348.675 319.398 356.179 322.608 363.685 325.81L379.7 333.005C379.191 327.089 378.733 321.567 378.237 316.049C377.938 312.729 377.578 309.414 377.245 306.099C376.74 299.302 376.231 292.505 375.696 285.383C376.629 286.008 376.65 286.512 376.689 287.009C377.001 290.769 377.266 294.533 377.634 298.289C378.203 304.059 378.259 309.838 380.834 315.343C383.516 321.054 385.59 327.051 387.87 332.945C388.786 335.319 389.466 337.817 392.379 338.57C392.439 338.57 392.451 338.805 392.498 338.976C391.574 339.541 390.877 338.771 390.184 338.472C377.163 332.817 364.14 327.153 351.113 321.481C350.258 321.101 349.475 320.429 348.637 321.746C342.132 332.013 335.586 342.263 328.998 352.498C328.545 353.203 328.442 353.631 329.264 354.179C334.114 357.413 338.927 360.698 343.756 363.966L345.754 365.45C354.357 371.359 362.959 377.267 371.56 383.176C372.162 383.675 372.917 383.953 373.699 383.963C375.756 383.899 377.818 383.908 379.875 383.886H381.107C385.975 383.916 390.847 383.925 395.715 383.997C396.438 383.997 397.285 383.63 397.892 384.387C397.845 384.525 397.815 384.669 397.803 384.814C397.803 412.119 397.785 439.421 397.751 466.721C397.751 468.209 398.431 468.282 399.573 468.278C406.418 468.243 413.262 468.188 420.106 468.307C422.052 468.342 422.578 467.828 422.569 465.856C422.501 438.694 422.485 411.533 422.522 384.374C422.924 384.066 423.318 384.31 423.712 384.374C423.712 397.292 423.712 410.21 423.712 423.128C423.712 426.46 423.78 429.793 423.819 433.125C423.781 444.452 423.736 455.776 423.682 467.097C423.682 468.064 424.037 468.29 424.931 468.286C436.109 468.229 447.292 468.201 458.479 468.201H463.98H464.99L476.128 468.128ZM348.547 320.335C343.29 318.051 338.195 315.878 333.148 313.611C332.113 313.149 331.663 313.41 331.112 314.278C325.297 323.403 319.451 332.51 313.574 341.598C313.005 342.475 312.911 342.959 313.907 343.622C318.112 346.424 322.274 349.298 326.415 352.177C327.305 352.801 327.771 352.84 328.408 351.835C335.034 341.402 341.703 330.977 348.547 320.335Z" fill="#1F2128"/>
<path d="M343.773 363.953C338.944 360.685 334.131 357.413 329.298 354.166C328.477 353.618 328.579 353.191 329.033 352.485C335.592 342.247 342.138 331.997 348.671 321.734C349.526 320.416 350.279 321.088 351.147 321.468C364.168 327.132 377.195 332.787 390.227 338.433C390.92 338.733 391.617 339.503 392.541 338.938C392.494 338.767 392.481 338.544 392.421 338.532C389.508 337.779 388.828 335.281 387.913 332.907C385.633 327.012 383.558 321.015 380.876 315.305C378.31 309.816 378.246 304.02 377.677 298.25C377.309 294.494 377.044 290.73 376.731 286.97C376.693 286.474 376.671 285.969 375.739 285.345C376.274 292.467 376.783 299.264 377.287 306.061C375.576 307.015 375.863 309.367 374.229 310.338C361.02 302.733 347.794 295.157 334.64 287.458C333.387 286.722 331.556 286.56 331.035 284.776C331.89 283.591 332.386 282.209 333.443 281.11C334.582 279.897 335.439 278.448 335.954 276.867C336.809 274.206 339.581 272.589 339.705 269.616C343.221 267.905 342.272 263.846 343.888 261.061C345.309 258.567 345.321 254.85 345.664 251.651C345.852 249.867 346.053 247.801 344.629 246.18C344.247 245.768 344.03 245.231 344.021 244.67C344.244 242.698 343.268 241.128 342.006 240.033C338.974 237.415 336.146 234.138 331.415 234.934C331.193 234.973 330.923 234.694 330.675 234.57C330.102 234.276 329.467 234.123 328.823 234.123C328.179 234.123 327.544 234.276 326.971 234.57C323.373 236.26 319.472 237.111 315.999 239.25C312.333 241.513 308.445 243.429 304.933 245.962C304.137 246.535 303.064 246.693 302.512 247.625C300.416 251.142 296.801 252.972 293.722 255.376C292.892 256.027 292.913 257.353 292.751 257.37C290.612 257.605 290.368 259.662 289.252 260.834C287.703 260.685 286.625 259.551 285.286 258.948V248.541C285.528 248.401 285.746 248.223 285.932 248.015C289.905 241.889 293.868 235.758 297.824 229.621C298.033 229.296 298.145 228.997 297.507 228.573C293.455 234.736 289.403 240.901 285.35 247.069L285.235 236.649L285.363 235.794L286.018 200.928L286.155 200.795C287.78 200.145 289.183 198.977 290.963 198.678C293.465 199.73 295.706 201.244 298.508 201.787C302.542 202.579 306.34 204.405 310.408 205.209C312.183 205.556 314.044 206.065 315.789 205.834C317.794 205.597 319.812 205.497 321.829 205.535C327.476 205.603 332.925 204.914 338.191 202.882C342.085 201.387 345.803 199.47 349.278 197.163C351.601 198.515 353.983 199.777 356.221 201.253C357.538 202.108 358.141 201.937 359.005 200.624C362.154 195.85 365.452 191.175 368.69 186.461C374.498 189.703 380.309 192.942 386.121 196.175C386.775 196.539 387.365 197.163 388.259 196.932C390.445 197.788 392.246 199.413 394.509 200.132C393.334 205.616 392.159 211.1 390.984 216.583C390.227 220.095 390.218 220.091 393.478 221.93L401.712 227.47C401.284 227.85 402.14 229.403 400.544 228.727C400.005 228.501 399.744 229.044 399.646 229.407C399.218 230.909 398.162 232.017 397.465 233.347C396.327 235.524 394.616 237.603 394.201 239.913C393.268 245.14 391.698 250.239 391.207 255.556C390.95 258.328 391.117 261.095 390.903 263.859C390.822 264.894 391.331 265.882 391.442 266.938C391.84 270.523 391.87 274.142 393.033 277.662C394.577 282.303 397.473 285.691 401.122 288.827C404.972 292.142 409.104 295.08 413.21 298.036C415.302 299.542 417.385 301.231 419.729 302.262C421.701 303.118 423.369 304.401 425.08 305.577C426.202 306.357 427.578 306.682 428.93 306.484C430.068 307.951 429.49 309.752 429.726 311.361C430.44 316.293 430.692 321.293 431.172 326.264C431.347 328.086 431.74 329.887 431.599 331.735C430.556 333.262 428.537 333.873 427.711 335.537C425.863 339.314 423.643 342.916 422.578 347.087C421.915 349.679 421.5 352.348 421.894 354.897C422.492 358.803 422.912 362.738 423.737 366.622C424.297 369.37 425.107 372.06 426.158 374.66C427.548 377.966 429.152 381.341 431.407 384.25L423.771 384.37C423.378 384.284 422.984 384.04 422.582 384.37L397.956 384.395C397.349 383.638 396.502 384.014 395.779 384.006C390.911 383.933 386.039 383.925 381.171 383.895C381.552 380.986 380.474 378.176 380.611 375.288C380.611 375.216 380.611 375.122 380.611 375.079C379.229 373.449 379.756 371.259 378.874 369.321C377.57 366.472 375.517 364.188 374.079 361.476C373.224 359.872 371.38 358.615 370.23 356.904C369.433 355.655 368.294 354.663 366.949 354.046C364.609 353.126 362.359 351.907 359.677 351.762C356.546 351.561 352.046 353.413 350.382 356.151C350.117 356.578 349.813 357.075 349.312 357.122C347.974 357.237 347.435 358.285 346.819 359.179C345.711 360.711 344.77 362.349 343.773 363.953Z" fill="#E6EDF1"/>
<path d="M267.569 302.19C265.4 305.881 265.674 308.101 269.066 310.681C270.559 311.814 269.682 312.781 269.395 313.812C268.968 315.313 267.92 314.184 267.351 314.034C239.359 306.626 211.315 299.332 183.426 291.607C168.749 287.543 155.87 299.007 155.998 312.533C156.255 339.409 155.998 366.284 156.032 393.16C156.032 395.029 155.605 395.53 153.701 395.517C140.659 395.427 127.608 395.474 114.566 395.478C114.549 383.076 114.535 370.672 114.523 358.264C114.523 333.741 114.395 309.218 114.57 284.69C114.694 267.456 123.249 255.24 138.332 247.596C150.035 241.667 162.26 241.607 174.691 245.478C180.521 247.292 186.497 248.665 192.404 250.235L218.925 257.442L221.521 258.508C224.143 260.668 226.825 262.738 229.978 264.09L230.333 264.175L231.308 264.325L247.991 276.101L258.03 283.343L267.569 302.19Z" fill="#367FFC"/>
<path d="M401.674 227.495L393.461 221.956C394.316 217.845 394.517 213.653 394.945 209.491C395.493 204.196 396.417 198.93 396.412 193.583C396.481 192.422 396.611 191.266 396.802 190.118C397.939 184.848 399.18 179.6 400.296 174.326C400.566 173.072 400.976 172.615 402.384 172.615C406.234 172.683 408.744 169.543 408.009 165.818C407.739 164.466 407.183 163.157 405.699 162.751C404.215 162.344 402.953 162.96 401.896 164.094C401.361 164.671 401.212 165.723 400.121 165.728C400.219 160.809 399.8 160.017 396.344 158.589C395.621 158.289 394.902 157.985 394.167 157.733C389.953 156.27 386.788 153.52 384.482 149.773C383.409 148.036 382.545 146.167 381.591 144.357C383.327 142.218 385.838 141.812 388.311 141.431C389.705 141.218 391.703 141.859 392.413 141.132C393.191 140.328 391.921 138.565 391.793 137.154C391.13 129.72 396.425 122.914 403.569 122.084C411.191 121.194 418.005 126.225 419.088 133.531C419.639 137.138 418.737 140.818 416.579 143.761C414.421 146.704 411.183 148.671 407.577 149.229C406.811 149.362 406.037 149.456 404.98 149.606C407.641 153.225 407.217 157.536 408.248 161.484C410.793 171.186 417.034 177.739 426.167 181.589C430.244 183.309 434.621 184.206 439.046 184.228C457.739 184.446 471.924 196.128 475.79 214.41C477.442 222.213 475.363 229.382 471.774 236.204C464.605 249.76 453.201 258.448 439.213 264.06C434.8 265.86 430.213 267.202 425.525 268.063C425.372 267.667 425.254 267.258 425.174 266.84C424.467 259.837 422.39 253.041 419.062 246.838C415.178 239.643 410.4 233.18 403.338 228.723L401.674 227.495Z" fill="#FE5635"/>
<path d="M229.965 264.107C226.812 262.755 224.13 260.685 221.508 258.524C221.936 257.442 221.034 257.19 220.43 256.775L195.561 239.874C195.441 239.797 195.326 239.708 195.202 239.643C194.774 239.434 194.346 238.848 193.918 239.378C193.491 239.909 194.188 240.195 194.517 240.49C194.798 240.709 195.092 240.909 195.398 241.089C200.459 244.511 205.57 247.882 210.558 251.411C213.368 253.396 216.546 254.906 218.925 257.459L192.404 250.252C192.678 247.296 192.883 244.327 193.26 241.38C193.435 239.96 192.883 239.194 191.754 238.433C182.024 231.905 172.314 225.347 162.624 218.756C147.755 208.67 132.894 198.575 118.039 188.471L84.9268 165.946C70.5971 156.207 56.2673 146.467 41.9376 136.726C28.6088 127.663 15.2872 118.589 1.97266 109.504C1.72227 109.375 1.47944 109.233 1.24545 109.076C0.941748 108.815 0.415608 108.55 0.70648 108.071C1.07435 107.468 1.50639 107.827 1.95126 108.131C5.29201 110.415 8.65414 112.665 11.9992 114.945C18.5695 119.423 25.1269 123.928 31.7015 128.402C42.9172 136.03 54.1371 143.647 65.3614 151.253C66.4864 151.963 67.3975 153.019 68.7834 153.331C69.0486 154.093 69.7972 154.307 70.3661 154.696C79.9734 161.255 89.5893 167.814 99.2137 174.373C111.892 182.992 124.554 191.637 137.284 200.179C141.099 202.745 144.658 205.697 148.833 207.733C149.868 208.918 151.036 209.898 152.632 210.227C152.939 210.772 153.383 211.227 153.919 211.549C166.439 220.014 178.973 228.462 191.437 237.008C193.054 238.116 193.392 237.539 193.602 236.067C193.905 233.89 193.692 231.696 194.077 229.497C194.53 226.931 194.504 224.279 194.663 221.661C195.673 222.151 196.623 222.757 197.494 223.466C198.914 224.582 200.326 225.737 202.2 226.28C207.572 227.837 212.757 229.998 218.454 230.37C222.278 230.618 226.013 230.177 229.755 229.613C230.041 229.59 230.32 229.509 230.572 229.373C233.028 227.739 236.133 227.632 238.567 225.951C239.119 231.195 238.939 236.512 239.957 241.714C240.578 240.807 240.441 239.853 240.282 238.989C239.855 236.696 240.65 234.951 242.096 233.184C245.783 228.672 249.312 224.026 252.854 219.389C253.076 219.094 254.835 218.269 252.756 217.965C253.829 216.968 255.322 216.772 256.55 216.121C265.233 211.579 273.947 207.1 282.643 202.613C283.331 202.258 284.076 202.018 284.782 201.723C284.803 202.579 284.85 203.434 284.841 204.29C284.705 214.733 284.562 225.174 284.414 235.614C275.106 240.439 265.815 245.286 256.494 250.081C248.936 253.969 241.343 257.78 233.768 261.63C230.82 260.74 227.882 259.816 224.785 259.453C225.924 260.415 227.113 261.316 228.348 262.152C229.054 262.644 230.153 262.879 229.965 264.107Z" fill="#E6EDF1"/>
<path d="M463.972 468.171L458.479 468.201C455.652 466.917 452.666 465.921 450.241 463.88C445.647 459.988 442.323 455.368 441.754 449.144C443.991 446.15 446.237 443.156 448.457 440.123C448.718 439.768 449.368 439.336 448.846 438.878C448.158 438.266 447.888 439.122 447.589 439.503C445.523 442.103 443.486 444.73 441.442 447.348L441.335 438.964C443.658 435.824 445.989 432.688 448.299 429.553C448.602 429.125 449.278 428.616 448.534 428.15C447.957 427.786 447.713 428.544 447.439 428.894C445.411 431.461 443.409 434.027 441.403 436.624C441.353 436.273 441.339 435.917 441.361 435.563C441.673 433.6 440.873 432.932 438.91 433.099C436.865 433.274 434.803 433.168 432.746 433.18C432.761 433.086 432.786 432.993 432.818 432.902C433.674 432.261 433.297 431.332 433.302 430.537C433.353 415.138 433.384 399.739 433.396 384.34H434.067L464.01 384.395C464.002 412.305 463.989 440.23 463.972 468.171Z" fill="#CFDFC4"/>
<path d="M149.047 433.244C152.606 432.855 152.606 432.855 152.619 428.881C153.474 428.843 154.33 428.77 155.185 428.77L202.636 428.744C202.636 437.924 202.636 447.104 202.636 456.283H115.905C116.076 445.897 123.236 436.671 133.015 433.967C133.746 433.766 134.563 433.723 135.111 433.073C135.765 432.966 136.129 433.445 136.569 433.779C139.269 435.841 141.955 437.92 144.697 439.926C145.231 440.319 145.886 441.461 146.557 440.593C147.101 439.896 145.933 439.502 145.437 439.1C142.956 437.111 140.436 435.178 137.934 433.223C139.897 433.18 141.865 433.146 143.828 433.09C144.577 433.09 145.407 433.287 145.942 432.496C149.269 435.02 152.593 437.552 155.938 440.05C156.366 440.379 156.935 441.29 157.487 440.508C157.983 439.806 157.008 439.477 156.558 439.122C154.082 437.141 151.558 435.199 149.047 433.244Z" fill="#CFDFC4"/>
<path d="M114.6 396.637L170.208 396.684C181.044 396.684 191.881 396.684 202.717 396.684C202.717 403.768 202.724 410.852 202.739 417.935C202.174 417.969 201.605 418.038 201.028 418.038H116.234C115.669 418.038 115.105 417.961 114.523 417.918L114.6 396.637Z" fill="#4C4ED6"/>
<path d="M198.089 180.571C198.358 177.401 198.555 174.223 198.91 171.062C199.381 166.917 200.078 162.793 200.484 158.657C200.912 154.379 202.058 150.316 203.098 146.201C205.459 146.235 206.678 144.87 207.465 142.817C209.578 137.311 211.734 131.821 213.933 126.349C214.185 125.716 214.224 124.877 215.216 124.325C214.861 128.748 214.51 132.936 214.202 137.124C214.137 137.764 213.832 138.356 213.347 138.779C208.92 143.258 207.748 149.02 206.956 154.935C206.913 155.278 206.674 155.825 207.384 155.877C208.017 155.513 207.812 154.871 207.889 154.345C208.744 148.639 210.027 143.134 214.42 138.946C214.826 138.541 215.062 137.996 215.079 137.423C215.665 130.468 216.268 123.513 216.833 116.557C216.88 115.989 217.261 115.274 216.405 114.885C216.368 114.315 216.377 113.743 216.431 113.174C216.756 111.292 217.89 110.013 219.772 109.82C221.585 109.632 222.967 110.616 223.45 112.387C223.934 114.158 224.203 116.121 224.563 117.995C224.229 118.76 224.451 119.547 224.563 120.305C225.221 124.95 225.918 129.591 226.616 134.232C226.684 134.66 226.522 135.297 227.608 135.327C227.073 131.392 226.547 127.504 225.983 123.312C230.175 125.331 232.095 128.68 233.023 132.671C234.029 136.996 233.832 141.444 234.101 145.841C234.747 156.497 235.312 167.161 235.945 177.816C236.001 178.744 235.748 179.018 234.811 179.056C222.563 179.538 210.323 180.043 198.089 180.571Z" fill="#F9C5E7"/>
<path d="M403.342 228.74C410.404 233.197 415.182 239.66 419.066 246.855C422.395 253.057 424.472 259.854 425.179 266.857C425.259 267.274 425.376 267.684 425.529 268.08C425.683 274.15 426.535 280.156 427.193 286.179C427.715 291.012 428.092 295.863 428.537 300.722C428.699 302.472 429.285 304.2 428.78 305.975C428.648 305.928 428.434 305.919 428.391 305.825C427.412 303.819 425.106 303.212 423.874 301.667C422.822 300.354 420.982 301.111 420.401 299.781C419.789 298.37 418.399 298.07 417.406 297.279C414.985 295.337 411.991 294.284 409.596 292.176C408.411 291.14 407.5 289.442 406.058 289.109C403.791 288.591 402.76 286.653 401.267 285.43C398.5 283.163 396.99 279.724 396.216 276.169C395.655 273.564 394.787 271.036 394.564 268.316C394.445 266.806 395.381 265.505 394.808 264.038C393.901 261.732 394.868 259.371 394.706 257.031C394.543 254.692 395.185 252.412 395.407 250.115C395.698 247.078 396.883 244.165 396.592 241.051C396.511 240.195 397.311 239.596 397.85 238.937C398.551 238.082 399.509 237.197 398.983 235.892C398.825 235.503 399.017 235.43 399.184 235.233C400.814 233.231 402.444 231.225 403.342 228.74Z" fill="#E6EDF1"/>
<path d="M68.7534 153.31C67.3846 152.998 66.4735 151.941 65.3314 151.231C65.7164 129.789 66.1156 108.346 66.5291 86.9013C66.559 85.4255 66.0457 85.2715 64.8437 85.34C59.1546 85.6651 53.4612 86.1356 47.7721 86.1955C38.5198 86.2682 31.3379 82.2045 26.1963 74.5563C23.8393 71.053 22.6545 67.1177 22.2481 62.9514C21.9145 59.5294 23.9591 57.3264 27.518 57.1297C39.0417 56.5009 50.5611 55.8464 62.0847 55.2518C62.7147 55.2488 63.3343 55.0912 63.8892 54.7929C64.4441 54.4946 64.9172 54.0646 65.2672 53.5408C68.194 49.6543 71.9818 46.4991 76.3332 44.3227C77.3446 43.811 78.1879 43.0197 78.7628 42.0428C82.5142 35.9901 86.3212 29.9759 90.0769 23.9232C91.1163 22.255 92.3012 20.9289 94.4913 21.1941C96.6814 21.4593 97.5326 23.0335 98.1272 24.8899C99.7826 30.023 101.489 35.156 103.111 40.3232C103.265 40.8914 103.558 41.4123 103.964 41.8393C104.369 42.2663 104.874 42.5861 105.433 42.77C117.714 47.903 124.952 56.8473 127.056 70.1847C129.195 83.8129 131.941 97.347 134.414 110.924C138.922 135.705 143.431 160.485 147.939 185.263C149.458 193.579 151.023 201.881 152.567 210.193C150.972 209.863 149.804 208.884 148.769 207.699C148.718 207.207 148.705 206.706 148.615 206.219C147.101 197.963 145.579 189.707 144.051 181.452C139.699 157.871 135.347 134.291 130.996 110.71C128.532 97.347 125.828 84.0182 123.673 70.6039C121.654 58.0322 114.754 49.8322 102.969 45.5162C102.333 45.3221 101.757 44.9663 101.299 44.4835C100.841 44.0007 100.516 43.4073 100.356 42.7614C98.6448 37.2648 96.8012 31.8024 94.996 26.3314C94.8036 25.7411 94.8121 24.8685 94.1405 24.7188C93.2423 24.522 93.084 25.523 92.7332 26.0791C88.8778 32.2359 85.0337 38.3955 81.201 44.558C80.6079 45.6065 79.7139 46.4528 78.6345 46.9876C73.9589 49.1641 69.9582 52.5633 67.0552 56.826C66.7411 57.3375 66.3007 57.7597 65.7763 58.0518C65.252 58.344 64.6612 58.4963 64.0609 58.4942C52.1822 59.1144 40.3035 59.8074 28.4248 60.4661C25.7129 60.6158 25.3579 61.0436 25.807 63.7641C27.7276 75.4418 36.6377 83.013 48.4351 82.7734C54.9113 82.6366 61.3918 82.2644 67.8551 81.8067C72.5604 81.4774 77.0689 80.4165 79.9605 76.1262C80.6877 75.0482 81.4491 73.9489 82.8222 74.8429C84.1953 75.7369 83.4809 76.956 82.7922 77.9997C80.1744 81.9393 76.2861 83.9027 71.7905 84.6983C70.2292 84.9764 69.9297 85.6095 69.9041 87.0467C69.559 109.136 69.1755 131.224 68.7534 153.31Z" fill="#3D84FC"/>
<path d="M194.983 217.986C195.411 213.08 195.839 208.169 196.198 203.259C196.318 201.71 196.297 200.145 196.339 198.588C196.553 198.768 196.803 198.899 197.073 198.973C197.343 199.047 197.625 199.062 197.901 199.016C200.895 198.827 203.868 198.669 206.849 198.515L235.192 197.048C236.099 197.001 236.95 196.757 237.019 198.28C237.369 206.377 237.84 214.47 238.268 222.568C236.557 224.176 233.99 225.211 232.236 225.275C229.174 225.391 226.419 226.601 223.399 226.828C219.383 227.058 215.353 226.818 211.392 226.114C208.89 225.716 206.37 224.488 203.727 224.005C201.904 223.675 200.673 222.358 199.428 221.011C198.251 219.753 196.151 219.68 195.18 218.016C195.167 218.003 195.06 218.008 194.983 217.986Z" fill="#E6EDF1"/>
<path d="M381.569 144.392C382.523 146.201 383.387 148.07 384.461 149.807C386.766 153.554 389.932 156.304 394.145 157.767C394.881 158.024 395.6 158.328 396.322 158.623C399.779 160.052 400.198 160.843 400.099 165.762C401.19 165.762 401.34 164.706 401.875 164.128C402.931 162.995 404.167 162.374 405.677 162.785C407.187 163.196 407.718 164.496 407.987 165.852C408.723 169.578 406.195 172.717 402.362 172.649C400.955 172.649 400.544 173.077 400.275 174.36C399.158 179.634 397.918 184.883 396.78 190.153C396.59 191.3 396.46 192.456 396.391 193.617C395.056 195.606 395.39 198.083 394.466 200.188C392.203 199.469 390.402 197.852 388.216 196.988C388.08 195.919 387.083 195.778 386.386 195.384C380.641 192.107 374.875 188.874 369.113 185.627L371.44 182.415L386.946 181.987C386.946 181.794 386.946 181.598 386.946 181.405C386.159 181.242 385.368 181.084 384.581 180.917C380.582 180.145 377.009 177.923 374.55 174.676C374.049 174.018 373.776 173.149 372.929 172.782C372.402 172.354 372.501 171.37 371.615 171.246C371.889 169.873 371.273 168.598 371.188 167.259C370.892 163.562 371.644 159.856 373.356 156.565C375.311 152.754 376.244 148.353 379.773 145.444C380.337 144.969 380.752 144.344 381.569 144.392ZM382.395 171.002C385.466 173.504 388.969 172.508 389.457 168.936C387.742 172.046 385.201 171.986 382.395 170.981V171.002ZM395.403 164.256C396.399 162.866 396.31 161.536 395.403 160.244C394.496 158.952 393.61 158.58 391.698 159.038C394.774 159.765 395.762 161.532 395.403 164.235V164.256ZM379.011 153.289C381.877 154.012 382.617 156.039 382.326 158.696C383.939 155.74 382.241 152.947 379.011 153.267V153.289ZM391.998 163.983C392.704 163.914 393.204 163.555 393.238 162.811C393.264 162.523 393.178 162.237 392.998 162.011C392.818 161.786 392.558 161.639 392.272 161.6C392.114 161.567 391.951 161.567 391.794 161.603C391.637 161.638 391.489 161.706 391.361 161.804C391.232 161.901 391.127 162.025 391.05 162.167C390.974 162.309 390.93 162.466 390.92 162.627C390.792 163.384 391.322 163.752 391.998 163.974V163.983ZM383.443 163.029C382.185 164.008 382.112 165.014 382.489 166.023C382.788 166.823 383.344 167.533 385.218 167.204C382.891 166.254 383.242 164.744 383.438 163.02L383.443 163.029ZM379.131 158.212C379.281 158.213 379.429 158.181 379.566 158.12C379.703 158.059 379.825 157.97 379.925 157.859C380.025 157.748 380.101 157.616 380.147 157.474C380.193 157.331 380.208 157.181 380.192 157.032C380.198 156.89 380.174 156.749 380.123 156.616C380.072 156.484 379.994 156.364 379.894 156.264C379.793 156.163 379.674 156.085 379.542 156.033C379.41 155.981 379.268 155.957 379.127 155.962C378.34 155.924 377.959 156.39 377.959 157.134C377.955 157.78 378.344 158.148 379.127 158.204L379.131 158.212Z" fill="#F9C5E7"/>
<path d="M371.44 182.38L369.113 185.593C368.57 185.691 368.536 186.046 368.66 186.482C365.422 191.188 362.124 195.893 358.975 200.645C358.12 201.959 357.508 202.143 356.191 201.274C353.949 199.798 351.571 198.537 349.248 197.185C348.329 196.684 347.584 195.846 346.476 195.696C344.814 194.483 343.004 193.486 341.091 192.728C333.866 189.922 326.381 189.079 318.694 189.691C319.93 184.13 323.468 180.627 328.609 178.59C334.538 176.246 340.804 175.913 347.058 175.754C353.812 175.588 360.579 175.754 367.081 173.453C368.712 172.947 370.25 172.182 371.637 171.186C372.527 171.31 372.424 172.285 372.95 172.722C372.95 173.06 372.805 173.577 372.971 173.714C376.218 176.447 373.934 178.655 372.33 180.939C372.005 181.405 371.735 181.901 371.44 182.38Z" fill="#FE5635"/>
<path d="M476.128 468.128L464.981 468.162C464.981 456.424 464.981 444.687 464.981 432.949C464.981 424.347 465.028 415.741 465.054 407.134C465.082 407.141 465.107 407.154 465.13 407.172C465.152 407.19 465.17 407.213 465.182 407.238C465.194 407.264 465.201 407.293 465.201 407.321C465.201 407.35 465.194 407.378 465.182 407.404C467.351 409.282 469.964 409.2 472.604 409.158C473.78 409.158 475.012 408.824 476.145 409.453L476.124 409.393C476.121 428.972 476.123 448.551 476.128 468.128Z" fill="#4C4ED6"/>
<path d="M177.099 468.132C175.966 468.166 174.828 468.23 173.677 468.23L115.849 468.17L115.926 457.395C136.173 457.395 156.432 457.395 176.701 457.395C177.557 457.395 178.412 457.464 179.268 457.498C177.557 458.952 177.014 460.826 177.129 463.016C177.189 464.723 177.108 466.43 177.099 468.132Z" fill="#4C4ED6"/>
<path d="M196.814 198.109C196.682 192.578 197.34 187.098 197.978 181.623L234.457 179.951C235.312 179.912 236.039 179.737 236.086 181.144C236.236 185.627 236.544 190.101 236.869 194.571C236.955 195.765 236.655 196.115 235.415 196.171C222.548 196.774 209.681 197.454 196.814 198.109Z" fill="#E6EDF1"/>
<path d="M318.694 189.699C326.393 189.087 333.866 189.93 341.091 192.736C343.004 193.491 344.813 194.486 346.476 195.696C344.898 196.714 343.268 197.648 341.591 198.494C340.702 198.921 339.782 198.588 338.905 199.217C336.608 200.931 333.791 201.799 330.928 201.676C328.733 201.574 326.359 201.531 324.391 202.023C320.875 202.904 317.479 202.288 314.095 202.16C308.535 201.946 303.282 199.473 297.7 198.917C297.024 198.849 296.168 198.613 295.929 197.912C295.604 196.967 294.765 197.27 294.218 196.937C295.501 195.504 297.349 195.067 299.039 194.417C305.374 191.975 311.884 190.204 318.694 189.699Z" fill="#E6EDF1"/>
<path d="M152.636 427.517V419.043C153.491 419.009 154.347 418.94 155.202 418.94C171.021 418.923 186.848 418.912 202.683 418.906C202.7 421.786 202.719 424.662 202.739 427.534C198.761 427.555 194.782 427.594 190.809 427.59C178.062 427.572 165.337 427.548 152.636 427.517Z" fill="#F9C5E7"/>
<path d="M194.983 123.671C196.267 120.75 198.405 119.684 201.447 120.215C203.517 120.574 205.583 120.946 207.405 119.107C208.261 118.251 209.664 118.093 211.024 118.572C212.487 119.086 213.976 119.612 215.571 119.607C216.042 121.665 214.502 122.927 213.787 124.561C211.221 130.481 208.915 136.538 206.593 142.574C205.887 144.404 204.749 145.388 202.743 145.29C200.882 145.072 201.31 143.266 200.625 142.236C201.994 136.73 203.372 131.23 204.715 125.72C204.852 125.155 205.305 124.244 204.552 124.035C203.641 123.774 203.765 124.89 203.637 125.386C202.017 131.643 200.449 137.917 198.932 144.208C198.778 144.845 198.127 145.735 199.257 146.239C198.401 147.275 197.481 148.378 195.989 148.151C194.581 147.925 193.533 147.112 193.683 145.427C193.859 145.124 193.989 144.797 194.068 144.456C194.513 137.988 194.941 131.52 195.351 125.053C195.381 124.544 195.411 124.043 194.983 123.671Z" fill="#F9C5E7"/>
<path d="M196.814 198.109C209.681 197.454 222.548 196.774 235.414 196.171C236.655 196.115 236.954 195.765 236.869 194.571C236.544 190.101 236.236 185.627 236.086 181.144C236.039 179.737 235.32 179.912 234.456 179.951L197.978 181.606C197.426 181.178 197.421 180.836 198.089 180.554C210.322 180.043 222.553 179.54 234.781 179.044C235.718 179.005 235.971 178.732 235.915 177.803C235.282 167.148 234.717 156.484 234.071 145.829C233.802 141.431 233.999 136.983 232.993 132.658C232.065 128.667 230.145 125.318 225.953 123.299C226.517 127.491 227.043 131.379 227.578 135.315C226.492 135.285 226.654 134.664 226.586 134.22C225.888 129.578 225.191 124.937 224.532 120.292C224.425 119.535 224.203 118.748 224.532 117.982C224.742 118.157 225.148 118.346 225.14 118.508C224.939 121.361 226.988 122.456 228.878 124.001C232.45 126.926 234.101 131.08 234.384 135.635C235.154 147.929 235.791 160.227 236.484 172.525C237.463 189.866 238.447 207.211 239.452 224.895L252.73 217.965C254.809 218.269 253.051 219.094 252.828 219.389C249.286 224.026 245.758 228.672 242.07 233.185C240.625 234.951 239.85 236.696 240.257 238.989C240.415 239.845 240.552 240.807 239.932 241.714C238.913 236.512 239.076 231.195 238.541 225.951C238.541 224.822 238.687 223.684 238.28 222.585C237.853 214.487 237.382 206.394 237.031 198.297C236.963 196.774 236.112 197.014 235.205 197.065L206.858 198.545C203.863 198.699 200.869 198.857 197.909 199.046C197.633 199.092 197.351 199.077 197.081 199.003C196.812 198.929 196.561 198.798 196.348 198.618C196.506 198.43 196.66 198.288 196.814 198.109Z" fill="#1F2128"/>
<path d="M431.805 336.35C433.058 337.787 432.408 339.622 432.66 341.231C433.387 346.107 433.623 351.069 434.123 355.975C434.598 360.681 435.261 365.36 435.663 370.065C436.014 374.159 436.133 378.278 434.966 382.304C434.933 382.512 434.83 382.704 434.675 382.848C434.52 382.991 434.321 383.078 434.11 383.095C433.833 383.026 433.577 382.892 433.363 382.703C433.148 382.515 432.982 382.278 432.878 382.013C431.411 378.847 429.884 375.708 428.524 372.495C428.254 371.866 427.493 371.439 427.668 370.643C428.194 368.235 426.885 366.083 426.697 363.743C426.458 360.779 425.358 358.003 425.542 354.816C425.748 351.236 425.786 347.805 426.967 344.306C427.651 342.283 429.131 340.589 429.242 338.275C429.268 337.462 429.922 335.597 431.805 336.35Z" fill="#E6EDF1"/>
<path d="M403.342 228.74C402.461 231.23 400.814 233.231 399.176 235.233C399.009 235.43 398.816 235.503 398.975 235.892C399.501 237.175 398.547 238.078 397.841 238.938C397.302 239.596 396.502 240.182 396.583 241.051C396.874 244.165 395.689 247.078 395.399 250.115C395.176 252.412 394.543 254.688 394.697 257.032C394.851 259.376 393.893 261.737 394.8 264.038C395.373 265.488 394.436 266.789 394.556 268.316C394.778 271.053 395.647 273.564 396.207 276.169C396.973 279.724 398.491 283.163 401.259 285.43C402.752 286.654 403.783 288.591 406.05 289.109C407.491 289.442 408.402 291.141 409.587 292.176C411.983 294.272 414.977 295.337 417.398 297.279C418.399 298.083 419.789 298.37 420.392 299.781C420.974 301.112 422.813 300.354 423.866 301.668C425.097 303.212 427.403 303.806 428.383 305.825C428.425 305.92 428.639 305.928 428.772 305.975C428.802 306.159 428.836 306.343 428.866 306.523C427.514 306.72 426.138 306.396 425.016 305.616C423.305 304.461 421.637 303.173 419.665 302.301C417.321 301.27 415.238 299.58 413.146 298.075C409.04 295.119 404.92 292.18 401.058 288.865C397.409 285.73 394.513 282.342 392.969 277.701C391.797 274.18 391.775 270.561 391.378 266.977C391.258 265.92 390.757 264.932 390.839 263.897C391.053 261.134 390.886 258.366 391.142 255.594C391.634 250.277 393.204 245.179 394.137 239.951C394.564 237.642 396.275 235.563 397.4 233.385C398.098 232.055 399.176 230.947 399.582 229.446C399.68 229.082 399.941 228.539 400.48 228.766C402.093 229.442 401.225 227.91 401.648 227.508L403.342 228.74Z" fill="#F8F03A"/>
<path d="M284.884 200.992C284.863 185.533 284.67 170.065 284.931 154.61C285.004 150.363 285.209 146.094 285.214 141.833C285.251 95.5192 285.271 49.2035 285.273 2.88642C285.273 1.92398 284.679 0.212962 285.984 0.170187C287.07 0.135967 286.488 1.83415 286.488 2.73671C286.527 29.3173 286.873 55.8979 286.433 82.4699C285.791 121.147 286.364 159.82 286.095 198.494C286.095 199.281 286.095 200.063 286.125 200.846L285.988 200.979L284.884 200.992Z" fill="#E6EDF1"/>
<path d="M294.222 196.937C294.778 197.27 295.617 196.966 295.933 197.912C296.173 198.613 297.028 198.849 297.704 198.917C303.286 199.473 308.522 201.946 314.1 202.159C317.483 202.288 320.88 202.904 324.396 202.023C326.363 201.531 328.737 201.573 330.932 201.676C333.795 201.799 336.613 200.93 338.909 199.216C339.786 198.588 340.706 198.93 341.596 198.494C343.272 197.648 344.903 196.714 346.481 195.696C347.589 195.846 348.333 196.684 349.252 197.185C345.777 199.491 342.059 201.409 338.165 202.904C332.899 204.936 327.45 205.624 321.804 205.556C319.786 205.518 317.768 205.618 315.764 205.855C314.018 206.073 312.158 205.577 310.383 205.231C306.315 204.439 302.516 202.613 298.482 201.809C295.681 201.257 293.439 199.751 290.937 198.699C291.848 197.792 293.084 197.467 294.222 196.937Z" fill="#F8F03A"/>
<path d="M464.895 384.293C468.159 384.293 471.427 384.293 474.691 384.233C475.91 384.203 476.282 384.626 476.269 385.82C476.215 390.08 476.215 394.341 476.269 398.601C476.269 399.816 475.842 400.218 474.657 400.154C473.1 400.068 471.534 400.197 469.973 400.12C467.885 400.013 466.221 400.676 465.088 402.485C465.011 396.419 464.947 390.355 464.895 384.293Z" fill="#4C4ED6"/>
<path d="M431.805 336.35C429.922 335.61 429.268 337.462 429.238 338.275C429.127 340.589 427.647 342.283 426.962 344.306C425.782 347.805 425.743 351.236 425.538 354.816C425.354 358.003 426.453 360.779 426.693 363.743C426.881 366.083 428.19 368.235 427.664 370.643C427.493 371.439 428.254 371.866 428.519 372.495C429.875 375.708 431.407 378.847 432.874 382.013C432.979 382.274 433.145 382.507 433.358 382.692C433.571 382.877 433.824 383.009 434.097 383.078C434.097 383.48 434.097 383.882 434.067 384.284H433.396C433.041 383.621 432.669 383.548 432.271 384.25L431.351 384.224C429.084 381.315 427.501 377.94 426.103 374.634C425.052 372.034 424.241 369.344 423.682 366.596C422.856 362.712 422.437 358.777 421.838 354.872C421.444 352.305 421.838 349.653 422.522 347.061C423.583 342.912 425.803 339.31 427.655 335.512C428.481 333.826 430.5 333.236 431.544 331.709C432.228 333.253 431.984 334.802 431.805 336.35Z" fill="#F8F03A"/>
<path d="M238.281 222.568C238.687 223.667 238.559 224.805 238.541 225.934C236.116 227.645 232.981 227.739 230.547 229.356C230.294 229.492 230.016 229.573 229.73 229.596C225.987 230.16 222.253 230.601 218.429 230.353C212.735 229.981 207.551 227.82 202.174 226.263C200.305 225.72 198.893 224.552 197.469 223.449C196.598 222.74 195.647 222.134 194.637 221.644L194.983 217.969C195.052 217.991 195.159 217.969 195.184 218.029C196.155 219.676 198.256 219.74 199.432 221.023C200.677 222.358 201.909 223.675 203.731 224.018C206.374 224.501 208.894 225.729 211.396 226.126C215.357 226.831 219.387 227.07 223.403 226.841C226.423 226.614 229.178 225.404 232.241 225.288C234.02 225.211 236.578 224.176 238.281 222.568Z" fill="#F8F03A"/>
<path d="M179.246 457.507C178.391 457.468 177.535 457.4 176.68 457.4C156.433 457.4 136.175 457.4 115.905 457.4C115.905 457.028 115.905 456.66 115.905 456.288H202.632C202.632 456.655 202.632 457.028 202.632 457.4L184.277 457.511L179.246 457.507Z" fill="#FCDC04"/>
<path d="M180.32 136.692C178.981 135.836 178.387 134.613 178.78 133.073C179.174 131.533 180.44 131.191 181.868 131.02C185.842 130.549 189.803 129.976 193.769 129.446C193.692 131.431 193.563 133.411 193.55 135.396C193.55 136.816 193.088 137.368 191.549 137.167C188.452 136.739 185.333 136.529 182.224 136.286C181.59 136.226 180.791 135.802 180.32 136.692Z" fill="#F9C5E7"/>
<path d="M202.632 418.906C186.813 418.906 170.986 418.918 155.151 418.94C154.295 418.94 153.44 419.009 152.584 419.043L116.302 418.94C115.733 418.993 115.159 418.983 114.591 418.911C113.809 418.722 113.98 418.299 114.497 417.914C115.062 417.957 115.627 418.034 116.208 418.034H200.989C201.554 418.034 202.123 417.965 202.7 417.927C203.491 418.32 202.743 418.581 202.632 418.906Z" fill="#1F2128"/>
<path d="M202.743 145.29C204.732 145.388 205.87 144.404 206.593 142.573C208.915 136.538 211.2 130.481 213.787 124.561C214.502 122.927 216.042 121.665 215.571 119.607C216.221 118.093 215.507 116.344 216.397 114.868C217.252 115.236 216.88 115.971 216.824 116.54C216.26 123.496 215.657 130.451 215.071 137.406C215.054 137.979 214.818 138.524 214.412 138.929C210.015 143.121 208.719 148.626 207.88 154.328C207.803 154.854 208.008 155.496 207.375 155.859C206.665 155.808 206.905 155.261 206.948 154.918C207.739 149.002 208.911 143.241 213.338 138.762C213.823 138.339 214.129 137.747 214.194 137.107C214.502 132.919 214.853 128.731 215.208 124.308C214.232 124.86 214.194 125.699 213.924 126.332C211.734 131.807 209.578 137.296 207.457 142.8C206.67 144.853 205.451 146.222 203.089 146.184C202.632 146.025 202.683 145.675 202.743 145.29Z" fill="#1F2128"/>
<path d="M464.896 384.292C464.961 390.352 465.024 396.416 465.084 402.485C465.045 404.033 465.002 405.582 464.964 407.134H465.054C465.028 415.741 464.985 424.347 464.981 432.949C464.981 444.687 464.981 456.424 464.981 468.162H463.972C463.989 440.215 464.003 412.276 464.014 384.344L464.896 384.292Z" fill="#FCDC04"/>
<path d="M152.636 427.517C165.349 427.543 178.062 427.567 190.774 427.59C194.748 427.59 198.726 427.555 202.704 427.534C203.466 427.962 202.991 428.36 202.64 428.745L155.19 428.77C154.334 428.77 153.479 428.843 152.623 428.882C151.934 428.42 151.981 427.992 152.636 427.517Z" fill="#1F2128"/>
<path d="M284.884 200.992L285.988 200.962L285.333 235.828L284.422 235.584C284.565 225.141 284.707 214.7 284.85 204.26C284.85 203.404 284.812 202.549 284.79 201.693C284.812 201.466 284.854 201.231 284.884 200.992Z" fill="#FCDC04"/>
<path d="M180.32 136.692C180.791 135.815 181.603 136.239 182.224 136.286C185.333 136.529 188.452 136.76 191.549 137.167C193.088 137.368 193.538 136.816 193.55 135.396C193.55 133.411 193.692 131.431 193.769 129.446C194.235 128.137 194.012 126.768 194.149 125.429C194.218 124.753 194.004 123.941 194.966 123.684C195.394 124.056 195.394 124.539 195.351 125.057C194.924 131.525 194.496 137.992 194.068 144.46C193.989 144.801 193.86 145.128 193.683 145.431C192.46 145.179 192.973 144.246 192.982 143.549C193.003 141.799 194.038 139.558 192.926 138.45C191.981 137.513 189.709 137.92 188.028 137.701C185.453 137.351 182.814 137.569 180.32 136.692Z" fill="#1F2128"/>
<path d="M199.261 146.231C198.132 145.726 198.782 144.836 198.936 144.199C200.458 137.925 202.027 131.651 203.641 125.378C203.769 124.881 203.641 123.765 204.556 124.026C205.309 124.236 204.856 125.147 204.719 125.711C203.376 131.221 201.998 136.722 200.63 142.227C200.022 143.536 200.236 145.08 199.261 146.231Z" fill="#1F2128"/>
<path d="M137.947 433.223C140.449 435.178 142.969 437.111 145.45 439.1C145.946 439.502 147.114 439.896 146.57 440.593C145.899 441.449 145.244 440.319 144.71 439.926C141.972 437.92 139.286 435.841 136.582 433.779C136.154 433.445 135.778 432.966 135.124 433.073C135.124 432.675 134.974 432.124 135.175 431.91C135.603 431.448 136.03 431.944 136.407 432.205C136.92 432.551 137.433 432.885 137.947 433.223Z" fill="#1F2128"/>
<path d="M149.047 433.244C151.558 435.199 154.082 437.141 156.571 439.122C156.999 439.477 157.996 439.806 157.499 440.508C156.948 441.29 156.391 440.379 155.951 440.05C152.606 437.552 149.282 435.02 145.954 432.496C145.706 431.64 145.852 431.161 146.81 431.734C147.588 432.188 148.307 432.735 149.047 433.244Z" fill="#1F2128"/>
<path d="M465.037 407.134H464.947C464.98 407.134 465.013 407.141 465.043 407.156C465.073 407.17 465.1 407.191 465.12 407.217C465.141 407.243 465.156 407.273 465.164 407.305C465.172 407.338 465.172 407.371 465.165 407.404C465.177 407.378 465.184 407.35 465.184 407.321C465.184 407.293 465.177 407.264 465.165 407.238C465.153 407.213 465.135 407.19 465.113 407.172C465.09 407.154 465.064 407.141 465.037 407.134Z" fill="#1F2128"/>
<path d="M476.107 409.393L476.129 409.454L476.237 409.376L476.107 409.393Z" fill="#1F2128"/>
<path d="M295.262 356.416C293.268 360.441 290.616 364.064 288.246 367.858C283.614 375.284 278.866 382.641 274.212 390.063C268.933 398.481 268.352 407.284 273.078 416.006C277.805 424.728 285.68 428.749 295.463 428.77C328.169 428.847 360.875 428.796 393.581 428.809C397.062 428.809 396.622 428.325 396.626 431.88C396.626 443.207 396.601 454.551 396.669 465.869C396.669 467.631 396.382 468.299 394.38 468.294C346.923 468.232 299.465 468.203 252.007 468.209C250.771 468.209 249.406 468.829 248.26 467.781C247.563 467.691 246.844 467.666 246.16 467.507C218.809 461.16 205.485 429.741 219.716 405.158C220.52 405.094 220.666 404.358 220.974 403.841C234.773 380.668 248.561 357.489 262.337 334.305C262.564 333.924 263.052 333.574 262.645 332.919C261.79 332.983 261.61 333.775 261.277 334.318C258.137 339.566 254.954 344.798 251.922 350.111C251.135 351.488 250.369 351.71 248.927 351.321C233.471 347.203 218.009 343.118 202.542 339.066C196.836 337.565 191.121 336.093 185.432 334.613C184.923 334.485 184.23 334.01 184.007 334.844C183.836 335.477 184.555 335.528 185.017 335.657C185.954 335.922 186.569 336.641 187.25 337.257L202.734 351.317L202.683 395.482C188.139 395.482 173.596 395.435 159.052 395.512C157.243 395.512 156.845 395.02 156.849 393.267C156.939 366.536 156.935 339.797 156.99 313.071C156.99 302.467 162.979 294.434 172.471 292.189C176.017 291.333 179.537 291.628 183.036 292.561C211.142 300.058 239.254 307.548 267.372 315.031C268.489 315.326 269.25 315.642 269.455 316.998C269.716 318.761 271.799 319.364 272.428 320.69C273.057 322.016 271.923 323.838 272.71 325.429C273.827 327.683 275.79 328.697 278.121 329.155C279.306 329.39 280.513 329.523 281.71 329.702L295.262 356.416Z" fill="#367FFC"/>
<path d="M354.108 383.852H313.24C314.134 385.157 314.951 384.87 315.653 384.874C341.805 384.988 367.955 385.077 394.102 385.14C396.143 385.14 396.712 385.614 396.695 387.706C396.592 400.32 396.618 412.943 396.695 425.545C396.695 427.072 396.395 427.62 394.723 427.62C361.302 427.564 327.882 427.62 294.462 427.534C285.286 427.504 278.31 423.081 273.959 415.099C269.609 407.117 270.148 398.875 274.943 391.145C282.147 379.532 289.538 368.046 296.849 356.497C297.037 356.198 297.182 355.873 297.345 355.56L309.844 349.037C310.056 349.015 310.263 348.956 310.455 348.862C314.519 345.765 317.804 347.099 321.671 349.88C333.725 358.546 346.091 366.776 358.338 375.181C358.673 375.439 358.993 375.716 359.296 376.011L354.108 383.852Z" fill="#367FFB"/>
<path d="M397.901 384.361H422.548C422.548 411.523 422.564 438.684 422.595 465.843C422.595 467.815 422.078 468.329 420.131 468.294C413.287 468.175 406.443 468.23 399.599 468.264C398.457 468.264 397.773 468.196 397.777 466.707C397.823 439.403 397.84 412.101 397.828 384.801C397.834 384.652 397.859 384.504 397.901 384.361Z" fill="#4C4ED6"/>
<path d="M267.569 302.189L258.021 283.368C266.417 279.02 274.811 274.665 283.203 270.305C283.849 269.971 284.807 269.877 284.807 268.85C284.807 265.193 284.807 261.536 284.807 257.626C280.838 259.602 277.155 261.429 273.48 263.277C264.977 267.554 256.476 271.832 247.978 276.109L231.295 264.333C239.32 260.184 247.332 256.014 255.374 251.89C265.306 246.797 275.25 241.724 285.205 236.671L285.32 247.091C285.342 247.583 284.512 248.04 285.256 248.562V258.969C285.214 262.31 285.179 265.647 285.119 268.987C285.076 269.551 285.179 270.117 285.419 270.63C287.532 274.728 289.632 278.833 291.72 282.945L292.964 285.511C291.869 287.274 291.895 288.989 292.746 290.918C294.5 294.909 296.049 298.994 297.678 303.041C296.617 303.131 295.54 303.25 294.496 303.314C285.705 303.871 276.907 304.914 268.155 302.934C268.052 302.613 267.958 302.284 267.569 302.189Z" fill="#FCDC04"/>
<path d="M268.168 302.929C276.92 304.91 285.706 303.866 294.509 303.31C295.57 303.246 296.648 303.126 297.691 303.036C299.064 302.994 298.397 302.232 298.166 301.659C296.883 298.464 295.668 295.243 294.209 292.099C292.999 289.502 292.353 287.107 294.753 284.857C297.486 284.095 298.731 285.909 299.911 287.851L300.228 288.155V288.116C303.372 292.578 306.533 297.031 309.638 301.514C310.409 302.617 311.473 303.482 312.71 304.012C318.835 306.796 324.931 309.662 331.035 312.502C324.926 322.093 318.827 331.687 312.735 341.286C312.145 342.218 311.709 342.141 310.922 341.59C308.013 339.541 304.933 337.74 302.161 335.503C297.131 331.465 291.408 329.578 285.051 329.151C282.857 329.001 280.671 328.633 278.494 328.295C274.883 327.73 272.993 325.694 273.237 322.764C273.339 321.515 273.592 320.814 275.191 321.241C278.592 322.144 282.104 321.994 285.594 321.909C285.894 321.909 286.185 321.712 286.963 321.443C285.547 320.839 284.581 321.066 283.657 321.015C280.235 320.908 276.813 320.959 273.54 319.809C270.358 318.692 269.263 315.783 270.713 312.768C271.239 311.694 271.945 312.062 272.672 312.233C277.223 313.285 281.817 312.964 286.664 312.939C286.018 311.681 285.15 312.083 284.491 312.083C280.286 312.13 276.085 312.207 271.966 311.147C267.672 310.047 266.217 306.899 268.168 302.929ZM293.478 325.831H293.906V310.359H293.478V325.831Z" fill="#F9C5E7"/>
<path d="M348.547 320.335C341.703 330.977 335.034 341.402 328.395 351.852C327.758 352.857 327.292 352.818 326.402 352.194C322.261 349.294 318.099 346.419 313.894 343.639C312.898 342.976 312.992 342.492 313.561 341.615C319.427 332.527 325.273 323.42 331.099 314.295C331.65 313.439 332.1 313.166 333.135 313.628C338.174 315.878 343.268 318.059 348.547 320.335Z" fill="#E6EDF1"/>
<path d="M379.884 383.873C377.826 383.873 375.765 383.873 373.707 383.95C372.925 383.94 372.17 383.662 371.568 383.163C362.971 377.243 354.368 371.334 345.762 365.437C346.669 364.782 346.951 363.662 347.644 362.815C348.906 361.279 350.531 360.141 351.751 358.665C354.681 355.132 360.999 354.187 364.763 356.766C369.468 359.987 372.89 364.278 375.534 369.171C376.843 371.579 378.357 373.953 378.785 376.764C379.158 379.139 379.525 381.509 379.884 383.873Z" fill="#E6EDF1"/>
<path d="M432.746 433.167L423.806 433.12C423.767 429.788 423.699 426.456 423.699 423.124C423.699 410.206 423.699 397.287 423.699 384.369L431.334 384.25L432.254 384.275C432.254 385.054 432.318 385.836 432.318 386.615C432.318 401.25 432.325 415.883 432.339 430.515C432.339 431.311 431.941 432.226 432.801 432.889C432.774 432.98 432.756 433.073 432.746 433.167Z" fill="#F9C5E7"/>
<path d="M309.814 349.015L297.315 355.539L295.262 356.394L281.723 329.681C285.09 330.147 288.465 330.575 291.822 331.097C293.726 331.394 295.449 332.393 296.652 333.899C300.968 339.019 305.416 343.994 309.814 349.015Z" fill="#FCDC04"/>
<path d="M331.039 312.498C324.935 309.658 318.839 306.792 312.714 304.007C311.477 303.478 310.413 302.613 309.643 301.509C306.52 297.027 303.359 292.574 300.232 288.112C301.16 288.078 301.81 288.715 302.529 289.134C306.272 291.325 309.993 293.557 313.728 295.769L363.83 325.434C363.84 325.495 363.835 325.558 363.817 325.618C363.8 325.678 363.769 325.733 363.728 325.78C356.225 322.572 348.721 319.362 341.215 316.151C338.537 315.005 335.885 313.803 333.203 312.665C332.515 312.37 331.813 311.78 331.039 312.498Z" fill="#367FFC"/>
<path d="M202.61 457.395L202.687 468.17H186.433C186.433 466.344 186.368 464.517 186.458 462.695C186.561 460.582 185.923 458.845 184.264 457.507L202.61 457.395Z" fill="#4C4ED6"/>
<path d="M379.884 383.874C379.522 381.509 379.158 379.144 378.793 376.777C378.365 373.967 376.851 371.593 375.542 369.184C372.882 364.278 369.468 359.988 364.771 356.78C361.007 354.213 354.689 355.146 351.759 358.679C350.54 360.155 348.915 361.292 347.653 362.828C346.96 363.684 346.678 364.796 345.771 365.45L343.773 363.966C344.77 362.362 345.711 360.724 346.767 359.171C347.383 358.277 347.922 357.229 349.261 357.113C349.762 357.066 350.065 356.583 350.331 356.142C351.994 353.405 356.494 351.553 359.626 351.754C362.295 351.92 364.545 353.118 366.897 354.038C368.243 354.655 369.382 355.647 370.178 356.895C371.316 358.606 373.173 359.864 374.028 361.468C375.465 364.171 377.519 366.464 378.823 369.313C379.709 371.251 379.178 373.441 380.56 375.07C380.594 375.113 380.56 375.207 380.56 375.28C380.423 378.167 381.501 380.978 381.12 383.886L379.884 383.874Z" fill="#F8F03A"/>
<path d="M184.255 457.507C185.915 458.845 186.552 460.582 186.45 462.695C186.36 464.517 186.424 466.344 186.424 468.17C183.318 468.35 180.204 468.337 177.099 468.132C177.099 466.421 177.189 464.71 177.099 463.025C176.988 460.835 177.527 458.961 179.238 457.507H184.255Z" fill="#FDFDFD"/>
<path d="M374.212 310.36C373.01 313.174 370.854 315.347 369.181 317.85C367.47 320.416 365.61 322.901 363.813 325.425L313.71 295.76C309.976 293.549 306.255 291.316 302.512 289.126C301.793 288.698 301.143 288.069 300.215 288.104V288.142L299.898 287.838C298.718 285.909 297.473 284.096 294.74 284.844L294.667 284.814C293.974 283.736 292.836 283.356 291.72 282.941C289.624 278.834 287.523 274.729 285.419 270.626C285.179 270.113 285.076 269.547 285.119 268.983C285.179 265.642 285.214 262.306 285.256 258.965C286.595 259.555 287.673 260.702 289.222 260.851C289.649 261.976 290.723 262.16 291.681 262.511C291.898 262.688 292.125 262.852 292.361 263.003C301.053 268.068 309.711 273.192 318.454 278.15C321.65 279.963 324.661 282.119 328.104 283.492C328.571 285.037 329.944 284.549 330.996 284.776C331.518 286.559 333.349 286.722 334.602 287.458C347.777 295.179 361.003 302.754 374.212 310.36Z" fill="#CFDFC4"/>
<path d="M291.694 262.524C290.736 262.173 289.667 261.989 289.234 260.864C290.351 259.692 290.586 257.635 292.734 257.4C292.896 257.4 292.875 256.056 293.705 255.406C296.784 253.002 300.399 251.171 302.495 247.655C303.047 246.723 304.12 246.565 304.916 245.991C308.428 243.459 312.316 241.543 315.982 239.28C319.455 237.141 323.356 236.286 326.954 234.6C327.527 234.306 328.162 234.153 328.806 234.153C329.45 234.153 330.085 234.306 330.658 234.6C330.906 234.724 331.176 235.002 331.398 234.964C336.129 234.168 338.957 237.445 341.989 240.063C343.251 241.158 344.226 242.728 344.004 244.7C344.017 245.256 344.233 245.789 344.611 246.197C346.036 247.831 345.835 249.884 345.647 251.668C345.304 254.863 345.292 258.58 343.871 261.078C342.276 263.871 343.204 267.922 339.688 269.633C339.564 272.628 336.784 274.223 335.937 276.884C335.422 278.465 334.564 279.914 333.426 281.127C332.369 282.243 331.869 283.608 331.017 284.793C329.965 284.558 328.592 285.045 328.126 283.51C330.547 279.895 333.259 276.426 335.329 272.623C337.827 268.085 340.073 263.465 341.506 258.323C343.568 250.928 342.049 244.892 336.861 239.72C335.905 238.8 334.727 238.145 333.441 237.819C332.155 237.494 330.807 237.509 329.529 237.864C326.693 238.754 323.776 239.507 320.974 240.773C315.894 243.098 310.979 245.767 306.263 248.763C302.841 250.932 300.459 254.303 297.195 256.689C295.031 258.268 293.05 260.129 291.694 262.524Z" fill="#F8F03A"/>
<path d="M285.205 236.679C275.261 241.752 265.317 246.825 255.373 251.899C247.332 256.022 239.32 260.193 231.295 264.342L230.32 264.192C230.829 262.481 232.809 262.717 233.776 261.626C241.352 257.776 248.944 253.952 256.503 250.076C265.823 245.281 275.114 240.435 284.422 235.61L285.333 235.854L285.205 236.679Z" fill="#1F2128"/>
<path d="M394.466 200.153C395.39 198.049 395.056 195.572 396.391 193.583C396.391 198.93 395.471 204.195 394.924 209.491C394.496 213.653 394.299 217.845 393.439 221.956C390.176 220.112 390.184 220.116 390.941 216.605C392.122 211.121 393.297 205.637 394.466 200.153Z" fill="#11110E"/>
<path d="M285.239 248.571C284.495 248.049 285.325 247.591 285.303 247.099C289.356 240.931 293.408 234.766 297.46 228.603C298.097 229.031 297.986 229.326 297.777 229.651C293.816 235.779 289.852 241.911 285.885 248.045C285.699 248.253 285.481 248.431 285.239 248.571Z" fill="#1F2128"/>
<path d="M368.651 186.482C368.527 186.055 368.561 185.691 369.105 185.593C374.866 188.839 380.654 192.073 386.377 195.35C387.074 195.743 388.088 195.884 388.208 196.954C387.327 197.185 386.737 196.56 386.069 196.197C380.266 192.971 374.46 189.733 368.651 186.482Z" fill="#1F2128"/>
<path d="M247.982 276.139C256.48 271.862 264.981 267.584 273.485 263.307C277.159 261.459 280.842 259.632 284.812 257.656C284.812 261.566 284.812 265.223 284.812 268.88C284.812 269.924 283.853 270.001 283.208 270.335C274.818 274.701 266.424 279.055 258.026 283.398L247.982 276.139Z" fill="#11110E"/>
<path d="M218.912 257.459C216.516 254.893 213.351 253.396 210.545 251.411C205.557 247.882 200.446 244.52 195.385 241.089C195.079 240.909 194.785 240.709 194.504 240.49C194.175 240.195 193.439 239.96 193.905 239.378C194.372 238.796 194.787 239.434 195.189 239.643C195.313 239.707 195.428 239.797 195.548 239.874L220.418 256.775C221.021 257.203 221.945 257.442 221.495 258.524L218.912 257.459Z" fill="#FCDC04"/>
<path d="M233.776 261.596C232.81 262.699 230.829 262.451 230.32 264.162L229.965 264.077C230.153 262.84 229.054 262.614 228.365 262.105C227.13 261.269 225.941 260.368 224.802 259.406C227.89 259.799 230.829 260.74 233.776 261.596Z" fill="#3D84FC"/>
<path d="M432.814 432.89C431.959 432.239 432.352 431.311 432.352 430.516C432.326 415.884 432.319 401.25 432.331 386.615C432.331 385.837 432.288 385.054 432.267 384.275C432.664 383.574 433.037 383.647 433.392 384.31C433.366 399.709 433.335 415.108 433.297 430.507C433.297 431.32 433.67 432.269 432.814 432.89Z" fill="#11110E"/>
<path d="M441.335 438.963C440.907 439.105 440.633 439.887 440.107 439.447C439.581 439.006 440.107 438.591 440.36 438.164C440.715 437.646 441.057 437.116 441.403 436.594C443.41 434.027 445.411 431.426 447.439 428.864C447.713 428.513 447.957 427.756 448.534 428.12C449.278 428.586 448.602 429.112 448.299 429.523C445.989 432.697 443.658 435.824 441.335 438.963Z" fill="#1F2128"/>
<path d="M441.754 449.144C441.215 449.371 440.98 450.513 440.3 449.999C439.62 449.486 440.535 448.943 440.8 448.442C440.997 448.07 441.228 447.72 441.442 447.36C443.487 444.742 445.523 442.116 447.589 439.515C447.888 439.135 448.158 438.279 448.846 438.891C449.368 439.348 448.718 439.78 448.457 440.136C446.237 443.143 443.991 446.137 441.754 449.144Z" fill="#1F2128"/>
<path d="M371.44 182.38C371.735 181.901 372.005 181.405 372.33 180.947C373.934 178.663 376.218 176.456 372.971 173.722C372.805 173.581 372.95 173.068 372.95 172.73C373.806 173.098 374.071 173.966 374.571 174.625C377.031 177.871 380.603 180.094 384.602 180.866C385.389 181.033 386.18 181.191 386.968 181.353C386.968 181.546 386.968 181.743 386.968 181.935L371.44 182.38Z" fill="#11110E"/>
<path d="M382.395 170.98C385.201 171.986 387.742 172.046 389.457 168.914C388.969 172.486 385.466 173.479 382.395 170.98Z" fill="#1F2128"/>
<path d="M395.403 164.235C395.762 161.532 394.774 159.765 391.716 159.016C393.628 158.559 394.522 158.914 395.42 160.223C396.318 161.532 396.399 162.845 395.403 164.235Z" fill="#1F2128"/>
<path d="M379.011 153.267C382.241 152.964 383.939 155.74 382.326 158.674C382.617 156.018 381.877 153.99 379.011 153.267Z" fill="#1F2128"/>
<path d="M391.998 163.974C391.326 163.751 390.792 163.384 390.92 162.618C390.93 162.457 390.974 162.3 391.05 162.158C391.127 162.016 391.232 161.892 391.361 161.795C391.489 161.698 391.637 161.629 391.794 161.594C391.951 161.559 392.114 161.558 392.272 161.591C392.558 161.63 392.818 161.777 392.998 162.003C393.178 162.228 393.264 162.514 393.238 162.802C393.204 163.55 392.704 163.905 391.998 163.974Z" fill="#1F2128"/>
<path d="M383.439 163.02C383.242 164.731 382.891 166.254 385.214 167.178C383.34 167.507 382.784 166.797 382.485 165.997C382.108 165.005 382.181 164 383.439 163.02Z" fill="#1F2128"/>
<path d="M379.127 158.203C378.344 158.148 377.955 157.776 377.955 157.125C377.955 156.394 378.335 155.915 379.122 155.953C379.264 155.948 379.405 155.972 379.537 156.024C379.669 156.076 379.789 156.154 379.889 156.255C379.989 156.355 380.068 156.475 380.119 156.608C380.17 156.74 380.194 156.881 380.188 157.023C380.204 157.172 380.188 157.322 380.143 157.465C380.097 157.607 380.021 157.739 379.921 157.85C379.821 157.962 379.698 158.051 379.562 158.111C379.425 158.172 379.277 158.204 379.127 158.203Z" fill="#11110E"/>
<path d="M219.716 405.175C219.241 404.17 220.105 403.592 220.503 402.921C230.136 386.666 239.786 370.419 249.454 354.178C249.672 353.819 249.881 353.455 250.249 352.84C246.344 351.8 242.55 350.782 238.773 349.785C227.514 346.825 216.243 343.908 204.98 340.875C203.171 340.388 202.666 340.666 202.756 342.586C202.884 345.491 202.722 348.412 202.683 351.33L187.198 337.269C186.518 336.653 185.915 335.935 184.965 335.669C184.504 335.541 183.785 335.49 183.956 334.857C184.178 334.023 184.871 334.497 185.38 334.626C191.091 336.106 196.806 337.577 202.491 339.079C217.955 343.145 233.417 347.23 248.876 351.334C250.326 351.723 251.092 351.501 251.87 350.123C254.903 344.811 258.086 339.579 261.225 334.331C261.559 333.779 261.726 332.996 262.594 332.932C263.022 333.586 262.513 333.937 262.286 334.318C248.507 357.502 234.719 380.681 220.922 403.853C220.649 404.375 220.52 405.111 219.716 405.175Z" fill="#1F2128"/>
<path d="M294.68 284.827L294.753 284.857C292.353 287.107 292.999 289.502 294.209 292.099C295.668 295.221 296.866 298.464 298.166 301.659C298.397 302.232 299.064 302.994 297.691 303.036C296.061 298.99 294.513 294.909 292.759 290.914C291.904 288.985 291.882 287.269 292.977 285.507C293.551 285.293 293.91 284.549 294.68 284.827Z" fill="#1F2128"/>
<path d="M294.68 284.827C293.91 284.549 293.551 285.293 292.969 285.507L291.724 282.941C292.849 283.369 293.987 283.749 294.68 284.827Z" fill="#3D84FC"/>
<path d="M293.478 325.831V310.359H293.906V325.835L293.478 325.831Z" fill="#1F2128"/>
<path d="M299.911 287.838L300.228 288.142L299.911 287.838Z" fill="#367FFC"/>
<path d="M291.694 262.524C293.05 260.129 295.031 258.268 297.195 256.685C300.459 254.298 302.829 250.928 306.263 248.759C310.983 245.762 315.902 243.093 320.987 240.768C323.776 239.485 326.693 238.749 329.542 237.86C330.82 237.505 332.168 237.49 333.454 237.815C334.74 238.141 335.918 238.796 336.873 239.716C342.062 244.888 343.581 250.923 341.519 258.319C340.086 263.452 337.84 268.08 335.342 272.619C333.255 276.422 330.56 279.891 328.139 283.505C324.695 282.132 321.684 279.976 318.489 278.163C309.737 273.205 301.079 268.08 292.396 263.016C292.152 262.866 291.918 262.701 291.694 262.524Z" fill="#E6EDF1"/>
</svg>
