<svg width="76" height="92" viewBox="0 0 76 92" fill="none" xmlns="http://www.w3.org/2000/svg">
<path fill-rule="evenodd" clip-rule="evenodd" d="M27.2313 41.7247V14.313C27.8352 17.6627 11.9753 6.51238 10.5239 5.43127L10.5442 41.7247L18.9506 46.2265L27.2313 41.7247Z" fill="#FECCC3"/>
<path fill-rule="evenodd" clip-rule="evenodd" d="M27.2309 14.3132C27.3172 11.7908 25.7641 8.45633 22.9424 5.6345C18.9126 1.6048 13.8224 0.153241 11.579 2.40157C10.8329 3.14767 10.4929 4.20335 10.5234 5.43146C10.574 7.90825 12.1169 11.0701 14.8118 13.765C18.8415 17.7999 23.9267 19.2462 26.175 16.9979C26.8502 16.3231 27.1902 15.3943 27.2309 14.3132Z" fill="#FECCC3"/>
<path fill-rule="evenodd" clip-rule="evenodd" d="M4.94629 54.3624H32.8038V82.0126H4.94629V54.3624Z" fill="#372E7F"/>
<path fill-rule="evenodd" clip-rule="evenodd" d="M32.8038 89.3616V80.2211H4.94629V89.3616C4.94629 89.8944 5.2863 90.3309 5.6974 90.3309H32.0577C32.4688 90.3309 32.8038 89.8944 32.8038 89.3616Z" fill="#736572"/>
<path fill-rule="evenodd" clip-rule="evenodd" d="M31.3269 50.7284V42.6384C31.3269 42.136 30.9158 41.7249 30.4184 41.7249H27.2311H10.544H7.33672C6.83431 41.7249 6.42822 42.136 6.42822 42.6384V50.7284H31.3269Z" fill="#E3D6FF"/>
<path fill-rule="evenodd" clip-rule="evenodd" d="M74.4703 43.4196C74.4703 39.0752 70.9178 35.5225 66.5733 35.5225H54.5148C50.1705 35.5225 46.6128 39.0752 46.6128 43.4196V54.433H74.4703V43.4196Z" fill="#372E7F"/>
<path fill-rule="evenodd" clip-rule="evenodd" d="M74.4706 89.4322V58.8535H46.6133V89.432C46.6133 89.9244 47.0194 90.3303 47.5116 90.3303H73.5775C74.0697 90.3305 74.4706 89.9244 74.4706 89.4322Z" fill="#372E7F"/>
<path fill-rule="evenodd" clip-rule="evenodd" d="M46.6133 52.6414H74.4708V60.6451H46.6133V52.6414Z" fill="#E3D6FF"/>
<path fill-rule="evenodd" clip-rule="evenodd" d="M25.5259 42.6384V48.9368H27.0079H31.3267V42.6384C31.3267 42.136 30.9156 41.7249 30.4182 41.7249H27.231H24.6172C25.1148 41.7249 25.5259 42.136 25.5259 42.6384Z" fill="#372E7F"/>
<path fill-rule="evenodd" clip-rule="evenodd" d="M27.0078 56.1486H32.8037V80.2206H27.0078V56.1486Z" fill="#31193B"/>
<path fill-rule="evenodd" clip-rule="evenodd" d="M27.0079 80.2211V89.3616C27.0079 89.8944 26.6679 90.3309 26.2568 90.3309H32.0577C32.4688 90.3309 32.8038 89.8944 32.8038 89.3616V80.2211H27.0079Z" fill="#615260"/>
<path fill-rule="evenodd" clip-rule="evenodd" d="M66.4567 43.4196V52.6414H74.4704V43.4196C74.4704 39.0752 70.9179 35.5225 66.5734 35.5225H58.5547C62.899 35.5226 66.4567 39.0754 66.4567 43.4196Z" fill="#31193B"/>
<path fill-rule="evenodd" clip-rule="evenodd" d="M66.457 52.6414H74.4708V60.6451H66.457V52.6414Z" fill="#372E7F"/>
<path fill-rule="evenodd" clip-rule="evenodd" d="M66.4569 60.6455V89.4325C66.4569 89.9248 66.0508 90.3307 65.5586 90.3307H73.5773C74.0695 90.3307 74.4706 89.9247 74.4706 89.4325V60.6455H66.4569Z" fill="#31193B"/>
<path fill-rule="evenodd" clip-rule="evenodd" d="M21.1206 17.7236V41.7246H24.6175H27.2312V14.6277C27.221 14.6581 27.211 14.6835 27.2008 14.709C27.0993 15.6225 26.7643 16.4092 26.1755 16.9979C25.0438 18.1295 23.1963 18.3224 21.1206 17.7236Z" fill="#E2988B"/>
<path fill-rule="evenodd" clip-rule="evenodd" d="M36.412 52.5451C36.412 50.5607 34.7881 48.9365 32.8036 48.9365H31.3268H6.42815H4.94615C2.96174 48.9365 1.34277 50.5607 1.34277 52.5451C1.34277 54.5295 2.96174 56.1485 4.94615 56.1485H32.8036C34.7881 56.1485 36.412 54.5295 36.412 52.5451Z" fill="#FDE588"/>
<path fill-rule="evenodd" clip-rule="evenodd" d="M29.2916 49.7587C30.0934 50.4235 30.6112 51.4285 30.6112 52.5451C30.6112 54.5295 28.9872 56.1485 27.0078 56.1485H32.8037C34.7881 56.1485 36.4121 54.5295 36.4121 52.5451C36.4121 50.5607 34.7881 48.9365 32.8037 48.9365H31.3269H27.008C27.8705 48.9365 28.6672 49.2461 29.2916 49.7587Z" fill="#FDD76F"/>
<path d="M32.8036 47.5938H32.6696V42.6381C32.6696 41.394 31.6596 40.3817 30.4183 40.3817H28.574V14.3131C28.574 14.3079 28.5733 14.3029 28.5733 14.2977C28.5941 13.4678 28.4734 12.5691 28.2031 11.6187C27.5309 9.25509 25.9998 6.79262 23.8922 4.68484C20.9583 1.75093 17.4373 0 14.4717 0C14.4703 0 14.4687 0 14.4676 0C12.9047 0.00089525 11.5781 0.502593 10.6307 1.45084C9.67998 2.39963 9.17721 3.72889 9.17685 5.29504C9.17685 5.36971 9.17864 5.44509 9.18097 5.52065L9.20048 40.382H7.33657C6.09522 40.382 5.08538 41.3942 5.08538 42.6384V47.5942H4.94626C2.21897 47.5942 0 49.8153 0 52.5454C0 54.8074 1.52676 56.718 3.60338 57.3049V89.3615C3.60338 90.6365 4.54268 91.6738 5.69737 91.6738H32.0578C33.2096 91.6738 34.1466 90.6365 34.1466 89.3615V57.3051C36.2261 56.7187 37.755 54.8077 37.755 52.5453C37.7548 49.8151 35.5337 47.5938 32.8036 47.5938ZM12.5279 3.35217C12.5287 3.35128 12.5294 3.35056 12.5301 3.34985C12.9693 2.90974 13.6218 2.68629 14.469 2.68575H14.4717C16.673 2.68575 19.6248 4.21573 21.9931 6.58403C25.7345 10.3255 26.6998 14.5747 25.226 16.0482C24.5093 16.7655 23.1617 16.9102 21.5295 16.4459C19.6004 15.8973 17.5523 14.608 15.7612 12.8148C13.3926 10.4488 11.8622 7.49736 11.8628 5.2954C11.8628 4.44617 12.0866 3.79228 12.5279 3.35217ZM25.8883 18.8361V40.3819H11.8862L11.8707 12.3929C12.4527 13.192 13.1193 13.972 13.8622 14.7138C15.9702 16.8246 18.4321 18.3571 20.7947 19.0293C21.6751 19.2797 22.512 19.4036 23.2905 19.4036C24.2564 19.4036 25.1322 19.2126 25.8883 18.8361ZM7.77095 43.0676H10.5439H10.5446H29.9837V47.5938H7.77095V43.0676ZM6.28895 88.9878V81.5635H31.4607V88.9878H6.28895ZM32.8036 54.8058H21.3592C20.6174 54.8058 20.0164 55.4068 20.0164 56.1486C20.0164 56.8904 20.6174 57.4915 21.3592 57.4915H31.4607V78.8778H6.28895V57.4915H15.8576C16.5994 57.4915 17.2004 56.8904 17.2004 56.1486C17.2004 55.4068 16.5994 54.8058 15.8576 54.8058H4.94608C3.69953 54.8058 2.68557 53.7918 2.68557 52.5453C2.68557 51.2958 3.69953 50.2797 4.94608 50.2797H6.42807H31.3268H32.8036C34.0528 50.2797 35.0691 51.296 35.0691 52.5453C35.0691 53.7918 34.0528 54.8058 32.8036 54.8058Z" fill="#31193B"/>
<path d="M66.5734 34.1799H54.5149C49.4172 34.1799 45.27 38.3249 45.27 43.4198V52.6418V60.6453V89.4322C45.27 90.668 46.2754 91.6736 47.5112 91.6736H73.5771C74.8102 91.6736 75.8133 90.6682 75.8133 89.4322V77.0486C75.8133 76.3068 75.2122 75.7057 74.4704 75.7057C73.7286 75.7057 73.1275 76.3068 73.1275 77.0486V88.9878H47.9559V61.9882H73.1277V70.8467C73.1277 71.5885 73.7288 72.1896 74.4706 72.1896C75.2124 72.1896 75.8134 71.5885 75.8134 70.8467V60.6453V52.6418V43.4198C75.8134 38.3249 71.6684 34.1799 66.5734 34.1799ZM54.5151 36.8657H66.5736C70.1877 36.8657 73.1277 39.8059 73.1277 43.4198V51.2989H47.9559V43.4198C47.9559 39.8057 50.8985 36.8657 54.5151 36.8657ZM47.9559 59.3024V53.9847H73.1277V59.3024H47.9559Z" fill="#31193B"/>
</svg>
