<svg viewBox="0 0 40 39" fill="none" xmlns="http://www.w3.org/2000/svg"><path d="M15.285 8.53747L15.2903 8.53963C15.4021 8.06333 15.8086 7.71283 16.3171 7.71283H30.8015C30.8198 7.71283 30.8381 7.70531 30.8564 7.70638C30.5478 2.56823 26.2375 0.186768 22.4347 0.186768H7.95027C7.44064 0.186768 7.03424 0.546943 6.9235 1.02216L6.91812 1.02001L0.586548 30.09L0.600525 30.091C0.585473 30.1599 0.558594 30.2254 0.558594 30.2996C0.558594 30.8942 1.03919 31.3651 1.63375 31.3651H10.3113L15.285 8.53747Z" fill="#1565C0"/><path d="M30.8557 7.70636C30.9126 8.64819 30.8503 9.67281 30.6095 10.8049C29.2322 17.2505 24.2532 20.605 18.1001 20.605C18.1001 20.605 14.3693 20.605 13.4629 20.605C12.9028 20.605 12.6383 20.934 12.5168 21.1855L10.646 29.8394L10.3181 31.3758H10.3117L8.95374 37.6074L8.96771 37.6085C8.95266 37.6773 8.92578 37.7429 8.92578 37.8171C8.92578 38.4116 9.40637 38.8922 10.0009 38.8922H17.885L17.899 38.8815C18.4065 38.8739 18.8097 38.5116 18.915 38.0343L18.9344 38.0181L20.8825 28.9696C20.8825 28.9696 21.018 28.1063 21.9254 28.1063C22.8329 28.1063 26.4174 28.1063 26.4174 28.1063C32.5705 28.1063 37.6001 24.7669 38.9784 18.3203C40.5288 11.0522 35.3444 7.73324 30.8557 7.70636Z" fill="#039BE5"/><path d="M16.3173 7.71279C15.8076 7.71279 15.4012 8.06329 15.2905 8.53959L15.2851 8.53744L12.5166 21.1866C12.6381 20.935 12.9026 20.606 13.4627 20.606C14.3702 20.606 18.016 20.606 18.016 20.606C24.1691 20.606 29.232 17.2515 30.6093 10.806C30.8512 9.67387 30.9125 8.64925 30.8555 7.70742C30.8383 7.70527 30.8189 7.71279 30.8017 7.71279H16.3173Z" fill="#283593"/></svg>
