<svg width="85" height="85" viewBox="0 0 85 85" fill="none" xmlns="http://www.w3.org/2000/svg">
<path d="M83.6292 6.85484V12.3387H34.2744V6.85484C34.2744 3.825 36.7284 1.37097 39.7583 1.37097H78.1454C81.1752 1.37097 83.6292 3.825 83.6292 6.85484Z" fill="#372E7F"/>
<path d="M83.6292 69.9194V78.1452C83.6292 81.1751 81.1752 83.6291 78.1454 83.6291H39.7583C36.7284 83.6291 34.2744 81.1751 34.2744 78.1452V69.9194C34.2744 72.9493 36.7284 75.4033 39.7583 75.4033H78.1454C81.1752 75.4033 83.6292 72.9493 83.6292 69.9194Z" fill="#372E7F"/>
<path d="M34.2744 12.3387V69.9194C34.2744 72.9492 36.7284 75.4033 39.7583 75.4033H78.1454C81.1752 75.4033 83.6292 72.9492 83.6292 69.9194V12.3387H34.2744Z" fill="#F2F4FF"/>
<path d="M47.9839 67.1775L45.6395 69.5218C45.3927 69.7686 45.0363 69.9194 44.6798 69.9194H43.871C43.1169 69.9194 42.5 69.3025 42.5 68.5484V65.8065C42.5 65.0525 43.1169 64.4355 43.871 64.4355H44.6798C45.0363 64.4355 45.3927 64.5864 45.6395 64.8331L47.9839 67.1775Z" fill="#FCD770"/>
<path d="M61.6938 65.8065V68.5484C61.6938 69.3025 61.0769 69.9194 60.3229 69.9194H57.5809C56.8269 69.9194 56.21 69.3025 56.21 68.5484V65.8065C56.21 65.0525 56.8269 64.4355 57.5809 64.4355H60.3229C61.0769 64.4355 61.6938 65.0525 61.6938 65.8065Z" fill="#FCD770"/>
<path d="M75.4033 68.5484C75.4033 69.3025 74.7864 69.9194 74.0323 69.9194H73.2235C72.867 69.9194 72.5106 69.7686 72.2638 69.5218L69.9194 67.1775L72.2638 64.8331C72.5106 64.5864 72.867 64.4355 73.2235 64.4355H74.0323C74.7864 64.4355 75.4033 65.0525 75.4033 65.8065V68.5484Z" fill="#FCD770"/>
<path d="M6.85496 42.5001C5.3469 42.5001 3.97593 41.8831 2.97513 40.896C1.98803 39.8952 1.37109 38.5243 1.37109 37.0162C1.37109 33.9864 3.82513 31.5323 6.85496 31.5323H34.2743H37.1122C38.6614 31.5323 40.1421 30.888 41.1703 29.7364C43.1719 27.4743 46.0921 26.0485 49.355 26.0485C53.413 26.0485 57.0598 28.2557 58.9517 31.5323H53.4679C51.7404 31.5323 50.1227 32.3412 49.0808 33.7259C48.3404 34.6993 47.984 35.8646 47.984 37.0162C47.984 38.1678 48.3404 39.3331 49.0808 40.3065C50.1227 41.6912 51.7404 42.5001 53.4679 42.5001H58.9517C57.0598 45.7767 53.413 47.9839 49.355 47.9839C46.0921 47.9839 43.1719 46.5581 41.1703 44.296C40.1421 43.1444 38.6614 42.5001 37.1122 42.5001H34.2743H6.85496Z" fill="#372E7F"/>
<path d="M83.6291 47.9839V56.2097H79.5162L78.6251 52.6863C77.7476 52.4121 76.9114 52.042 76.1025 51.6307L72.963 53.4952L70.0565 50.5888L67.1501 47.6823L69.0146 44.5428C68.6033 43.7339 68.2331 42.8976 67.9589 42.0202L64.4355 41.1291V32.9033L67.9589 32.0121C68.2331 31.1347 68.6033 30.2984 69.0146 29.4896L67.1501 26.35L72.963 20.5371L76.1025 22.4017C76.9114 21.9904 77.7476 21.6202 78.6251 21.346L79.5162 17.8226H83.6291V26.0484C77.5694 26.0484 72.6614 30.9565 72.6614 37.0162C72.6614 39.5525 73.5388 41.8831 74.9783 43.7476L76.8976 45.667C78.7622 47.1065 81.0928 47.9839 83.6291 47.9839Z" fill="#FECCC3"/>
<path d="M83.6294 42.5001V47.9839C81.0931 47.9839 78.7624 47.1065 76.8979 45.667L74.9786 43.7477C73.539 41.8831 72.6616 39.5525 72.6616 37.0162C72.6616 30.9565 77.5697 26.0485 83.6294 26.0485V31.5323C80.5995 31.5323 78.1455 33.9864 78.1455 37.0162C78.1455 40.046 80.5995 42.5001 83.6294 42.5001Z" fill="#FDE588"/>
<path d="M78.1452 0H39.7581C35.9783 0 32.9032 3.07508 32.9032 6.85484V30.1613H6.85484C3.07508 30.1613 0 33.2364 0 37.0161C0 40.7959 3.07508 43.871 6.85484 43.871H32.9032V78.1452C32.9032 81.9249 35.9783 85 39.7581 85H78.1452C81.9249 85 85 81.9249 85 78.1452V6.85484C85 3.07508 81.9249 0 78.1452 0ZM82.2581 40.8768C80.6664 40.3092 79.5161 38.8011 79.5161 37.0161C79.5161 35.2311 80.6664 33.7231 82.2581 33.1555V40.8768ZM82.2581 24.7583C76.0983 25.4438 71.2903 30.6768 71.2903 37.0161C71.2903 39.7827 72.1938 42.4027 73.9034 44.5921L76.064 42.9058C74.7356 41.2017 74.0323 39.1644 74.0323 37.0161C74.0323 32.1917 77.616 28.1981 82.2581 27.529V30.2998C79.1336 30.9373 76.7742 33.7052 76.7742 37.0161C76.7742 40.327 79.1336 43.095 82.2581 43.7325V46.5005C80.6198 46.2647 79.076 45.6231 77.7393 44.5811L76.0531 46.7431C77.8778 48.1662 80.0028 49.0217 82.2581 49.2712V54.8387H80.5814L79.7615 51.6115L79.0377 51.3798C78.274 51.1357 77.4967 50.8108 76.7262 50.4146L76.0503 50.0677L73.1795 51.7746L68.8706 47.4656L70.5788 44.5921L70.2278 43.9162C69.833 43.1512 69.5081 42.3752 69.2627 41.6089L69.0323 40.885L65.8064 40.0638V33.9698L69.0337 33.1486L69.264 32.4248C69.5094 31.6598 69.8344 30.8824 70.2306 30.1174L70.5802 29.4415L68.8719 26.5694L73.1809 22.2604L76.0531 23.9686L76.7276 23.6204C77.4953 23.2242 78.2713 22.9006 79.039 22.6552L79.7629 22.4235L80.5814 19.1935H82.2581V24.7583ZM39.7581 2.74194H78.1452C80.4127 2.74194 82.2581 4.58726 82.2581 6.85484V10.9677H35.6452V6.85484C35.6452 4.58726 37.4905 2.74194 39.7581 2.74194ZM2.74194 37.0161C2.74194 34.7485 4.58726 32.9032 6.85484 32.9032H37.1176C39.0671 32.9032 40.9165 32.0793 42.1902 30.6439C44.0122 28.5943 46.6239 27.4194 49.3548 27.4194C51.9295 27.4194 54.3671 28.4311 56.1548 30.1613H53.4677C51.3222 30.1613 49.2712 31.1868 47.9839 32.9032C46.1687 35.3257 46.1687 38.7065 47.9839 41.129C49.2712 42.8455 51.3222 43.871 53.4677 43.871H56.1548C54.3671 45.6011 51.9295 46.6129 49.3548 46.6129C46.6239 46.6129 44.0122 45.438 42.1915 43.3884C40.9165 41.953 39.0671 41.129 37.1176 41.129H6.85484C4.58726 41.129 2.74194 39.2837 2.74194 37.0161ZM78.1452 82.2581H39.7581C37.4905 82.2581 35.6452 80.4127 35.6452 78.1452V75.3676C36.794 76.2381 38.2089 76.7742 39.7581 76.7742H78.1452C79.6944 76.7742 81.1092 76.2381 82.2581 75.3676V78.1452C82.2581 80.4127 80.4127 82.2581 78.1452 82.2581ZM78.1452 74.0323H39.7581C37.4905 74.0323 35.6452 72.1869 35.6452 69.9194V43.871H37.1176C38.2843 43.871 39.3852 44.359 40.1419 45.2104C42.4822 47.844 45.841 49.3548 49.3548 49.3548C53.8023 49.3548 57.9344 46.9913 60.1375 43.1869L61.3302 41.129H53.4677C52.1804 41.129 50.9506 40.5135 50.1774 39.4839C49.0889 38.0306 49.0889 36.0016 50.1774 34.5484C50.9506 33.5188 52.1804 32.9032 53.4677 32.9032H61.3302L60.1375 30.8454C57.9344 27.041 53.8023 24.6774 49.3548 24.6774C45.841 24.6774 42.4822 26.1882 40.1406 28.8219C39.3865 29.6732 38.2843 30.1613 37.1176 30.1613H35.6452V13.7097H82.2581V16.4516H78.4509L77.4734 20.2931C77.0374 20.4562 76.5973 20.6385 76.1627 20.8415L72.7504 18.8124L65.4267 26.1361L67.4544 29.5485C67.2528 29.9844 67.0691 30.4218 66.906 30.8605L63.0645 31.838V42.1956L66.906 43.1731C67.0691 43.6105 67.2528 44.0492 67.4544 44.4838L65.4267 47.8961L72.7504 55.2198L76.1627 53.1908C76.5987 53.3937 77.0374 53.5774 77.4734 53.7392L78.4509 57.5806H82.2581V69.9194C82.2581 72.1869 80.4127 74.0323 78.1452 74.0323Z" fill="#31193B"/>
<path d="M57.5806 5.48389H65.8064V8.22582H57.5806V5.48389Z" fill="#31193B"/>
<path d="M52.0967 5.48389H54.8386V8.22582H52.0967V5.48389Z" fill="#31193B"/>
<path d="M44.6742 63.0646H43.8708C42.3587 63.0646 41.1289 64.2943 41.1289 65.8065V68.5484C41.1289 70.0606 42.3587 71.2904 43.8708 71.2904H44.6742C45.3954 71.2904 46.1028 70.9984 46.6128 70.487L49.9223 67.1775L46.6128 63.868C46.1028 63.3566 45.3954 63.0646 44.6742 63.0646ZM44.6742 68.5484H43.8708V65.8065H44.6742L46.0452 67.1775L44.6742 68.5484Z" fill="#31193B"/>
<path d="M60.3227 63.0646H57.5808C56.0686 63.0646 54.8389 64.2943 54.8389 65.8065V68.5484C54.8389 70.0606 56.0686 71.2904 57.5808 71.2904H60.3227C61.8349 71.2904 63.0647 70.0606 63.0647 68.5484V65.8065C63.0647 64.2943 61.8349 63.0646 60.3227 63.0646ZM57.5808 68.5484V65.8065H60.3227L60.3241 68.5484H57.5808Z" fill="#31193B"/>
<path d="M74.0324 63.0646H73.229C72.5079 63.0646 71.8005 63.3566 71.2905 63.868L67.981 67.1775L71.2905 70.487C71.8005 70.9984 72.5079 71.2904 73.229 71.2904H74.0324C75.5446 71.2904 76.7743 70.0606 76.7743 68.5484V65.8065C76.7743 64.2943 75.5446 63.0646 74.0324 63.0646ZM73.229 68.5484L71.8581 67.1775L73.229 65.8065H74.0324L74.0338 68.5484H73.229Z" fill="#31193B"/>
<path d="M6.85485 38.3871C7.61202 38.3871 8.22582 37.7733 8.22582 37.0161C8.22582 36.2589 7.61202 35.6451 6.85485 35.6451C6.09769 35.6451 5.48389 36.2589 5.48389 37.0161C5.48389 37.7733 6.09769 38.3871 6.85485 38.3871Z" fill="#31193B"/>
<path d="M38.3872 52.0968H41.1291V54.8387H38.3872V52.0968Z" fill="#31193B"/>
<path d="M43.8711 52.0968H67.1775V54.8387H43.8711V52.0968Z" fill="#31193B"/>
<path d="M38.3872 57.5807H67.1775V60.3226H38.3872V57.5807Z" fill="#31193B"/>
<path d="M38.3872 16.4517H41.1291V19.1936H38.3872V16.4517Z" fill="#31193B"/>
<path d="M49.355 16.4517H52.0969V19.1936H49.355V16.4517Z" fill="#31193B"/>
<path d="M43.8711 16.4517H46.613V19.1936H43.8711V16.4517Z" fill="#31193B"/>
</svg>
