<svg width="18" height="18" viewBox="0 0 18 18" fill="none" xmlns="http://www.w3.org/2000/svg">
<circle cx="9" cy="9" r="9" fill="#1EDC6A"/>
<path d="M12.2896 5.1746C12.131 5.08617 11.9565 5.02993 11.7761 5.0091C11.5958 4.98828 11.4131 5.00327 11.2385 5.05322C11.064 5.10318 10.901 5.18712 10.7588 5.30024C10.6167 5.41335 10.4981 5.55344 10.4101 5.71247L7.84441 10.338L6.37604 8.86702C6.24856 8.73479 6.09606 8.62932 5.92745 8.55676C5.75885 8.4842 5.5775 8.446 5.394 8.44441C5.2105 8.44281 5.02852 8.47784 4.85868 8.54745C4.68884 8.61707 4.53454 8.71987 4.40478 8.84986C4.27502 8.97985 4.1724 9.13443 4.10291 9.30458C4.03342 9.47473 3.99846 9.65704 4.00005 9.84087C4.00165 10.0247 4.03977 10.2064 4.1122 10.3753C4.18463 10.5442 4.28991 10.697 4.42191 10.8247L7.18589 13.5937C7.44709 13.856 7.79949 14 8.16296 14L8.35436 13.9862C8.56619 13.9565 8.76825 13.8779 8.94463 13.7567C9.12101 13.6355 9.2669 13.475 9.37082 13.2877L12.8258 7.0575C12.914 6.8986 12.9701 6.72384 12.9909 6.54322C13.0117 6.36259 12.9968 6.17963 12.947 6.00479C12.8972 5.82994 12.8135 5.66664 12.7007 5.52419C12.5879 5.38175 12.4482 5.26296 12.2896 5.1746Z" fill="white"/>
</svg>
