<svg width="1440" height="96" viewBox="0 0 1440 96" fill="none" xmlns="http://www.w3.org/2000/svg">
<path d="M165.949 79.9401L148.319 95.55L133.859 79.9401V30.55H165.949V79.9401Z" fill="#7A03D8"/>
<path opacity="0.22" d="M148.719 30.55H133.859V79.9401L148.719 95.55V30.55Z" fill="white"/>
<path d="M30.11 60.46L8.16003 68.98L0 49.34L17.11 3L47.21 14.11L30.11 60.46Z" fill="#7A03D8"/>
<path opacity="0.22" d="M31.05 8.14L17.11 3L0 49.34L8.54004 69.12L31.05 8.14Z" fill="white"/>
<path d="M278.11 57.46L300.05 65.98L308.21 46.34L291.11 0L261 11.11L278.11 57.46Z" fill="#7A03D8"/>
<path opacity="0.22" d="M277.17 5.14L291.11 0L308.21 46.34L299.68 66.12L277.17 5.14Z" fill="white"/>
<path d="M246.681 67.3701L233.541 86.9001L215.631 75.4401L203.211 27.6201L234.271 19.5601L246.681 67.3701Z" fill="#FECE00"/>
<path d="M217.591 23.8899L203.211 27.6199L215.631 75.4399L233.931 86.7999L217.591 23.8899Z" fill="#FFAF00"/>
<path d="M60.4609 67.76L73.9909 87.03L91.6709 75.21L103.131 27.15L71.9209 19.71L60.4609 67.76Z" fill="#FECE00"/>
<path d="M88.6796 23.71L103.13 27.15L91.6696 75.21L73.5996 86.93L88.6796 23.71Z" fill="#FFAF00"/>
<path d="M472.262 79.9401L489.892 95.55L504.352 79.9401V30.55H472.262V79.9401Z" fill="#7A03D8"/>
<path opacity="0.22" d="M489.492 30.55H504.352V79.9401L489.492 95.55V30.55Z" fill="white"/>
<path d="M608.101 60.46L630.051 68.98L638.211 49.34L621.101 3L591.001 14.11L608.101 60.46Z" fill="#7A03D8"/>
<path opacity="0.22" d="M607.161 8.14L621.101 3L638.211 49.34L629.671 69.12L607.161 8.14Z" fill="white"/>
<path d="M360.101 57.46L338.161 65.98L330.001 46.34L347.101 0L377.211 11.11L360.101 57.46Z" fill="#7A03D8"/>
<path opacity="0.22" d="M361.041 5.14L347.101 0L330.001 46.34L338.531 66.12L361.041 5.14Z" fill="white"/>
<path d="M391.53 67.3701L404.67 86.9001L422.58 75.4401L435 27.6201L403.94 19.5601L391.53 67.3701Z" fill="#FECE00"/>
<path d="M420.62 23.8899L435 27.6199L422.58 75.4399L404.28 86.7999L420.62 23.8899Z" fill="#FFAF00"/>
<path d="M577.75 67.76L564.22 87.03L546.54 75.21L535.08 27.15L566.29 19.71L577.75 67.76Z" fill="#FECE00"/>
<path d="M549.531 23.71L535.081 27.15L546.541 75.21L564.611 86.93L549.531 23.71Z" fill="#FFAF00"/>
<path d="M803.262 79.9401L820.892 95.55L835.352 79.9401V30.55H803.262V79.9401Z" fill="#7A03D8"/>
<path opacity="0.22" d="M820.492 30.55H835.352V79.9401L820.492 95.55V30.55Z" fill="white"/>
<path d="M939.101 60.46L961.051 68.98L969.211 49.34L952.101 3L922.001 14.11L939.101 60.46Z" fill="#7A03D8"/>
<path opacity="0.22" d="M938.161 8.14L952.101 3L969.211 49.34L960.671 69.12L938.161 8.14Z" fill="white"/>
<path d="M691.101 57.46L669.161 65.98L661.001 46.34L678.101 0L708.211 11.11L691.101 57.46Z" fill="#7A03D8"/>
<path opacity="0.22" d="M692.041 5.14L678.101 0L661.001 46.34L669.531 66.12L692.041 5.14Z" fill="white"/>
<path d="M722.53 67.3701L735.67 86.9001L753.58 75.4401L766 27.6201L734.94 19.5601L722.53 67.3701Z" fill="#FECE00"/>
<path d="M751.62 23.8899L766 27.6199L753.58 75.4399L735.28 86.7999L751.62 23.8899Z" fill="#FFAF00"/>
<path d="M908.75 67.76L895.22 87.03L877.54 75.21L866.08 27.15L897.29 19.71L908.75 67.76Z" fill="#FECE00"/>
<path d="M880.531 23.71L866.081 27.15L877.541 75.21L895.611 86.93L880.531 23.71Z" fill="#FFAF00"/>
<path d="M1134.26 79.9401L1151.89 95.55L1166.35 79.9401V30.55H1134.26V79.9401Z" fill="#7A03D8"/>
<path opacity="0.22" d="M1151.49 30.55H1166.35V79.9401L1151.49 95.55V30.55Z" fill="white"/>
<path d="M1270.1 60.46L1292.05 68.98L1300.21 49.34L1283.1 3L1253 14.11L1270.1 60.46Z" fill="#7A03D8"/>
<path opacity="0.22" d="M1269.16 8.14L1283.1 3L1300.21 49.34L1291.67 69.12L1269.16 8.14Z" fill="white"/>
<path d="M1022.1 57.46L1000.16 65.98L992.001 46.34L1009.1 0L1039.21 11.11L1022.1 57.46Z" fill="#7A03D8"/>
<path opacity="0.22" d="M1023.04 5.14L1009.1 0L992.001 46.34L1000.53 66.12L1023.04 5.14Z" fill="white"/>
<path d="M1053.53 67.3701L1066.67 86.9001L1084.58 75.4401L1097 27.6201L1065.94 19.5601L1053.53 67.3701Z" fill="#FECE00"/>
<path d="M1082.62 23.8899L1097 27.6199L1084.58 75.4399L1066.28 86.7999L1082.62 23.8899Z" fill="#FFAF00"/>
<path d="M1239.75 67.76L1226.22 87.03L1208.54 75.21L1197.08 27.15L1228.29 19.71L1239.75 67.76Z" fill="#FECE00"/>
<path d="M1211.53 23.71L1197.08 27.15L1208.54 75.21L1226.61 86.93L1211.53 23.71Z" fill="#FFAF00"/>
<path d="M1364.1 57.46L1342.16 65.98L1334 46.34L1351.1 0L1381.21 11.11L1364.1 57.46Z" fill="#7A03D8"/>
<path opacity="0.22" d="M1365.04 5.14L1351.1 0L1334 46.34L1342.53 66.12L1365.04 5.14Z" fill="white"/>
<path d="M1395.53 67.3701L1408.67 86.9001L1426.58 75.4401L1439 27.6201L1407.94 19.5601L1395.53 67.3701Z" fill="#FECE00"/>
<path d="M1424.62 23.8899L1439 27.6199L1426.58 75.4399L1408.28 86.7999L1424.62 23.8899Z" fill="#FFAF00"/>
</svg>
