<svg width="131" height="74" viewBox="0 0 131 74" fill="none" xmlns="http://www.w3.org/2000/svg">
<path d="M124.235 45.1543C124.185 45.1543 124.145 45.114 124.145 45.0645V43.4675L122.193 41.0269V32.0527L124.145 28.2477V26.0269C124.145 24.1834 123.654 22.3734 122.72 20.7816L114.661 7.04575C112.799 3.87496 109.397 1.92627 105.718 1.92627H60.1538C58.4722 1.92627 56.8444 2.53475 55.5761 3.63875L27.2803 28.2554V62.7721H126.838C128.073 62.7721 129.074 61.7708 129.074 60.5359V49.994C129.074 47.3213 126.907 45.1543 124.235 45.1543Z" fill="#372E7F"/>
<path d="M27.2803 28.2556H13.5265C9.38981 28.2556 5.76098 30.4243 3.70754 33.6847L4.84954 34.8288L4.182 40.1693L1.92676 41.4497V60.5489C1.92676 61.7762 2.92036 62.7723 4.15017 62.7723H27.2803L41.8084 57.4585V37.5665L27.2803 28.2556Z" fill="#372E7F"/>
<path d="M27.2803 43.8226V62.7722L40.0207 58.1123C39.2625 51.0764 34.0568 45.3562 27.2803 43.8226Z" fill="#F47C7C"/>
<path d="M23.644 43.4146C23.5261 43.4146 23.4085 43.4159 23.2915 43.4184C21.523 43.4564 20.3636 41.6076 21.122 40.0094C22.9829 36.0876 26.9783 33.3746 31.6069 33.3746H35.2678L27.2808 28.2556H13.527C9.38952 28.2556 5.76044 30.4236 3.707 33.6837L4.85002 34.8288L4.18249 40.1693L1.92725 41.4497V60.5489C1.92725 61.7762 2.92085 62.7723 4.15065 62.7723H20.0074V57.4585H39.9352C38.756 49.5236 31.9019 43.4146 23.644 43.4146Z" fill="#372E7F"/>
<path d="M31.6067 33.3744H53.1008C56.6834 33.3744 60.1092 31.9053 62.5785 29.3099L87.2637 3.36609C88.0383 2.69188 88.9477 2.20535 89.9205 1.92627H60.1538C58.4722 1.92627 56.8444 2.53475 55.5761 3.63875L27.2803 28.2554V34.2119C28.6177 33.6735 30.077 33.3744 31.6067 33.3744Z" fill="#372E7F"/>
<path d="M129.074 55.0365V60.536C129.074 61.7709 128.073 62.7722 126.838 62.7722H27.2803H4.15016C2.92036 62.7722 1.92676 61.776 1.92676 60.5488V55.0365H129.074Z" fill="#372E7F"/>
<path d="M23.6447 55.0365H1.92773V60.5488C1.92773 61.776 2.92134 62.7722 4.15114 62.7722H23.6447V55.0365Z" fill="#292639"/>
<path d="M39.388 55.0365H30.0225V62.7722H39.8601C40.0263 61.8351 40.1179 60.8726 40.1179 59.8885C40.1179 58.2004 39.8617 56.5713 39.388 55.0365Z" fill="#292639"/>
<path d="M23.6441 71.2281C29.9066 71.2281 34.9834 66.1513 34.9834 59.8887C34.9834 53.6261 29.9066 48.5493 23.6441 48.5493C17.3815 48.5493 12.3047 53.6261 12.3047 59.8887C12.3047 66.1513 17.3815 71.2281 23.6441 71.2281Z" fill="#736572"/>
<path d="M108.018 43.4143C98.9343 43.4143 91.5439 50.8047 91.5439 59.8886C91.5439 60.8727 91.6356 61.8352 91.8017 62.7723H124.234C124.401 61.8352 124.492 60.8727 124.492 59.8886C124.492 50.8047 117.102 43.4143 108.018 43.4143Z" fill="#292639"/>
<path d="M91.5439 59.8886C91.5439 60.8727 91.6356 61.8352 91.8017 62.7723H124.234C124.401 61.8352 124.492 60.8727 124.492 59.8886C124.492 58.2005 124.236 56.5712 123.762 55.0366H92.2741C91.8002 56.5712 91.5439 58.2002 91.5439 59.8886Z" fill="#292639"/>
<path d="M108.019 71.2281C114.281 71.2281 119.358 66.1513 119.358 59.8887C119.358 53.6261 114.281 48.5493 108.019 48.5493C101.756 48.5493 96.6792 53.6261 96.6792 59.8887C96.6792 66.1513 101.756 71.2281 108.019 71.2281Z" fill="#736572"/>
<path d="M23.6441 59.0687C23.6441 55.1705 25.6135 51.7322 28.6092 49.6913C27.1101 48.9601 25.4243 48.5493 23.6441 48.5493C17.3816 48.5493 12.3047 53.6262 12.3047 59.8887C12.3047 66.1512 17.3816 71.2281 23.6441 71.2281C26.0084 71.2281 28.2056 70.5033 30.0226 69.2653C26.2477 67.4244 23.6441 63.5509 23.6441 59.0687Z" fill="#615260"/>
<path d="M108.019 59.0687C108.019 55.1705 109.988 51.7322 112.984 49.6913C111.485 48.9601 109.799 48.5493 108.019 48.5493C101.756 48.5493 96.6792 53.6262 96.6792 59.8887C96.6792 66.1512 101.756 71.2281 108.019 71.2281C110.383 71.2281 112.58 70.5033 114.397 69.2653C110.622 67.4244 108.019 63.5509 108.019 59.0687Z" fill="#615260"/>
<path d="M74.2982 9.62854H60.9115C60.5983 9.62854 60.2953 9.74151 60.0591 9.9469L39.8259 27.5501C39.5486 27.7914 39.7191 28.2476 40.087 28.2476H74.2984L78.6405 26.4052V13.8997L74.2982 9.62854Z" fill="#FFFEFE"/>
<path d="M77.9175 13.1899L74.2982 9.62964H60.9115C60.5983 9.62964 60.2953 9.74261 60.0591 9.948L39.8259 27.5512C39.5486 27.7925 39.7191 28.2488 40.087 28.2488H63.5894L77.9175 13.1899Z" fill="#F2F4FF"/>
<path d="M105.734 9.62854H105.718H82.0028L79.4897 12.8679V26.4055L82.0028 28.2479H105.04C106.114 28.2479 106.981 27.3801 106.981 26.3069V10.8817C106.982 10.1908 106.424 9.62854 105.734 9.62854Z" fill="#F2F4FF"/>
<path d="M74.2979 9.62854H82.0028V28.2476H74.2979V9.62854Z" fill="white"/>
<path d="M74.2983 9.62854V16.9927L81.3051 9.62854H74.2983Z" fill="#FFFEFE"/>
<path d="M11.8345 34.8205C12.538 35.524 12.9719 36.4945 12.9719 37.5677C12.9719 39.7115 11.2337 41.4496 9.08736 41.4496H1.92676V39.8578C1.92676 37.5882 2.57889 35.47 3.706 33.6831H9.08736C10.1606 33.6831 11.131 34.117 11.8345 34.8205Z" fill="#FDE588"/>
<path d="M122.773 32.7771H117.813L116.24 35.8575V41.3544C116.24 42.5201 117.187 43.4674 118.355 43.4674H124.145V35.8575L122.773 32.7771Z" fill="#FDE588"/>
<path d="M23.6439 63.5254C21.6384 63.5254 20.0068 61.8941 20.0068 59.8884C20.0068 57.8827 21.6382 56.2513 23.6439 56.2513C25.6496 56.2513 27.2809 57.883 27.2809 59.8884C27.2809 61.8938 25.6493 63.5254 23.6439 63.5254Z" fill="#F9F7F8"/>
<path d="M24.5086 63.4173C23.9515 62.0781 23.6439 60.6096 23.6439 59.0686C23.6439 58.1025 23.7656 57.1646 23.993 56.2693C23.878 56.2583 23.7617 56.2516 23.6439 56.2516C21.6384 56.2516 20.0068 57.8832 20.0068 59.8886C20.0068 61.8941 21.6382 63.5257 23.6439 63.5257C23.9422 63.5254 24.2308 63.4854 24.5086 63.4173Z" fill="#D7D0D6"/>
<path d="M108.018 63.5254C106.013 63.5254 104.381 61.8941 104.381 59.8884C104.381 57.8827 106.013 56.2513 108.018 56.2513C110.024 56.2513 111.655 57.883 111.655 59.8884C111.655 61.8938 110.024 63.5254 108.018 63.5254Z" fill="#F9F7F8"/>
<path d="M108.885 63.4212C108.328 62.082 108.018 60.6093 108.018 59.0686C108.018 58.1025 108.138 57.1646 108.366 56.269C108.25 56.258 108.136 56.2516 108.018 56.2516C106.013 56.2516 104.381 57.8832 104.381 59.8886C104.381 61.8941 106.013 63.5257 108.018 63.5257C108.317 63.5254 108.607 63.4892 108.885 63.4212Z" fill="#D7D0D6"/>
<path d="M124.145 28.2477V35.8576H116.24V30.3633C116.24 29.1951 117.187 28.2477 118.355 28.2477H124.145Z" fill="#FECCC3"/>
<path d="M23.6437 54.326C20.5766 54.326 18.0811 56.8214 18.0811 59.8887C18.0811 62.9557 20.5764 65.4513 23.6437 65.4513C26.711 65.4513 29.2063 62.956 29.2063 59.8887C29.206 56.8214 26.7107 54.326 23.6437 54.326ZM23.6437 61.5999C22.7001 61.5999 21.9322 60.8322 21.9322 59.8884C21.9322 58.9446 22.6999 58.177 23.6437 58.177C24.5875 58.177 25.3551 58.9446 25.3551 59.8884C25.3549 60.8322 24.5872 61.5999 23.6437 61.5999Z" fill="#31193B"/>
<path d="M108.018 54.326C104.951 54.326 102.456 56.8214 102.456 59.8887C102.456 62.9557 104.951 65.4513 108.018 65.4513C111.086 65.4513 113.581 62.956 113.581 59.8887C113.581 56.8214 111.085 54.326 108.018 54.326ZM108.018 61.5999C107.075 61.5999 106.307 60.8322 106.307 59.8884C106.307 58.9446 107.074 58.177 108.018 58.177C108.962 58.177 109.73 58.9446 109.73 59.8884C109.73 60.8322 108.962 61.5999 108.018 61.5999Z" fill="#31193B"/>
<path d="M126.072 43.4812V43.4681V26.028C126.072 23.8428 125.487 21.6918 124.381 19.8073L122.148 16.0021C121.61 15.0848 120.43 14.7772 119.513 15.3161C118.596 15.8542 118.289 17.0342 118.827 17.9513L121.06 21.7565C121.819 23.0508 122.221 24.5276 122.221 26.0282V26.3232H118.354C116.126 26.3232 114.314 28.1356 114.314 30.3634V41.3536C114.314 43.5813 116.126 45.3937 118.354 45.3937H122.237C122.355 46.3437 123.164 47.0792 124.146 47.0792H124.236C125.842 47.0792 127.149 48.3858 127.149 49.992V53.112H119.415C117.099 49.2305 112.858 46.624 108.018 46.624C103.179 46.624 98.938 49.2305 96.6211 53.112H77.2724L79.6778 47.747C79.9425 47.1568 80.0768 46.529 80.0768 45.8818V30.1744H92.9471C94.0106 30.1744 94.8727 29.3123 94.8727 28.2488C94.8727 27.1854 94.0106 26.3232 92.9471 26.3232H83.929V11.554H105.056L105.04 26.3232H101.153C100.09 26.3232 99.2276 27.1854 99.2276 28.2488C99.2276 29.3123 100.09 30.1744 101.153 30.1744H105.04C107.173 30.1744 108.908 28.4393 108.908 26.3068V10.8806C108.908 9.1324 107.486 7.70696 105.719 7.70285H60.9113C60.1337 7.70285 59.3822 7.98399 58.7958 8.49439L37.7604 26.7962C37.1545 27.3235 36.9394 28.1713 37.2208 28.9236C37.5021 29.6758 38.221 30.1744 39.0241 30.1744H76.2251V45.8818C76.2251 45.9824 76.2043 46.0797 76.1632 46.1714L73.0515 53.112H51.1016C50.0382 53.112 49.1761 53.9741 49.1761 55.0375C49.1761 56.101 50.0382 56.9631 51.1016 56.9631H95.0822C94.8691 57.9051 94.7531 58.8833 94.7531 59.889C94.7531 60.2117 94.7687 60.5306 94.7916 60.8477H36.87C36.8929 60.5306 36.9086 60.2117 36.9086 59.889C36.9086 58.8836 36.7922 57.9051 36.5794 56.9631H42.8958C43.9593 56.9631 44.8214 56.101 44.8214 55.0375C44.8214 53.9741 43.9593 53.112 42.8958 53.112H35.0407C33.6746 50.8231 31.6391 48.9799 29.2062 47.851V29.1338L56.8396 5.09124C57.7585 4.29174 58.9354 3.85142 60.1534 3.85142H105.719C108.7 3.85142 111.489 5.44863 112.998 8.01967L114.668 10.8654C115.206 11.7825 116.386 12.0896 117.304 11.5517C118.221 11.0136 118.528 9.83357 117.99 8.91622L116.32 6.07047C114.123 2.3261 110.061 0 105.719 0H60.1537C58.0063 0 55.9315 0.776139 54.312 2.18567L26.5605 26.3309H13.5271C6.06815 26.3312 0 32.3994 0 39.8583V60.5486C0 62.8369 1.86165 64.6986 4.15002 64.6986H11.2855C13.2159 69.6412 18.026 73.1537 23.6439 73.1537C29.2617 73.1537 34.0718 69.6414 36.0022 64.6986H95.6599C97.5904 69.6412 102.4 73.1537 108.018 73.1537C113.636 73.1537 118.446 69.6414 120.377 64.6986H126.837C129.133 64.6986 131 62.8313 131 60.5363V49.992C131 46.8982 128.912 44.283 126.072 43.4812ZM118.354 30.1742H122.22V33.9326H118.165V30.3631C118.165 30.2591 118.25 30.1742 118.354 30.1742ZM118.165 41.3536V37.7841H122.22V41.5425H118.354C118.25 41.5425 118.165 41.4578 118.165 41.3536ZM76.2243 11.5538H80.0778V26.323H76.2243V11.5538ZM61.1465 11.5538H72.3734V26.323H44.1713L61.1465 11.5538ZM25.3551 30.1824V46.738C24.7943 46.6654 24.2238 46.624 23.6436 46.624C18.8001 46.624 14.5564 49.2349 12.2408 53.1217C12.1771 53.1153 12.1127 53.112 12.0475 53.112H3.85117V43.3767H9.08824C12.2916 43.3767 14.8976 40.7705 14.8976 37.5671C14.8976 34.3637 12.2916 31.7578 9.08824 31.7578H8.24509C9.76502 30.7634 11.5789 30.1826 13.5271 30.1826H25.3551V30.1824ZM9.08824 35.6084C10.1681 35.6084 11.0464 36.487 11.0464 37.5666C11.0464 38.6465 10.1678 39.525 9.08824 39.525H3.85964C3.90739 38.1242 4.25272 36.7979 4.83681 35.6084H9.08824ZM4.15002 60.8474C3.98519 60.8474 3.85117 60.7134 3.85117 60.5486V56.9629H10.708C10.4949 57.9049 10.3789 58.8831 10.3789 59.8887C10.3789 60.2115 10.3946 60.5303 10.4174 60.8474H4.15002ZM23.6439 69.3023C18.4533 69.3023 14.2301 65.0793 14.2301 59.8885C14.2301 54.6976 18.453 50.4747 23.6439 50.4747C28.8347 50.4747 33.0576 54.6976 33.0576 59.8885C33.0576 65.0793 28.8345 69.3023 23.6439 69.3023ZM108.018 69.3023C102.828 69.3023 98.6045 65.0793 98.6045 59.8885C98.6045 54.6976 102.827 50.4747 108.018 50.4747C113.209 50.4747 117.432 54.6976 117.432 59.8885C117.432 65.0793 113.209 69.3023 108.018 69.3023ZM126.837 60.8474H121.244C121.267 60.5303 121.283 60.2115 121.283 59.8887C121.283 58.8833 121.167 57.9049 120.954 56.9629H127.149V60.536C127.149 60.7078 127.009 60.8474 126.837 60.8474Z" fill="#31193B"/>
<path d="M71.2593 37.0387C72.3228 37.0387 73.1849 36.1765 73.1849 35.1131C73.1849 34.0496 72.3228 33.1875 71.2593 33.1875H67.5589C66.4954 33.1875 65.6333 34.0496 65.6333 35.1131C65.6333 36.1765 66.4954 37.0387 67.5589 37.0387H71.2593Z" fill="black"/>
</svg>
