<svg width="116" height="116" viewBox="0 0 116 116" fill="none" xmlns="http://www.w3.org/2000/svg">
<path d="M97.3403 71.0102L107.931 80.4243L105.578 66.3031L97.3403 71.0102Z" fill="#372E7F"/>
<path d="M23.5625 94.25H77.9375V70.6875H23.5625V94.25ZM42.398 76.4766C43.9513 74.9233 46.4109 74.6786 48.2397 75.8966L50.75 77.5714L53.2603 75.8984C55.0909 74.6823 57.5469 74.9215 59.1038 76.4766C60.9073 78.2819 60.9073 81.2199 59.1038 83.0252L52.0333 90.0958C51.678 90.4474 51.214 90.625 50.75 90.625C50.286 90.625 49.822 90.4474 49.4686 90.0939L42.398 83.0234C40.5928 81.2181 40.5928 78.2819 42.398 76.4766Z" fill="#372E7F"/>
<path d="M50.7497 86.2496L56.5389 80.4605C56.9304 80.069 56.9304 79.431 56.5389 79.0395C56.2017 78.7042 55.6671 78.6516 55.2683 78.9144L51.7557 81.258C51.1467 81.664 50.3546 81.664 49.7456 81.258L46.2312 78.9144C46.0608 78.8021 45.8687 78.7477 45.6747 78.7477C45.4137 78.7477 45.1546 78.8474 44.9606 79.0413C44.5691 79.4328 44.5691 80.069 44.9606 80.4623L50.7497 86.2496Z" fill="#E3D6FF"/>
<path d="M66.1235 37.3791L72.4999 40.5673V30.7236C70.9049 33.1651 68.768 35.3799 66.1235 37.3791Z" fill="#FECCC3"/>
<path d="M83.5108 31.2348L90.9874 21.2661C86.1679 21.0776 81.4373 20.8401 76.8281 20.5447L83.5108 31.2348Z" fill="#FECCC3"/>
<path d="M58.7143 29.772L71.0918 20.144C65.049 19.6909 59.2363 19.1435 53.71 18.5073L58.7143 29.772Z" fill="#FECCC3"/>
<path d="M103.448 31.2347L110.579 21.7264C106.113 21.6901 101.703 21.6049 97.3511 21.4817L103.448 31.2347Z" fill="#FECCC3"/>
<path d="M15.4278 23.6966L25.2842 13.8402C19.8231 12.5787 15.252 11.2139 11.6216 9.74756L15.4278 23.6966Z" fill="#FECCC3"/>
<path d="M31.6445 15.1924L35.3583 27.5699L46.5596 17.6121C42.6573 17.0828 38.909 16.5101 35.3765 15.8848C34.0914 15.66 32.8571 15.428 31.6445 15.1924Z" fill="#FECCC3"/>
<path d="M33.781 58.6415L38.595 47.8064C34.0293 48.6456 29.0486 49.3053 23.6582 49.7856L33.781 58.6415Z" fill="#FECCC3"/>
<path d="M12.5061 61.1936L17.3654 50.2588C13.9488 50.4636 10.3728 50.5995 6.6626 50.6757L12.5061 61.1936Z" fill="#FECCC3"/>
<path d="M55.3791 51.7323L60.1079 41.0929C56.2291 43.0631 51.6616 44.7396 46.3818 46.1081L55.3791 51.7323Z" fill="#FECCC3"/>
<path d="M51.2502 14.5979C51.2067 14.5852 51.1759 14.5507 51.1306 14.5417C51.0346 14.5199 50.9385 14.5526 50.8406 14.5489C42.9001 13.5557 35.9129 12.4084 29.9606 11.165C29.8011 11.0635 29.6289 10.9783 29.4404 10.9312C29.2175 10.8732 28.9909 10.875 28.7698 10.904C12.8706 7.47112 4.53125 3.38937 4.53125 0H0.90625C0.90625 2.70062 2.93806 5.19825 6.9165 7.48925L0.192125 20.938L3.43469 22.5602L8.56225 12.3033L12.7527 27.6642C12.9231 28.2877 13.4107 28.7734 14.036 28.9384C14.6613 29.1069 15.3283 28.9257 15.7833 28.4689L28.1373 16.1149L32.7029 31.3327C32.8824 31.9254 33.3482 32.3876 33.9445 32.5561C34.5426 32.7283 35.1806 32.5779 35.6428 32.1682L50.1029 19.3158L56.3452 33.3627C56.5718 33.872 57.0194 34.249 57.5614 34.3831C58.0997 34.5191 58.6743 34.3976 59.1165 34.0569L71.5104 24.4162C68.5071 33.5023 58.5981 39.8841 41.8814 43.5199C41.6404 43.4946 41.3957 43.5073 41.1601 43.5798C41.0567 43.6124 40.977 43.6867 40.8809 43.7356C30.0204 45.9904 16.3886 47.125 0 47.125V50.75C0.86275 50.75 1.70013 50.7391 2.54838 50.7319L11.1034 66.1309C11.4242 66.7073 12.0314 67.0625 12.6875 67.0625C12.7147 67.0625 12.7401 67.0625 12.7673 67.0625C13.4542 67.0625 14.065 66.6148 14.3441 65.9877L20.5936 51.9209L33.2431 62.988C33.6744 63.3668 34.2599 63.5173 34.8254 63.394C35.3891 63.2708 35.8585 62.8865 36.0923 62.3609L42.4941 47.9551L55.2233 55.912C55.6709 56.1893 56.2165 56.2618 56.7149 56.1077C57.2152 55.9537 57.6266 55.5912 57.8405 55.1109L64.3202 40.5311L73.4969 45.1204C74.0606 45.3995 74.7257 45.3723 75.2604 45.0406C75.7988 44.7126 76.125 44.1289 76.125 43.5V26.2577L81.838 35.3981C82.1552 35.9056 82.7008 36.2246 83.2989 36.2482C83.8934 36.2681 84.4661 36.0035 84.825 35.525L94.1141 23.1402L101.777 35.3999C102.094 35.9074 102.64 36.2518 103.238 36.2518C103.264 36.2518 103.289 36.2518 103.314 36.2518C103.882 36.2518 104.42 35.9854 104.764 35.5268L115.099 21.7482C115.398 21.7464 115.697 21.75 116 21.75V18.125C90.1175 18.125 68.4327 16.7276 51.2502 14.5979ZM15.428 23.6966L11.6217 9.74762C15.2522 11.2139 19.8215 12.5787 25.2826 13.8403L15.428 23.6966ZM35.3582 27.5699L31.6444 15.1924C32.857 15.428 34.0931 15.6582 35.3764 15.8848C38.9107 16.5083 42.6572 17.081 46.5595 17.6121L35.3582 27.5699ZM58.7141 29.7721L53.7098 18.5093C59.2361 19.1454 65.0488 19.6928 71.0917 20.1459L58.7141 29.7721ZM12.5063 61.1936L6.66275 50.6757C10.3748 50.5996 13.949 50.4636 17.3656 50.2588L12.5063 61.1936ZM33.7814 58.6416L23.6586 49.7858C29.0508 49.3054 34.0297 48.6457 38.5954 47.8065L33.7814 58.6416ZM55.3791 51.7324L46.3819 46.1082C51.6617 44.7397 56.2292 43.0632 60.1079 41.093L55.3791 51.7324ZM72.5 40.5674L66.1236 37.3792C68.7681 35.38 70.905 33.1669 72.5 30.7237V40.5674ZM83.5109 31.2348L76.8282 20.5447C81.4374 20.8383 86.1681 21.0776 90.9875 21.2661L83.5109 31.2348ZM103.448 31.2348L97.3512 21.4799C101.703 21.605 106.113 21.6884 110.579 21.7246L103.448 31.2348Z" fill="#31193B"/>
<path d="M79.75 67.0625H21.75C20.7477 67.0625 19.9375 67.8745 19.9375 68.875V96.0625V116H23.5625V97.875H77.9375V116H81.5625V96.0625V68.875C81.5625 67.8745 80.7523 67.0625 79.75 67.0625ZM77.9375 94.25H23.5625V70.6875H77.9375V94.25Z" fill="#31193B"/>
<path d="M49.4689 90.0939C49.8223 90.4473 50.2863 90.625 50.7503 90.625C51.2143 90.625 51.6783 90.4473 52.0318 90.0939L59.1023 83.0233C60.9058 81.2181 60.9058 78.2818 59.1023 76.4748C57.5472 74.9197 55.0895 74.6804 53.2588 75.8966L50.7503 77.5713L48.2382 75.8966C46.4094 74.6786 43.9516 74.9233 42.3965 76.4766C40.5931 78.2818 40.5931 81.2181 42.3965 83.0233L49.4689 90.0939ZM44.9612 79.0395C45.1533 78.8455 45.4143 78.7458 45.6753 78.7458C45.8675 78.7458 46.0614 78.8002 46.2318 78.9126L49.7462 81.2562C50.3552 81.6622 51.1491 81.6622 51.7563 81.2562L55.2689 78.9126C55.6676 78.6498 56.2041 78.7023 56.5394 79.0377C56.9309 79.4292 56.9309 80.0672 56.5394 80.4587L50.7503 86.2496L44.9612 80.4605C44.5697 80.069 44.5697 79.431 44.9612 79.0395Z" fill="#31193B"/>
<path d="M49.9994 10.5633L52.5623 8.00039L55.1251 10.5633L57.688 8.00039L55.1251 5.43752L57.688 2.87464L55.1251 0.311768L52.5623 2.87464L49.9994 0.311768L47.4365 2.87464L49.9994 5.43752L47.4365 8.00039L49.9994 10.5633Z" fill="#31193B"/>
<path d="M11.6251 92.7493L9.06227 95.3121L6.4994 92.7493L3.93652 95.3121L6.4994 97.875L3.93652 100.438L6.4994 103.001L9.06227 100.438L11.6251 103.001L14.188 100.438L11.6251 97.875L14.188 95.3121L11.6251 92.7493Z" fill="#31193B"/>
<path d="M67.8126 101.812L65.2498 104.375L62.6869 101.812L60.124 104.375L62.6869 106.938L60.124 109.5L62.6869 112.063L65.2498 109.5L67.8126 112.063L70.3755 109.5L67.8126 106.938L70.3755 104.375L67.8126 101.812Z" fill="#31193B"/>
<path d="M98.9369 10.5633L101.5 8.00039L104.063 10.5633L106.626 8.00039L104.063 5.43752L106.626 2.87464L104.063 0.311768L101.5 2.87464L98.9369 0.311768L96.374 2.87464L98.9369 5.43752L96.374 8.00039L98.9369 10.5633Z" fill="#31193B"/>
<path d="M23.5625 30.8125H19.9375V34.4375H23.5625V30.8125Z" fill="#31193B"/>
<path d="M94.25 39.875H90.625V43.5H94.25V39.875Z" fill="#31193B"/>
<path d="M83.375 5.4375H79.75V9.0625H83.375V5.4375Z" fill="#31193B"/>
<path d="M16.3125 72.5H12.6875V76.125H16.3125V72.5Z" fill="#31193B"/>
<path d="M96.0625 99.6875H92.4375V103.312H96.0625V99.6875Z" fill="#31193B"/>
<path d="M10.875 108.75H7.25V112.375H10.875V108.75Z" fill="#31193B"/>
<path d="M88.8125 77.9375H85.1875V81.5625H88.8125V77.9375Z" fill="#31193B"/>
<path d="M112.375 43.5H108.75V47.125H112.375V43.5Z" fill="#31193B"/>
<path d="M79.75 50.75H76.125V54.375H79.75V50.75Z" fill="#31193B"/>
<path d="M74.3125 9.0625H70.6875V12.6875H74.3125V9.0625Z" fill="#31193B"/>
<path d="M104.355 96.8401C105.027 96.3507 105.834 95.9719 106.689 95.5695C107.441 95.2161 108.219 94.85 108.98 94.3769C112.634 92.1004 112.7 88.8596 112.083 86.1391C112.312 85.773 112.424 85.3361 112.35 84.8903L108.725 63.1403C108.627 62.5548 108.25 62.0546 107.713 61.8008C107.179 61.5453 106.551 61.5688 106.037 61.8643L93.3492 69.1143C92.8436 69.4043 92.5064 69.919 92.4466 70.5008C92.385 71.0808 92.6079 71.6554 93.0447 72.0433L108.112 85.4358C109.078 88.4736 109.067 90.0486 107.063 91.2974C106.483 91.6599 105.83 91.9645 105.141 92.2889C104.173 92.7456 103.169 93.2169 102.22 93.9075C100.253 95.3411 98.6798 97.9566 99.5987 100.579C100.144 102.127 101.504 103.371 103.43 104.083C104.072 104.32 104.739 104.491 105.404 104.657C105.957 104.795 106.51 104.931 107.043 105.13C107.184 105.183 107.306 105.245 107.4 105.303C107.374 105.324 107.351 105.348 107.324 105.373C104.987 107.537 102.394 109.43 99.6187 110.998L101.402 114.153C104.422 112.448 107.244 110.389 109.785 108.036C110.2 107.65 110.978 106.934 111.181 105.801C111.48 104.126 110.327 102.491 108.317 101.737C107.657 101.489 106.972 101.313 106.285 101.141C105.745 101.005 105.205 100.875 104.685 100.683C103.816 100.362 103.193 99.8742 103.017 99.3776C102.745 98.5964 103.485 97.4726 104.355 96.8401ZM97.3404 71.0101L105.578 66.3031L107.931 80.4243L97.3404 71.0101Z" fill="#31193B"/>
<path d="M104.868 58.5841L106.68 49.5212L103.126 48.8104L101.313 57.8732L104.868 58.5841Z" fill="#31193B"/>
<path d="M94.5096 60.7451L97.6177 58.8796L92.1792 49.8182L89.0711 51.6837L94.5096 60.7451Z" fill="#31193B"/>
<path d="M90.2667 65.2103L90.9775 61.6556L81.9147 59.8433L81.2038 63.398L90.2667 65.2103Z" fill="#31193B"/>
<path d="M38.0625 101.5H34.4375V105.125H38.0625V101.5Z" fill="#31193B"/>
<path d="M45.3125 101.5H41.6875V105.125H45.3125V101.5Z" fill="#31193B"/>
<path d="M30.8125 101.5H27.1875V105.125H30.8125V101.5Z" fill="#31193B"/>
</svg>
