<svg viewBox="0 0 54 17" fill="none" xmlns="http://www.w3.org/2000/svg"><path d="M15.1915 0.164307L11.2049 12.0542C11.2049 12.0542 10.1924 7.02465 10.0922 6.39312C7.82259 1.21484 4.47363 1.50328 4.47363 1.50328L8.42072 16.8635V16.8605H13.2195L19.8551 0.164307H15.1915Z" fill="#1565C0"/><path d="M18.9912 16.8638H23.3497L25.9851 0.164551H21.572L18.9912 16.8638Z" fill="#1565C0"/><path d="M49.8391 0.164551H45.2528L38.1025 16.8638H42.4322L43.3248 14.4788H48.784L49.2485 16.8638H53.2153L49.8391 0.164551ZM44.5333 11.2893L46.9061 4.97848L48.1479 11.2893H44.5333Z" fill="#1565C0"/><path d="M32.1692 5.03167C32.1692 4.11169 32.9252 3.42703 35.0931 3.42703C36.5019 3.42703 38.1156 4.45023 38.1156 4.45023L38.8231 0.944913C38.8231 0.944913 36.7615 0.163087 34.7378 0.163087C30.1547 0.163087 27.791 2.35524 27.791 5.13035C27.791 10.1492 33.8315 9.46152 33.8315 12.0393C33.8315 12.481 33.4808 13.5027 30.9653 13.5027C28.4422 13.5027 26.7769 12.5782 26.7769 12.5782L26.0254 15.9423C26.0254 15.9423 27.6391 16.8623 30.7573 16.8623C33.8831 16.8623 38.2189 14.5244 38.2189 11.1664C38.2189 7.12666 32.1692 6.83519 32.1692 5.03167Z" fill="#1565C0"/><path d="M10.6769 9.18987L9.21044 1.98188C9.21044 1.98188 8.54702 0.419738 6.82245 0.419738C5.09787 0.419738 0.0820309 0.419738 0.0820309 0.419738C0.0820309 0.419738 8.67606 2.95802 10.6769 9.18987Z" fill="#FFC107"/></svg>
