<svg width="243" height="156" viewBox="0 0 243 156" fill="none" xmlns="http://www.w3.org/2000/svg">
<rect width="243" height="156" rx="31"/>
<rect x="172" y="108" width="47" height="30" fill="#1B2B39"/>
<path d="M181.109 119.001L177.122 130.891C177.122 130.891 176.11 125.861 176.01 125.23C173.74 120.052 170.391 120.34 170.391 120.34L174.338 135.7V135.697H179.137L185.773 119.001H181.109Z" fill="white"/>
<path d="M184.909 135.7H189.268L191.903 119.001H187.49L184.909 135.7Z" fill="white"/>
<path d="M215.756 119.001H211.17L204.02 135.7H208.349L209.242 133.315H214.701L215.166 135.7H219.132L215.756 119.001ZM210.45 130.126L212.823 123.815L214.065 130.126H210.45Z" fill="white"/>
<path d="M198.087 123.869C198.087 122.949 198.843 122.264 201.011 122.264C202.419 122.264 204.033 123.287 204.033 123.287L204.741 119.782C204.741 119.782 202.679 119 200.655 119C196.072 119 193.708 121.192 193.708 123.967C193.708 128.986 199.749 128.298 199.749 130.876C199.749 131.318 199.398 132.34 196.883 132.34C194.36 132.34 192.694 131.415 192.694 131.415L191.943 134.779C191.943 134.779 193.557 135.699 196.675 135.699C199.801 135.699 204.136 133.361 204.136 130.003C204.136 125.964 198.087 125.672 198.087 123.869Z" fill="white"/>
<path d="M176.595 128.027L175.128 120.819C175.128 120.819 174.465 119.257 172.74 119.257C171.016 119.257 166 119.257 166 119.257C166 119.257 174.594 121.795 176.595 128.027Z" fill="white"/>
</svg>
