<svg width="62" height="49" viewBox="0 0 62 49" fill="none" xmlns="http://www.w3.org/2000/svg">
<path d="M17.5003 3.44138C12.0689 7.88619 7.27322 10.3446 4.03097 11.5306C2.08576 12.2421 0.478561 14.0281 0.45022 16.0991L0.0554855 44.9453C0.0249653 47.1756 1.82457 49 4.05511 49H57.0482C59.2385 49 61.0215 47.2384 61.0479 45.0482L61.4951 7.92845C61.4984 7.65362 61.3948 7.38827 61.2062 7.18839C60.813 6.77174 60.1628 6.74488 59.7004 7.08311C54.9771 10.538 45.2586 12.5167 42.3032 10.1402C42.0523 9.93839 41.8193 9.70512 41.5578 9.51729C28.8766 0.410103 22.9436 -1.0132 17.5003 3.44138Z" fill="url(#paint0_linear)"/>
<path d="M2 12.8576C4.5 12.691 10.4 11.2576 14 6.85764C16.5 3.52431 25.1 -1.14236 39.5 6.85764C41.8333 8.52424 47.2 11.7574 50 11.3574C52.3333 11.5242 57.7 10.8578 60.5 6.85764" stroke="white" stroke-width="3" stroke-linecap="round"/>
<defs>
<linearGradient id="paint0_linear" x1="29" y1="6.94043" x2="29" y2="62.4405" gradientUnits="userSpaceOnUse">
<stop stop-color="white" stop-opacity="0.3"/>
<stop offset="1" stop-color="white" stop-opacity="0"/>
</linearGradient>
</defs>
</svg>
