<svg width="16" height="20" viewBox="0 0 16 20" fill="none" xmlns="http://www.w3.org/2000/svg">
<circle cx="8" cy="9" r="8" fill="#DCDCEB"/>
<path d="M7.892 10.156C7.892 9.628 8.144 9.4 8.684 9.244C9.68 8.944 10.388 8.092 10.388 6.976C10.388 6.268 10.148 5.704 9.668 5.284C9.188 4.852 8.6 4.636 7.904 4.636C7.22 4.636 6.656 4.864 6.188 5.332C5.732 5.788 5.504 6.388 5.504 7.144H6.692C6.692 6.376 7.232 5.86 7.904 5.86C8.588 5.86 9.164 6.316 9.164 6.976C9.164 7.348 9.008 7.648 8.684 7.876C8.336 8.116 7.748 8.392 7.472 8.548C7.34 8.632 7.196 8.74 7.052 8.872C6.776 9.124 6.668 9.532 6.668 10.156V10.768H7.868L7.892 10.156ZM7.28 11.488C6.812 11.488 6.428 11.836 6.428 12.304C6.428 12.772 6.812 13.108 7.28 13.108C7.76 13.108 8.132 12.772 8.132 12.304C8.132 11.836 7.76 11.488 7.28 11.488Z" fill="white"/>
</svg>
