<svg width="49" height="49" viewBox="0 0 49 49" fill="none" xmlns="http://www.w3.org/2000/svg">
<rect width="49" height="49" rx="13" fill="#F4F2FF"/>
<path d="M25.0977 35.8536C31.6982 35.8536 37.0489 30.5029 37.0489 23.9024C37.0489 17.3019 31.6982 11.9512 25.0977 11.9512C18.4972 11.9512 13.1465 17.3019 13.1465 23.9024C13.1465 30.5029 18.4972 35.8536 25.0977 35.8536Z" stroke="#593E98" stroke-width="2" stroke-linecap="round" stroke-linejoin="round"/>
<path d="M21.6191 20.3175C21.9001 19.5187 22.4547 18.8452 23.1847 18.4162C23.9147 17.9872 24.7729 17.8303 25.6075 17.9735C26.442 18.1166 27.1989 18.5505 27.7442 19.1983C28.2895 19.846 28.588 20.6659 28.5867 21.5126C28.5867 23.9028 25.0013 25.098 25.0013 25.098" stroke="#593E98" stroke-width="2" stroke-linecap="round" stroke-linejoin="round"/>
<path d="M25.0977 29.8779H25.1096" stroke="#593E98" stroke-width="2" stroke-linecap="round" stroke-linejoin="round"/>
</svg>
