<svg width="41" height="41" viewBox="0 0 41 41" fill="none" xmlns="http://www.w3.org/2000/svg">
<rect width="41" height="41" rx="13" fill="#EAEEF1"/>
<path d="M20 25C22.2091 25 24 23.2091 24 21C24 18.7909 22.2091 17 20 17C17.7909 17 16 18.7909 16 21C16 23.2091 17.7909 25 20 25Z" fill="#828282"/>
<path d="M21 13.069V11H19V13.069C17.2403 13.2937 15.605 14.0962 14.3506 15.3506C13.0962 16.605 12.2937 18.2403 12.069 20H10V22H12.069C12.2934 23.7598 13.0957 25.3953 14.3502 26.6498C15.6047 27.9043 17.2402 28.7066 19 28.931V31H21V28.931C22.7599 28.7068 24.3955 27.9045 25.65 26.65C26.9045 25.3955 27.7068 23.7599 27.931 22H30V20H27.931C27.7066 18.2402 26.9043 16.6047 25.6498 15.3502C24.3953 14.0957 22.7598 13.2934 21 13.069ZM20 27C16.691 27 14 24.309 14 21C14 17.691 16.691 15 20 15C23.309 15 26 17.691 26 21C26 24.309 23.309 27 20 27Z" fill="#828282"/>
</svg>
