<svg width="22" height="25" viewBox="0 0 22 25" fill="none" xmlns="http://www.w3.org/2000/svg">
<path d="M16 9.21979L6 3.45312" stroke="#8F89CC" stroke-width="2" stroke-linecap="round" stroke-linejoin="round"/>
<path d="M21 16.5533V7.66439C20.9996 7.27469 20.8967 6.89195 20.7017 6.55457C20.5067 6.21718 20.2264 5.93701 19.8889 5.74217L12.1111 1.29772C11.7733 1.10268 11.3901 1 11 1C10.6099 1 10.2267 1.10268 9.88889 1.29772L2.11111 5.74217C1.77363 5.93701 1.49331 6.21718 1.29829 6.55457C1.10327 6.89195 1.0004 7.27469 1 7.66439V16.5533C1.0004 16.943 1.10327 17.3257 1.29829 17.6631C1.49331 18.0005 1.77363 18.2807 2.11111 18.4755L9.88889 22.9199C10.2267 23.115 10.6099 23.2177 11 23.2177C11.3901 23.2177 11.7733 23.115 12.1111 22.9199L19.8889 18.4755C20.2264 18.2807 20.5067 18.0005 20.7017 17.6631C20.8967 17.3257 20.9996 16.943 21 16.5533Z" stroke="#8F89CC" stroke-width="2" stroke-linecap="round" stroke-linejoin="round"/>
<path d="M1.2998 6.50879L10.9998 12.1199L20.6998 6.50879" stroke="#8F89CC" stroke-width="2" stroke-linecap="round" stroke-linejoin="round"/>
<path d="M11 23.3094V12.1094" stroke="#8F89CC" stroke-width="2" stroke-linecap="round" stroke-linejoin="round"/>
</svg>
