<svg width="24" height="24" viewBox="0 0 24 24" fill="none" xmlns="http://www.w3.org/2000/svg">
<path d="M23.5999 13.3994V15.5994C23.5999 16.2614 23.0629 16.7989 22.4009 16.7994C22.4009 16.7994 22.3464 16.7994 22.2499 16.7994V21.9494C22.2499 22.8329 21.5334 23.5494 20.6499 23.5494H1.9999C1.1164 23.5494 0.399902 22.8329 0.399902 21.9494V7.04941C0.399902 6.16591 1.1164 5.44941 1.9999 5.44941H3.6499V1.59941C3.6499 0.936914 4.1874 0.399414 4.8499 0.399414H11.5999C12.1014 0.399414 12.5314 0.707414 12.7104 1.14491C14.7993 1.74616 16.8647 2.34061 18.9169 2.93141C19.5534 3.11491 19.9214 3.77991 19.7379 4.41691L19.4404 5.44941H20.6499C21.5334 5.44941 22.2499 6.16591 22.2499 7.04941V12.1994H22.3999C23.0624 12.1994 23.5999 12.7369 23.5999 13.3994Z" fill="#B9BCFF"/>
<path d="M12.7999 5.44941H3.6499V1.59941C3.6499 0.936914 4.1874 0.399414 4.8499 0.399414H11.5999C12.1014 0.399414 12.5314 0.707414 12.7104 1.14491C12.8324 1.44031 12.7999 1.23641 12.7999 5.44941Z" fill="#B9BCFF"/>
<path d="M19.738 4.41751L19.4405 5.45001H12.7999C12.7999 1.23926 12.8325 1.44111 12.7104 1.14551C14.7993 1.74676 16.8647 2.34121 18.917 2.93201C19.5535 3.11551 19.9215 3.78051 19.738 4.41751Z" fill="#E8EAFF"/>
<path d="M23.6001 13.4002V15.6002C23.6001 16.2622 23.0631 16.7997 22.4011 16.8002C21.8073 16.8002 18.8826 16.8002 18.5501 16.8002C17.8876 16.8002 17.3501 16.2627 17.3501 15.6002V13.4002C17.3501 12.7377 17.8876 12.2002 18.5501 12.2002H22.4001C23.0626 12.2002 23.6001 12.7377 23.6001 13.4002Z" fill="#D2D1FF"/>
<path d="M18.9171 2.93213C19.5536 3.11563 19.9216 3.78063 19.7381 4.41763L19.4406 5.45013H17.9031C17.0907 4.69428 17.029 3.43083 17.7586 2.59863L18.9171 2.93213Z" fill="#D2D1FF"/>
<path d="M22.4047 13.7002H20.7547C19.7026 13.7002 18.8498 14.5531 18.8498 15.6052C18.8498 16.5676 17.4011 16.6243 17.3514 15.6632C17.3488 15.6132 17.3498 13.353 17.3498 13.4002C17.3498 12.7374 17.887 12.2002 18.5498 12.2002H22.3998C23.4341 12.2002 23.3804 13.7002 22.4047 13.7002Z" fill="#E8E8FF"/>
<path d="M22.2499 7.0502C22.2499 7.8234 21.6231 8.4502 20.8499 8.4502H17.0999C9.5336 8.4502 3.3999 14.5839 3.3999 22.1502C3.3999 22.9234 2.7731 23.5502 1.9999 23.5502C1.11625 23.5502 0.399902 22.8338 0.399902 21.9502V7.0502C0.399902 6.16655 1.11625 5.4502 1.9999 5.4502H20.6499C21.5336 5.4502 22.2499 6.16655 22.2499 7.0502Z" fill="#D2D1FF"/>
<path d="M11.8674 2.39941H6.8499C6.18715 2.39941 5.6499 2.93666 5.6499 3.59941V5.44941H3.6499V1.59941C3.6499 0.936664 4.18715 0.399414 4.8499 0.399414H11.5999C12.0849 0.399414 12.5254 0.689864 12.7138 1.15316C12.9561 1.74886 12.5105 2.39941 11.8674 2.39941Z" fill="#D2D1FF"/>
<path d="M6.2002 0.399414H8.3502V5.44941H6.2002V0.399414Z" fill="#BAA2FF"/>
<path d="M8.3502 0.399414V2.39941H6.8502C6.6107 2.39941 6.3877 2.46991 6.2002 2.59141V0.399414H8.3502Z" fill="#B9BCFF"/>
<path d="M13.8375 5.45001H12.7999C12.7999 1.23926 12.8325 1.44111 12.7104 1.14551L13.83 1.46751C13.8407 1.56076 13.8375 1.28676 13.8375 5.45001Z" fill="#D2D1FF"/>
<path d="M22.65 11.8197V7.05C22.65 5.9472 21.7528 5.05 20.65 5.05H19.9721L20.1224 4.52795C20.3671 3.6782 19.8773 2.79245 19.0275 2.54775L14.4889 1.24125C14.2766 1.18015 14.0549 1.3027 13.9939 1.515C13.9327 1.7273 14.0554 1.9489 14.2676 2.01005L17.1208 2.8314C16.7679 3.519 16.755 4.33915 17.112 5.05H8.75V1.9C8.75 1.6791 8.5709 1.5 8.35 1.5C8.1291 1.5 7.95 1.6791 7.95 1.9V5.05H6.6V1.9C6.6 1.6791 6.4209 1.5 6.2 1.5C5.9791 1.5 5.8 1.6791 5.8 1.9V5.05H4.05V1.6C4.05 1.1589 4.4089 0.8 4.85 0.8H11.6C12.0411 0.8 12.4 1.1589 12.4 1.6V3.8C12.4 4.0209 12.5791 4.2 12.8 4.2C13.0209 4.2 13.2 4.0209 13.2 3.8V1.6C13.2 0.71775 12.4823 0 11.6 0H4.85C3.96775 0 3.25 0.71775 3.25 1.6V5.05H2C0.8972 5.05 0 5.9472 0 7.05V21.95C0 23.0528 0.8972 23.95 2 23.95H20.65C21.7528 23.95 22.65 23.0528 22.65 21.95V19.025C22.65 18.8041 22.4709 18.625 22.25 18.625C22.0291 18.625 21.85 18.8041 21.85 19.025V21.95C21.85 22.6117 21.3117 23.15 20.65 23.15H2C1.33835 23.15 0.8 22.6117 0.8 21.95V7.05C0.8 6.38835 1.33835 5.85 2 5.85H20.65C21.3117 5.85 21.85 6.38835 21.85 7.05V11.8H18.55C17.6677 11.8 16.95 12.5177 16.95 13.4V15.6C16.95 16.4823 17.6677 17.2 18.55 17.2H22.4011C23.2794 17.2 24 16.4846 24 15.6V13.4C24 12.6028 23.4139 11.9401 22.65 11.8197ZM17.9115 3.05905L18.8062 3.3166C19.2311 3.43895 19.4758 3.88175 19.3536 4.30665L19.1396 5.05H18.0704C17.5653 4.4882 17.5185 3.6712 17.9115 3.05905ZM23.2 15.6C23.2 16.0411 22.8411 16.4 22.4 16.4H18.55C18.1089 16.4 17.75 16.0411 17.75 15.6V13.4C17.75 12.9589 18.1089 12.6 18.55 12.6H22.4C22.8411 12.6 23.2 12.9589 23.2 13.4V15.6ZM20.05 14.5C20.05 14.7209 19.8709 14.9 19.65 14.9H19.05C18.8291 14.9 18.65 14.7209 18.65 14.5C18.65 14.2791 18.8291 14.1 19.05 14.1H19.65C19.8709 14.1 20.05 14.2791 20.05 14.5Z" fill="#403669"/>
</svg>
