<svg width="33" height="30" viewBox="0 0 33 30" fill="none" xmlns="http://www.w3.org/2000/svg">
<path d="M11 9H3C2.46957 9 1.96086 9.21071 1.58579 9.58579C1.21071 9.96086 1 10.4696 1 11V27C1 27.5304 1.21071 28.0391 1.58579 28.4142C1.96086 28.7893 2.46957 29 3 29H15C15.5304 29 16.0391 28.7893 16.4142 28.4142C16.7893 28.0391 17 27.5304 17 27V15L11 9Z" stroke="#8F89CC" stroke-width="2" stroke-linecap="round" stroke-linejoin="round"/>
<path d="M11 9V15H17" stroke="#8F89CC" stroke-width="2" stroke-linecap="round" stroke-linejoin="round"/>
<path d="M13 20H5" stroke="#8F89CC" stroke-width="2" stroke-linecap="round" stroke-linejoin="round"/>
<path d="M13 24H5" stroke="#8F89CC" stroke-width="2" stroke-linecap="round" stroke-linejoin="round"/>
<path d="M7 16H6H5" stroke="#8F89CC" stroke-width="2" stroke-linecap="round" stroke-linejoin="round"/>
<path d="M30.9158 5.1668L26.214 4.73072L24.3463 0.393774C24.2155 0.0900962 23.7849 0.0900962 23.6542 0.393774L21.7865 4.73069L17.0847 5.1668C16.7554 5.19731 16.6224 5.60681 16.8708 5.82503L20.4183 8.94147L19.3801 13.5479C19.3074 13.8705 19.6558 14.1235 19.9401 13.9547L24.0002 11.5439L28.0604 13.9547C28.3447 14.1236 28.693 13.8705 28.6203 13.5479L27.5821 8.94147L31.1297 5.82503C31.378 5.60681 31.245 5.19731 30.9158 5.1668Z" fill="#FFDC64"/>
<path d="M19.1937 0.244392C19.4334 0.577319 20.1099 2.00711 20.4967 2.84038C20.5576 2.97137 20.3932 3.08971 20.2883 2.99046C19.6207 2.35934 18.4794 1.26416 18.2397 0.9312C18.05 0.667776 18.1098 0.300466 18.3733 0.110799C18.6367 -0.0788675 19.004 -0.019032 19.1937 0.244392Z" fill="#FFF082"/>
<path d="M28.8064 0.244392C28.5667 0.577319 27.8902 2.00711 27.5034 2.84038C27.4425 2.97137 27.6069 3.08971 27.7118 2.99046C28.3793 2.35934 29.5207 1.26413 29.7604 0.9312C29.95 0.667776 29.8902 0.300466 29.6268 0.110799C29.3634 -0.0788675 28.9961 -0.019032 28.8064 0.244392Z" fill="#FFF082"/>
<path d="M32.5941 10.0075C32.2041 9.88035 30.6363 9.67022 29.7249 9.55491C29.5817 9.53677 29.5189 9.72932 29.6453 9.79914C30.4494 10.2433 31.8396 10.9979 32.2296 11.1251C32.5382 11.2258 32.8699 11.0572 32.9706 10.7486C33.0712 10.4399 32.9027 10.1082 32.5941 10.0075Z" fill="#FFF082"/>
<path d="M15.4056 10.0075C15.7957 9.88035 17.3635 9.67022 18.2748 9.55491C18.4181 9.53677 18.4809 9.72932 18.3545 9.79914C17.5503 10.2433 16.1602 10.9979 15.7701 11.1251C15.4615 11.2258 15.1298 11.0572 15.0291 10.7486C14.9285 10.4399 15.097 10.1082 15.4056 10.0075Z" fill="#FFF082"/>
<path d="M23.4297 16.6405C23.4297 16.2302 23.716 14.6746 23.889 13.7724C23.9162 13.6306 24.1187 13.6306 24.1459 13.7724C24.3189 14.6746 24.6052 16.2302 24.6052 16.6405C24.6052 16.9651 24.3421 17.2282 24.0175 17.2282C23.6928 17.2282 23.4297 16.9651 23.4297 16.6405Z" fill="#FFF082"/>
<path d="M25.0254 1.97087L24.3462 0.393774C24.2154 0.0900962 23.7849 0.0900962 23.6541 0.393774L21.7864 4.73069L17.0847 5.1668C16.7554 5.19731 16.6224 5.60681 16.8708 5.82503L20.4183 8.94147L19.3801 13.5479C19.3074 13.8705 19.6558 14.1235 19.9401 13.9547L20.4804 13.6339C21.3663 7.89923 23.8569 3.68958 25.0254 1.97087Z" fill="#FFC850"/>
</svg>
