<svg width="24" height="31" viewBox="0 0 24 31" fill="none" xmlns="http://www.w3.org/2000/svg">
<path d="M20.9359 20.934C20.9359 28.0826 16.3659 30.1251 10.7236 30.1251C5.08125 30.1251 0.51124 28.0826 0.51124 20.934C0.508213 18.5643 1.20449 16.2463 2.51286 14.2705L2.50264 14.2654C3.35582 12.9884 4.3361 11.8011 5.42847 10.7217H14.834C14.9554 11.3161 15.4783 11.743 16.085 11.7429C16.3363 11.7448 16.5821 11.6699 16.7897 11.5285C18.9853 13.9079 20.9359 16.844 20.9359 20.934Z" fill="#ECE8FC"/>
<path d="M17 11C16.7163 11.1385 13.8433 11.0018 13.5 11C12.671 11.0001 12.8286 11.5821 12.6628 11H10.5698C10.7356 11.5821 11.4501 12.0001 12.2791 12C12.6223 12.0018 12.9582 11.9285 13.2419 11.79C16.2419 14.12 18.907 16.995 18.907 21C18.907 27.68 13.7195 29.3195 6.5 29.5C6.84884 29.509 6.69767 30 7.04651 30C15 30.5 21 28 21 21C21 16.995 19.5 13.83 16.5 11.5L17 11Z" fill="#B9BCFF"/>
<path d="M19.9145 9.44549C19.9156 9.78438 19.7815 10.1097 19.5419 10.3493C19.3022 10.589 18.9769 10.7231 18.638 10.722L17.3359 10.722C17.3523 10.6379 17.3608 10.5524 17.3615 10.4667V8.42425C17.3608 8.33855 17.3523 8.25308 17.3359 8.16895H18.638C18.9766 8.16895 19.3013 8.30344 19.5407 8.54284C19.7801 8.78223 19.9145 9.10693 19.9145 9.44549Z" fill="#E8EDFC"/>
<path d="M14.8084 10.4667C14.809 10.5524 14.8176 10.6379 14.8339 10.722H5.36199C4.65698 10.722 4.08545 10.1505 4.08545 9.44548C4.08545 8.74047 4.65698 8.16895 5.36199 8.16895H14.8339C14.8176 8.25308 14.809 8.33855 14.8084 8.42425V10.4667Z" fill="#E8EDFC"/>
<path d="M13.2766 8.16861H6.63858C5.6247 6.99006 4.95356 5.55595 4.69823 4.02241C4.66473 3.83957 4.73427 3.65309 4.87932 3.53684C5.02437 3.42059 5.22152 3.39332 5.39267 3.46584C6.4039 3.86977 7.46267 4.14262 8.54317 4.27772C9.29646 4.38075 10.0552 4.43872 10.8154 4.45133C11.0531 4.45264 11.2584 4.61776 11.3107 4.84961C11.4996 5.72787 12.0766 7.80608 13.2766 8.16861Z" fill="#E8EDFC"/>
<path d="M17.5809 1.08673C17.4328 2.32752 17.1928 5.02868 15.8244 7.17327H15.8193V7.17837C15.3232 7.28351 14.9363 7.67234 14.8338 8.16897H13.2764C12.0764 7.80643 11.4994 5.72822 11.3105 4.84997C11.2582 4.61811 11.0529 4.45299 10.8152 4.45169C10.055 4.43908 9.29625 4.3811 8.54297 4.27808C8.67573 3.78278 8.76253 3.34875 8.8187 3.0526C8.86638 2.81355 9.07535 2.64083 9.31911 2.639C11.967 2.61295 14.5625 1.89852 16.8507 0.565898C17.0187 0.480257 17.2204 0.495219 17.3739 0.604709C17.5274 0.714199 17.6072 0.900018 17.5809 1.08673Z" fill="#ABA4F7"/>
<path d="M17.3612 8.42401V10.4665C17.3605 10.5522 17.352 10.6376 17.3357 10.7218C17.2674 11.0524 17.0709 11.3424 16.7893 11.5286C16.5817 11.67 16.3359 11.7449 16.0846 11.743C15.4779 11.7431 14.955 11.3162 14.8336 10.7218C14.8173 10.6376 14.8088 10.5522 14.8081 10.4665V8.42401C14.8088 8.3383 14.8173 8.25284 14.8336 8.1687C14.9362 7.67207 15.323 7.28325 15.8191 7.17811V7.173H15.8242C15.9101 7.15642 15.9972 7.14787 16.0846 7.14747C16.6921 7.14535 17.2161 7.57317 17.3357 8.1687C17.352 8.25284 17.3605 8.3383 17.3612 8.42401Z" fill="#ABA4F7"/>
<path d="M9.95764 30.1103C10.4769 30.1287 10.9748 30.1241 11.4624 30.1103C6.19185 29.9178 2.04309 27.7441 2.04309 20.934C2.04006 18.5643 2.73634 16.2463 4.0447 14.2705L4.03449 14.2654C4.88767 12.9884 5.86795 11.8011 6.96032 10.7217C6.25531 10.74 5.66892 10.1834 5.65059 9.47835C5.63226 8.77333 6.18893 8.18694 6.89394 8.16861H8.17048C7.15661 6.99006 6.48547 5.55595 6.23014 4.02241C6.21573 3.93971 6.22241 3.85471 6.24954 3.77527C5.9105 3.66907 5.62455 3.56235 5.39273 3.46584C5.22157 3.39332 5.02443 3.42059 4.87938 3.53684C4.73433 3.65309 4.66479 3.83957 4.69829 4.02241C4.95362 5.55595 5.62476 6.99006 6.63863 8.16861H5.36209C4.90603 8.18047 4.49094 8.43474 4.27317 8.83563C4.05541 9.23652 4.06806 9.72313 4.30636 10.1122C4.54466 10.5012 4.97241 10.7336 5.42847 10.7217C4.3361 11.8011 3.35582 12.9884 2.50264 14.2654L2.51286 14.2705C1.20449 16.2463 0.508213 18.5643 0.51124 20.934C0.51124 27.7558 4.67378 29.926 9.95764 30.1103Z" fill="white"/>
<path d="M1.63446 24.7698L0.676033 25.1226C0.216365 23.7747 -0.0120367 22.3587 0.00048854 20.9346H1.02172C1.00928 22.2383 1.21642 23.5348 1.63446 24.7698Z" fill="white"/>
<path d="M7.6599 23.2324C7.6599 22.9504 7.43129 22.7218 7.14929 22.7218C6.86728 22.7218 6.63867 22.9504 6.63867 23.2324C6.63867 24.9215 8.20116 26.3175 10.213 26.5228V27.062C10.213 27.344 10.4416 27.5726 10.7236 27.5726C11.0056 27.5726 11.2342 27.344 11.2342 27.062V26.5228C13.246 26.3186 14.8085 24.9215 14.8085 23.2324C14.8085 21.5433 13.246 20.1473 11.2342 19.942V15.3526C12.6808 15.5354 13.7873 16.4795 13.7873 17.6156C13.7873 17.8976 14.0159 18.1262 14.2979 18.1262C14.5799 18.1262 14.8085 17.8976 14.8085 17.6156C14.8085 15.9265 13.246 14.5305 11.2342 14.3252V13.786C11.2342 13.504 11.0056 13.2754 10.7236 13.2754C10.4416 13.2754 10.213 13.504 10.213 13.786V14.3252C8.20116 14.5295 6.63867 15.9265 6.63867 17.6156C6.63867 19.3047 8.20116 20.7008 10.213 20.906V25.4955C8.76641 25.3127 7.6599 24.3685 7.6599 23.2324ZM13.7873 23.2324C13.7873 24.3685 12.6808 25.3127 11.2342 25.4955V20.9694C12.6808 21.1522 13.7873 22.0963 13.7873 23.2324ZM7.6599 17.6156C7.6599 16.4795 8.76641 15.5354 10.213 15.3526V19.8787C8.76641 19.6959 7.6599 18.7517 7.6599 17.6156Z" fill="#403669"/>
<path d="M0.673332 23.4822C0.391326 23.4836 0.161573 23.2561 0.160163 22.9741C0.158753 22.6921 0.38622 22.4623 0.668226 22.4609H0.673332C0.955338 22.4609 1.18395 22.6895 1.18395 22.9716C1.18395 23.2536 0.955338 23.4822 0.673332 23.4822Z" fill="#403669"/>
<path d="M1.83876 15.4091C1.58326 15.2902 1.27978 15.4008 1.16066 15.6562C0.391308 17.3092 -0.00476964 19.1112 0.000540987 20.9345C0.000540987 21.2165 0.229152 21.4451 0.511157 21.4451C0.793163 21.4451 1.02177 21.2165 1.02177 20.9345C1.01227 19.2595 1.37669 17.6035 2.08845 16.0872C2.14536 15.9642 2.15102 15.8236 2.10418 15.6964C2.05734 15.5692 1.96186 15.4658 1.83876 15.4091Z" fill="#403669"/>
<path d="M23.221 7.07164C23.4581 7.21823 23.7688 7.14768 23.9194 6.91314C24.0699 6.67859 24.0045 6.36668 23.7725 6.21228C23.6367 6.12139 22.6451 5.55205 20.2181 6.32972C20.9812 5.40863 21.4137 4.25846 21.4467 3.0628C21.4467 2.78079 21.218 2.55218 20.936 2.55218C20.654 2.55218 20.4254 2.78079 20.4254 3.0628C20.4254 5.16653 18.4738 6.78468 17.566 7.42448C17.3453 7.10275 17.0253 6.86209 16.655 6.73923C17.4407 5.05369 17.9167 3.24055 18.0602 1.38644L18.0878 1.14952C18.1372 0.776265 17.9762 0.40628 17.6694 0.188066C17.3626 -0.0301482 16.9602 -0.0608162 16.6239 0.108371C16.5013 0.169135 16.3686 0.239089 16.2215 0.312618C14.1086 1.49437 11.7297 2.11921 9.3088 2.12837C8.8228 2.13265 8.40766 2.47999 8.31769 2.95761C8.27838 3.16492 8.22629 3.42176 8.16094 3.70362C7.2793 3.56688 6.41643 3.32871 5.58947 2.99386C5.24594 2.85217 4.85256 2.90826 4.56232 3.14032C4.27209 3.37238 4.13081 3.74378 4.19345 4.11007C4.40985 5.37938 4.89221 6.58859 5.60888 7.65834H5.36225C4.88792 7.65661 4.43256 7.84449 4.09745 8.18019C3.76348 8.5167 3.57577 8.97139 3.57509 9.4455C3.57729 10.0818 3.91867 10.6686 4.47071 10.985C3.87469 11.6154 3.31321 12.2776 2.78874 12.9687C2.67929 13.1147 2.65601 13.3079 2.72767 13.4757C2.79933 13.6435 2.95504 13.7602 3.13616 13.7821C3.31727 13.8039 3.49627 13.7274 3.60573 13.5815C4.23644 12.7563 4.91862 11.9718 5.64819 11.2327H14.4773C14.772 11.8541 15.3973 12.2513 16.0852 12.2539C16.2822 12.2523 16.4776 12.2178 16.6632 12.1518C18.4672 14.1554 20.4254 16.9413 20.4254 20.9344C20.4254 26.7753 17.2519 29.6148 10.7237 29.6148C9.77738 29.6139 8.8324 29.5432 7.89644 29.4034C6.97883 29.2566 6.08232 28.9994 5.22642 28.6375C3.54238 27.9052 2.24047 26.5032 1.63475 24.7696C1.52876 24.5142 1.24581 24.3815 0.981673 24.4632C0.850133 24.5044 0.741996 24.5991 0.683714 24.724C0.625431 24.8489 0.622379 24.9926 0.675304 25.1199C0.850691 25.6086 1.06925 26.0808 1.32838 26.5307L1.76955 27.1782C1.92722 27.3868 2.09668 27.5863 2.27711 27.7756C2.99711 28.53 3.85558 29.1389 4.80568 29.5689C5.74336 29.9678 6.72625 30.2508 7.73253 30.4114C8.72267 30.5601 9.72247 30.6352 10.7237 30.6361C17.8392 30.6361 21.4467 27.3717 21.4467 20.9344C21.4467 16.6534 19.4042 13.6862 17.497 11.5492C17.5735 11.451 17.6392 11.3448 17.6931 11.2327H18.6383C19.1126 11.2345 19.568 11.0466 19.9031 10.7108C20.3291 10.2831 20.5103 9.66917 20.385 9.07864C20.2596 8.48811 19.8447 8.00076 19.2816 7.78293C22.0962 6.54979 23.1695 7.0456 23.221 7.07164ZM9.32718 3.1496C11.905 3.13381 14.4376 2.47065 16.6923 1.221C16.8327 1.14799 16.9614 1.0811 17.0742 1.02595L17.0462 1.269C16.8996 2.53533 16.6234 4.8617 15.475 6.75149C15.0368 6.91191 14.6787 7.23738 14.4773 7.65834H13.3815C12.6344 7.38414 12.0804 5.98352 11.8093 4.73966C11.7075 4.27689 11.2997 3.94569 10.8258 3.94106C10.2274 3.92982 9.68206 3.89255 9.17757 3.83893C9.23731 3.58005 9.28633 3.34364 9.32718 3.1496ZM5.19119 3.93544C6.21942 4.34852 7.29615 4.62873 8.39531 4.76928C8.40041 4.76928 8.40399 4.77489 8.40909 4.77591C8.43258 4.77948 8.45632 4.78101 8.48007 4.78051C9.25231 4.88595 10.0302 4.94495 10.8095 4.95718C10.995 5.91594 11.357 6.83188 11.8772 7.65834H6.88286C6.00899 6.58325 5.42705 5.30102 5.19323 3.93544H5.19119ZM4.81742 8.90322C4.96228 8.75952 5.1582 8.67909 5.36225 8.67957L14.298 8.67957V10.2114L5.36225 10.2114C5.05194 10.2122 4.77184 10.0256 4.65292 9.73903C4.534 9.45241 4.59977 9.12236 4.81946 8.90322H4.81742ZM15.3193 10.4667V8.42426C15.3195 8.06304 15.5721 7.75108 15.9254 7.6757C15.9325 7.6757 15.9397 7.6757 15.9463 7.67213C15.9921 7.6634 16.0386 7.65878 16.0852 7.65834C16.5082 7.65834 16.8511 8.00126 16.8511 8.42426V10.4667C16.8511 10.8897 16.5082 11.2327 16.0852 11.2327C15.6622 11.2327 15.3193 10.8897 15.3193 10.4667ZM19.181 9.98828C19.0365 10.1312 18.8415 10.2113 18.6383 10.2114H17.8723V8.67957L18.6383 8.67957C18.9488 8.6786 19.2292 8.86522 19.3482 9.15206C19.4671 9.4389 19.4011 9.76919 19.181 9.98828Z" fill="#403669"/>
</svg>
